<svg width="42" height="50" viewBox="0 0 42 50" fill="none" xmlns="http://www.w3.org/2000/svg"><path fill-rule="evenodd" clip-rule="evenodd" d="M20.679 1.573L1.566 7.413v15.514c0 8.564 4.412 16.484 11.597 20.877l7.516 4.593 7.516-4.593c7.185-4.393 11.597-12.313 11.597-20.877V7.414L20.68 1.574zm8.334 43.563l-7.638 4.668a1.332 1.332 0 01-1.392 0l-7.638-4.668C4.687 40.454 0 32.026 0 22.927V7.283c0-.608.392-1.145.964-1.32L20.29.059c.254-.077.524-.077.778 0l19.326 5.906c.572.174.964.71.964 1.32v15.643c0 9.099-4.687 17.527-12.345 22.21z" fill="#0EF5FF"/><path fill-rule="evenodd" clip-rule="evenodd" d="M12.66 23.933c0-4.245 3.459-7.694 7.707-7.694 4.249 0 7.708 3.449 7.708 7.694v6.184a2.784 2.784 0 011.97 2.659v1.473c0 .724-.587 1.307-1.308 1.307h-16.74c-.72 0-1.307-.583-1.307-1.307v-1.474c0-1.252.831-2.31 1.97-2.658v-6.184zm7.707-6.063c-3.351 0-6.077 2.722-6.077 6.063v6.877c0 .45-.365.816-.815.816-.638 0-1.155.518-1.155 1.15v1.15h16.094v-1.15c0-.632-.517-1.15-1.154-1.15a.815.815 0 01-.815-.816v-6.877c0-3.341-2.726-6.063-6.078-6.063zm.783 2.746a4.109 4.109 0 00-4.108 4.098.815.815 0 01-1.63 0c0-3.161 2.575-5.728 5.738-5.728a.815.815 0 010 1.63z" fill="#0EF5FF"/><path d="M20.296 13.809a.61.61 0 00.61-.609v-2.435a.61.61 0 00-1.22 0V13.2c0 .337.272.609.61.609zm6.71 2.171c.156 0 .312-.06.431-.178l1.83-1.826a.61.61 0 00-.862-.86l-1.83 1.825a.608.608 0 00.43 1.04zm-13.244-.178a.61.61 0 00.864-.86l-1.83-1.827a.611.611 0 00-.863 0 .608.608 0 000 .86l1.83 1.827zm20.329 3.558a.612.612 0 00-.819-.272l-2.44 1.218a.609.609 0 10.546 1.09l2.44-1.219a.609.609 0 00.273-.817zm-23.994 2.1a.61.61 0 00.273-1.154l-2.44-1.219a.61.61 0 10-.546 1.09l2.44 1.218a.616.616 0 00.273.064z" fill="#0EF5FF"/></svg>