<svg width="103" height="102" viewBox="0 0 103 102" fill="none" xmlns="http://www.w3.org/2000/svg"><g filter="url(#filter0_d)"><path fill-rule="evenodd" clip-rule="evenodd" d="M72.004 33.882v28.636a3.71 3.71 0 01-3.5 3.882h-11.2v1.4h2.8a2.8 2.8 0 012.8 2.8v.7a.7.7 0 01-.7.7h-22.4a.7.7 0 01-.7-.7v-.7a2.8 2.8 0 012.8-2.8h2.8v-1.4h-11.2a3.71 3.71 0 01-3.5-3.882V33.882a3.71 3.71 0 013.5-3.882h35a3.71 3.71 0 013.5 3.882zM61.504 70.6a1.4 1.4 0 00-1.4-1.4h-18.2a1.4 1.4 0 00-1.4 1.4h21zm-15.4-4.2v1.4h9.8v-1.4h-9.8zm-12.6-1.4h35a2.319 2.319 0 002.1-2.482V60.8h-39.2v1.718a2.318 2.318 0 002.1 2.482zm37.1-5.6V33.882a2.318 2.318 0 00-2.1-2.482h-35a2.318 2.318 0 00-2.1 2.482V59.4h39.2zm-2.8-19.196V42.6a.7.7 0 010 1.4h-16.1a2.1 2.1 0 01-2.1-2.1v-8.4a.7.7 0 011.4 0v8.4a.7.7 0 00.7.7h.7v-7.7a1.4 1.4 0 011.4-1.4h1.4a1.4 1.4 0 011.4 1.4v7.7h1.4v-4.389A1.213 1.213 0 0159.215 37h1.778c.669 0 1.21.542 1.211 1.211V42.6h1.4v-2.396c0-.61.495-1.104 1.104-1.104h1.993c.609 0 1.103.494 1.103 1.104zm-14 2.396h1.4v-7.7h-1.4v7.7zm5.6 0h1.4v-4.2h-1.4v4.2zm5.6 0h1.4v-2.1h-1.4v2.1zm-25.882-9.541a1.03 1.03 0 011.352-.01l5.397 4.83a.7.7 0 11-.934 1.043l-5.133-4.595-5.133 4.595a.7.7 0 01-.934-1.043l1.167-1.045V35.25a.7.7 0 111.4 0v.33l2.818-2.521zm4.182 7.441a.7.7 0 111.4 0v5.342a.97.97 0 01-.98.958h-7.84a.968.968 0 01-.98-.956V40.5a.7.7 0 111.4 0v4.9h7v-4.9zm-3.5 7.7a4.9 4.9 0 100 9.8 4.9 4.9 0 000-9.8zm-3.5 4.9a3.506 3.506 0 012.8-3.43v3.033l-2.59 1.553a3.454 3.454 0 01-.21-1.156zm.932 2.357l2.46-1.476 2.035 2.035a3.467 3.467 0 01-4.495-.56zm5.485-.43l-2.217-2.217v-3.14a3.494 3.494 0 012.217 5.356zM67.804 56.6h-16.1a.7.7 0 01-.7-.7v-1.11l2.306-2.305a.715.715 0 01.99 0l.82.82a2.1 2.1 0 002.969 0l2.92-2.92a.715.715 0 01.99 0l.82.82a2.104 2.104 0 002.97 0l2.51-2.51a.7.7 0 00-.99-.99l-2.51 2.51a.7.7 0 01-.99 0l-.82-.82a2.15 2.15 0 00-2.97 0l-2.92 2.92a.7.7 0 01-.99 0l-.82-.82a2.151 2.151 0 00-2.97 0l-1.315 1.315V47.5a.7.7 0 00-1.4 0v8.4c0 1.16.94 2.1 2.1 2.1h16.1a.7.7 0 100-1.4z" fill="#0EF5FF"/></g><defs><filter id="filter0_d" x="0" y="0" width="102.009" height="102" filterUnits="userSpaceOnUse" color-interpolation-filters="sRGB"><feFlood flood-opacity="0" result="BackgroundImageFix"/><feColorMatrix in="SourceAlpha" values="0 0 0 0 0 0 0 0 0 0 0 0 0 0 0 0 0 0 127 0"/><feOffset/><feGaussianBlur stdDeviation="15"/><feColorMatrix values="0 0 0 0 0.054902 0 0 0 0 0.960784 0 0 0 0 1 0 0 0 0.8 0"/><feBlend in2="BackgroundImageFix" result="effect1_dropShadow"/><feBlend in="SourceGraphic" in2="effect1_dropShadow" result="shape"/></filter></defs></svg>