<svg width="102" height="102" viewBox="0 0 102 102" fill="none" xmlns="http://www.w3.org/2000/svg"><g filter="url(#filter0_d)"><path fill-rule="evenodd" clip-rule="evenodd" d="M65 37.416V33.5a3.504 3.504 0 00-3.5-3.5h-28a3.504 3.504 0 00-3.5 3.5v15.4a3.493 3.493 0 003.139 3.464l2.631 6.83a3.5 3.5 0 004.524 2.008l16.432-6.33a10.12 10.12 0 00.872 8.985L58 64.5v6.8a.7.7 0 00.7.7h12.6a.7.7 0 00.7-.7V48.194a9.161 9.161 0 00-2.682-6.452L65 37.416zm0 4.186l2.124 5.515a2.1 2.1 0 01-1.205 2.714l-1.214.469c.194-.441.294-.918.295-1.4v-7.298zM31.4 48.9V33.5c0-1.16.94-2.1 2.1-2.1h28c1.16 0 2.1.94 2.1 2.1v4.45h-.006l.006.015V48.9a2.128 2.128 0 01-.048.363L57.14 42.85a3.734 3.734 0 00-5.39 5.164L54.484 51H33.5a2.1 2.1 0 01-2.1-2.1zm8.968 3.5l-4.978 1.916-.736-1.916h5.714zm-.577 7.495a2.1 2.1 0 01-2.715-1.204l-1.18-3.071 8.355-3.22v-.004h11.516l.91.992-16.886 6.507zM59.4 70.6V65h11.2v5.6H59.4zm11.2-7H59.089l-.304-.485a8.73 8.73 0 01-.177-8.965.7.7 0 00-.092-.82l-5.736-6.258a2.334 2.334 0 013.37-3.23l11.155 11.153.99-.99-2.59-2.59.718-.28a3.5 3.5 0 002.007-4.522l-2.37-6.152 2.268 2.272a7.752 7.752 0 012.272 5.46V63.6zM37.98 39.8a1.82 1.82 0 001.82-1.82v-3.36a1.82 1.82 0 00-1.82-1.82h-3.36a1.82 1.82 0 00-1.82 1.82v3.36a1.82 1.82 0 001.82 1.82h3.36zm-3.78-1.82V37h1.4v-1.4h-1.4v-.98a.42.42 0 01.42-.42h3.36a.42.42 0 01.42.42v.98H37V37h1.4v.98a.42.42 0 01-.42.42h-3.36a.42.42 0 01-.42-.42zm2.1 3.92h-2.8v1.4h2.8v-1.4zm-2.8 4.2h2.8v1.4h-2.8v-1.4zm15.4 0h-2.8v1.4h2.8v-1.4zm-11.2-4.2h2.8v1.4h-2.8v-1.4zm7 0h-2.8v1.4h2.8v-1.4zm1.4 0h2.8v1.4h-2.8v-1.4zm14.7-8.4h-1.4v2.1h1.4v-2.1zm-4.2 0H58v2.1h-1.4v-2.1zm-1.4 0h-1.4v2.1h1.4v-2.1zm-4.2 0h1.4v2.1H51v-2.1zm11.2 32.9h-1.4v1.4h1.4v-1.4z" fill="#0EF5FF"/></g><defs><filter id="filter0_d" x="0" y="0" width="102" height="102" filterUnits="userSpaceOnUse" color-interpolation-filters="sRGB"><feFlood flood-opacity="0" result="BackgroundImageFix"/><feColorMatrix in="SourceAlpha" values="0 0 0 0 0 0 0 0 0 0 0 0 0 0 0 0 0 0 127 0"/><feOffset/><feGaussianBlur stdDeviation="15"/><feColorMatrix values="0 0 0 0 0.054902 0 0 0 0 0.960784 0 0 0 0 1 0 0 0 0.8 0"/><feBlend in2="BackgroundImageFix" result="effect1_dropShadow"/><feBlend in="SourceGraphic" in2="effect1_dropShadow" result="shape"/></filter></defs></svg>