<svg width="102" height="106" viewBox="0 0 102 106" fill="none" xmlns="http://www.w3.org/2000/svg"><g filter="url(#filter0_d)"><path fill-rule="evenodd" clip-rule="evenodd" d="M66.8 42.267a3.067 3.067 0 00-3.067-3.067H53v-5.367A3.838 3.838 0 0049.167 30H33.833A3.838 3.838 0 0030 33.833v38.334A3.838 3.838 0 0033.833 76h15.334A3.838 3.838 0 0053 72.167V45.333h10.733a3.067 3.067 0 003.067-3.066zm-15.333 29.9a2.3 2.3 0 01-2.3 2.3H33.833a2.3 2.3 0 01-2.3-2.3V33.833a2.3 2.3 0 012.3-2.3h15.334a2.3 2.3 0 012.3 2.3V39.2H46.79a6.056 6.056 0 00-5.29-3.067 6.133 6.133 0 100 12.267 6.057 6.057 0 005.29-3.067h4.677v26.834zM41.5 45.333h3.433a4.553 4.553 0 01-3.433 1.534 4.6 4.6 0 010-9.2 4.55 4.55 0 013.433 1.533H41.5a3.067 3.067 0 100 6.133zm0-1.533a1.533 1.533 0 110-3.067h22.233a1.533 1.533 0 110 3.067H41.5zm0 13.79a2.3 2.3 0 00-.767 4.468V64.5a.767.767 0 101.534 0v-2.442a2.3 2.3 0 00-.767-4.468zm0 3.077a.767.767 0 110-1.534.767.767 0 010 1.534zm24.508-6.262a.767.767 0 011.07 0 14.457 14.457 0 01.001 20.607.767.767 0 01-1.073 0l-2.196-2.168a.767.767 0 010-1.091 9.885 9.885 0 000-14.09.767.767 0 010-1.09l2.198-2.168zM65.42 72.28l1.109 1.093a12.924 12.924 0 00-.001-17.33l-1.108 1.094a11.415 11.415 0 010 15.143zm-2.726-13.538a.767.767 0 00-1.078 0l-2.195 2.168a.767.767 0 000 1.091 3.795 3.795 0 010 5.414.767.767 0 000 1.091l2.196 2.168a.767.767 0 001.078 0 8.373 8.373 0 000-11.933zm-.57 10.281l-1.116-1.1a5.33 5.33 0 000-6.428h.002l1.113-1.102a6.838 6.838 0 010 8.63zm-7.59-4.106a2.3 2.3 0 114.6 0 2.3 2.3 0 01-4.6 0zm1.532 0a.767.767 0 101.534 0 .767.767 0 00-1.534 0z" fill="#0EF5FF"/></g><defs><filter id="filter0_d" x="0" y="0" width="101.395" height="106" filterUnits="userSpaceOnUse" color-interpolation-filters="sRGB"><feFlood flood-opacity="0" result="BackgroundImageFix"/><feColorMatrix in="SourceAlpha" values="0 0 0 0 0 0 0 0 0 0 0 0 0 0 0 0 0 0 127 0"/><feOffset/><feGaussianBlur stdDeviation="15"/><feColorMatrix values="0 0 0 0 0.054902 0 0 0 0 0.960784 0 0 0 0 1 0 0 0 0.8 0"/><feBlend in2="BackgroundImageFix" result="effect1_dropShadow"/><feBlend in="SourceGraphic" in2="effect1_dropShadow" result="shape"/></filter></defs></svg>