<svg width="95" height="104" viewBox="0 0 95 104" fill="none" xmlns="http://www.w3.org/2000/svg"><g filter="url(#filter0_d)"><path fill-rule="evenodd" clip-rule="evenodd" d="M56.949 35.194a6.354 6.354 0 017.08 6.305 6.354 6.354 0 01-7.08 6.305V70.93a3.072 3.072 0 01-3.07 3.07H33.07A3.072 3.072 0 0130 70.931V33.07A3.072 3.072 0 0133.069 30h20.81a3.072 3.072 0 013.07 3.069v2.125zm-23.88-3.475a1.35 1.35 0 00-1.35 1.35v1.679h18.258a.86.86 0 010 1.719H31.719v29.346h2.175V41.671a.86.86 0 01.86-.86h16.619a6.362 6.362 0 013.858-5.166l-.001-.038V33.07a1.35 1.35 0 00-1.35-1.35H33.069zm20.81 40.562c.745 0 1.351-.605 1.351-1.35v-3.399H31.719v3.4c0 .744.605 1.35 1.35 1.35h20.81zM41.7 65.813h3.551v-4.31h-3.552v4.31zm11.355 0h2.176v-18.46a6.375 6.375 0 01-2.176-1.515v9.03a.86.86 0 11-1.718 0V42.53H35.613v23.283h1.482v-5.17a.86.86 0 011.719 0v5.17h1.166v-5.17a.86.86 0 01.859-.86h5.27a.86.86 0 01.86.86v5.17h1.166v-5.17a.86.86 0 011.719 0v5.17h1.482v-3.3a.86.86 0 111.718 0v3.3zm0-24.314a4.634 4.634 0 004.629 4.628A4.634 4.634 0 0062.31 41.5a4.633 4.633 0 00-4.628-4.628 4.634 4.634 0 00-4.629 4.628zm3.591 2.13a.858.858 0 001.216 0l2.699-2.7a.86.86 0 00-1.216-1.215l-2.091 2.091-.742-.742a.86.86 0 10-1.216 1.216l1.35 1.35zM40.863 70.766h4.355a.86.86 0 000-1.719h-4.355a.86.86 0 000 1.719zm11.332-11.29a.83.83 0 01-.329-.066.85.85 0 01-.386-.316.867.867 0 01-.128-.644.863.863 0 011.01-.676.864.864 0 01.547 1.32.812.812 0 01-.237.237.834.834 0 01-.31.13.83.83 0 01-.167.016zm-14.24-9.473h3.776a.86.86 0 00.86-.86v-3.777a.86.86 0 00-.86-.859h-3.777a.86.86 0 00-.86.86v3.776c0 .475.386.86.86.86zm2.917-1.72h-2.059v-2.057h2.059v2.058zm8.123 1.72h-3.777a.86.86 0 01-.86-.86v-3.777a.86.86 0 01.86-.859h3.777a.86.86 0 01.859.86v3.776a.86.86 0 01-.86.86zm-2.918-1.72h2.058v-2.057h-2.058v2.058zm-8.123 9.333h3.777a.86.86 0 00.86-.86V52.98a.86.86 0 00-.86-.86h-3.777a.86.86 0 00-.86.86v3.777c0 .474.386.86.86.86zm2.918-1.719h-2.059V53.84h2.059v2.058zm8.123 1.72h-3.777a.86.86 0 01-.86-.86V52.98a.86.86 0 01.86-.86h3.777a.86.86 0 01.859.86v3.777a.86.86 0 01-.86.86zm-2.918-1.72h2.058V53.84h-2.058v2.058z" fill="#0EF5FF"/></g><defs><filter id="filter0_d" x="0" y="0" width="94.029" height="104" filterUnits="userSpaceOnUse" color-interpolation-filters="sRGB"><feFlood flood-opacity="0" result="BackgroundImageFix"/><feColorMatrix in="SourceAlpha" values="0 0 0 0 0 0 0 0 0 0 0 0 0 0 0 0 0 0 127 0"/><feOffset/><feGaussianBlur stdDeviation="15"/><feColorMatrix values="0 0 0 0 0.054902 0 0 0 0 0.960784 0 0 0 0 1 0 0 0 0.8 0"/><feBlend in2="BackgroundImageFix" result="effect1_dropShadow"/><feBlend in="SourceGraphic" in2="effect1_dropShadow" result="shape"/></filter></defs></svg>