<svg width="34" height="58" viewBox="0 0 34 58" fill="none" xmlns="http://www.w3.org/2000/svg"><path d="M5.163 0h23.572c2.5 0 4.533 2.033 4.533 4.533v45.33a4.538 4.538 0 01-4.533 4.532H5.163A4.538 4.538 0 01.63 49.862V4.532A4.539 4.539 0 015.163 0zm-2.72 49.862c0 1.5 1.22 2.72 2.72 2.72h23.572c1.5 0 2.72-1.22 2.72-2.72V4.532a2.723 2.723 0 00-2.72-2.719H5.163c-1.5 0-2.72 1.22-2.72 2.72v45.33z" fill="#0090A1"/><path d="M1.537 48.954c.501 0 .907.405.907.907v3.607c0 1.5 1.22 2.72 2.72 2.72h23.57c1.5 0 2.72-1.22 2.72-2.72v-3.607a.906.906 0 111.814 0v3.606c0 2.5-2.034 4.533-4.533 4.533H5.163A4.538 4.538 0 01.63 53.468v-3.607c0-.502.406-.907.907-.907zm0-3.646h30.824a.906.906 0 110 1.813H1.537a.906.906 0 110-1.813z" fill="#0090A1"/><path d="M16.965 47.12c1.5 0 2.72 1.221 2.72 2.72 0 1.5-1.22 2.72-2.72 2.72-1.5 0-2.72-1.22-2.72-2.72 0-1.499 1.22-2.72 2.72-2.72zm0 3.627a.907.907 0 100-1.814.907.907 0 000 1.814zm-.781-41.272a.909.909 0 011.252-.279l9.972 6.347a.907.907 0 11-.973 1.53l-9.973-6.346a.907.907 0 01-.278-1.252z" fill="#0090A1"/><path d="M6.49 15.543l9.972-6.347a.907.907 0 11.974 1.53l-9.973 6.347a.91.91 0 01-1.252-.278.907.907 0 01.279-1.252zm9.694-2.442a.908.908 0 011.252-.278l9.972 6.346a.907.907 0 11-.973 1.53l-9.973-6.346a.907.907 0 01-.278-1.252z" fill="#0090A1"/><path d="M6.49 19.169l9.972-6.346a.907.907 0 11.974 1.53L7.463 20.7a.91.91 0 01-1.252-.278.907.907 0 01.279-1.252zm20.432-3.768c.5 0 .906.405.906.907v3.626a.906.906 0 11-1.813 0v-3.626c0-.502.405-.907.907-.907z" fill="#0090A1"/><path d="M6.977 15.401c.5 0 .906.405.906.907v3.626a.906.906 0 11-1.813 0v-3.626c0-.502.405-.907.907-.907zm18.131 2.473c.502 0 .907.406.907.907v11.126a.906.906 0 11-1.813 0V18.78c0-.501.405-.907.906-.907z" fill="#0090A1"/><path d="M6.07 29h21.758a.906.906 0 110 1.813H6.07a.906.906 0 110-1.813z" fill="#0090A1"/><path d="M8.79 17.874c.501 0 .906.406.906.907v11.126a.906.906 0 11-1.813 0V18.78c0-.501.405-.907.907-.907zm6.346 3.873h3.626c.502 0 .907.405.907.907v7.253a.906.906 0 01-.907.906h-3.626a.906.906 0 01-.907-.906v-7.253c0-.502.405-.907.907-.907zM16.043 29h1.813v-5.44h-1.814V29zm1.813 4.533h9.972a.906.906 0 110 1.813h-9.972a.906.906 0 110-1.813zm4.533 2.72h5.44a.906.906 0 110 1.813h-5.44a.906.906 0 110-1.813zM6.07 33.533h7.253c.501 0 .906.405.906.907v2.72a.906.906 0 01-.906.906H6.07a.906.906 0 01-.907-.907v-2.72c0-.5.406-.906.907-.906zm.907 2.72h5.44v-.907h-5.44v.907z" fill="#0090A1"/></svg>