<svg width="50" height="50" viewBox="0 0 50 50" fill="none" xmlns="http://www.w3.org/2000/svg"><path fill-rule="evenodd" clip-rule="evenodd" d="M41.757 14.133a.977.977 0 00-.215-.036 6.241 6.241 0 001.728-4.314V4.646a.993.993 0 00-.01-.138 4.07 4.07 0 00.01-.28V.976A.977.977 0 0042.293 0h-6.55a5.008 5.008 0 00-5.002 5.002v4.781c0 1.671.659 3.19 1.728 4.314a.98.98 0 00-.215.036c-4.615.418-8.243 4.307-8.243 9.029v4.172c0 .54.437.977.977.977h7.857a.977.977 0 100-1.953h-6.88v-3.196c0-3.617 2.713-6.61 6.212-7.055l4.138 4.138a.974.974 0 001.38 0l4.139-4.138c3.498.445 6.213 3.438 6.213 7.055v3.196h-7.194a.977.977 0 000 1.953h8.17c.54 0 .977-.437.977-.977v-4.172c0-4.722-3.628-8.611-8.243-9.03zm-4.751 4.04l-2.126-2.125h4.251l-2.125 2.125zm4.31-8.39a4.316 4.316 0 01-4.31 4.312 4.316 4.316 0 01-4.312-4.312V8.256h6.547c.759 0 1.47-.21 2.076-.577v2.104zm0-5.556a2.078 2.078 0 01-2.075 2.076h-6.547V5.002a3.053 3.053 0 013.05-3.049h5.573v2.274zm-23.57 31.595a.978.978 0 00-.215-.036 6.24 6.24 0 001.728-4.314v-5.137a.978.978 0 00-.01-.138 4.01 4.01 0 00.01-.28v-3.251a.977.977 0 00-.977-.977h-6.55a5.008 5.008 0 00-5.002 5.002v4.782c0 1.67.659 3.189 1.729 4.313a.976.976 0 00-.216.036C3.628 36.24 0 40.129 0 44.852v4.171c0 .54.437.977.977.977h24.035c.54 0 .977-.437.977-.977v-4.172c0-4.722-3.628-8.611-8.243-9.03zM8.683 27.93v-1.24a3.053 3.053 0 013.05-3.049h5.573v2.274a2.079 2.079 0 01-2.076 2.076H8.683v-.062zm0 2.015h6.547c.759 0 1.47-.21 2.076-.577v2.104a4.316 4.316 0 01-4.312 4.312 4.316 4.316 0 01-4.31-4.312v-1.527zm6.437 7.792l-2.125 2.125-2.126-2.125h4.251zm8.916 10.31H1.953v-1.953h4.053a.977.977 0 000-1.953H1.989a7.127 7.127 0 016.177-6.345l4.138 4.138a.977.977 0 001.381 0l4.138-4.138c3.498.445 6.213 3.438 6.213 7.055v3.196zm12.97-21.69a.98.98 0 01.69.287.984.984 0 01.286.69.98.98 0 01-1.667.69.978.978 0 01.69-1.667zM26.114 13.665L22.03 9.58V4.883A4.888 4.888 0 0017.147 0H4.883A4.888 4.888 0 000 4.883v8.594a4.888 4.888 0 004.883 4.882h12.264a4.855 4.855 0 004.518-3.027h3.758a.977.977 0 00.69-1.667zm-5.162-.286a.977.977 0 00-.951.758 2.914 2.914 0 01-2.854 2.27H4.883a2.933 2.933 0 01-2.93-2.93V4.883a2.933 2.933 0 012.93-2.93h12.264a2.933 2.933 0 012.93 2.93v5.102c0 .26.102.508.285.69l2.704 2.704h-2.113zM32.853 31.64h12.264A4.888 4.888 0 0150 36.523v8.594A4.888 4.888 0 0145.117 50H32.853a4.888 4.888 0 01-4.883-4.883V40.42l-4.084-4.084a.977.977 0 01.69-1.667h3.76a4.855 4.855 0 014.517-3.027zm12.264 16.406a2.933 2.933 0 002.93-2.93v-8.594a2.933 2.933 0 00-2.93-2.93H32.853A2.914 2.914 0 0030 35.864a.977.977 0 01-.951.758h-2.113l2.703 2.703a.977.977 0 01.285.69v5.103a2.933 2.933 0 002.93 2.93h12.264zm-1.742-9.825a.976.976 0 00-1.381 0l-2.596 2.596-1.208-1.207a.977.977 0 00-1.38 1.38l1.897 1.898a.973.973 0 001.381 0l3.287-3.286a.977.977 0 000-1.381zm-31.06-34.89a3.394 3.394 0 013.14 3.14 3.368 3.368 0 01-2.402 3.48v.285a.977.977 0 11-1.953 0v-.521a1.64 1.64 0 011.292-1.608 1.433 1.433 0 10-1.748-1.398.977.977 0 11-1.953 0c0-.935.392-1.838 1.076-2.476a3.358 3.358 0 012.548-.902zm.453 9.951a.984.984 0 00-.69-.286.98.98 0 00-.69 1.667.982.982 0 00.69.286.984.984 0 00.69-.286.984.984 0 00.286-.69.984.984 0 00-.286-.69zM9.912 44.141a.98.98 0 01.69.286.984.984 0 01.287.69.984.984 0 01-.287.69.984.984 0 01-.69.287.984.984 0 01-.69-.286.984.984 0 01-.286-.69.98.98 0 01.286-.691.984.984 0 01.69-.286z" fill="#0090A1"/></svg>