<svg width="44" height="44" viewBox="0 0 44 44" fill="none" xmlns="http://www.w3.org/2000/svg"><path fill-rule="evenodd" clip-rule="evenodd" d="M41.067 11.367l.88.66C43.267 12.98 44 14.52 44 16.133V44h-1.467V16.133c0-1.173-.513-2.273-1.466-2.933v8.213c0 .587-.22 1.1-.66 1.54-.807.88-2.2.88-3.08 0l-2.787-2.786a1.373 1.373 0 00-1.907 0 1.373 1.373 0 000 1.906l1.907 1.907c.44.367.66.953.66 1.54v3.813c0 1.174.513 2.274 1.467 2.934l.513.44c.587.44.88 1.1.88 1.76V44h-1.467v-9.533c0-.22-.073-.44-.293-.587l-.587-.44c-.44-.293-.806-.733-1.1-1.173h-25.3c-.293.44-.66.88-1.1 1.173l-.586.44c-.22.147-.294.367-.294.587V44H5.867v-9.533c0-.66.293-1.32.88-1.76l.586-.44c.954-.66 1.467-1.76 1.467-2.934V25.52c0-.587.22-1.1.66-1.54l1.907-1.907a1.373 1.373 0 000-1.906 1.373 1.373 0 00-1.907 0l-2.787 2.786c-.366.44-.953.66-1.54.66-1.246 0-2.2-.953-2.2-2.2V13.2c-.953.66-1.466 1.76-1.466 2.933V44H0V16.133c0-1.613.733-3.153 2.053-4.106l.88-.66V2.2c0-1.247.954-2.2 2.2-2.2h33.734c1.246 0 2.2.953 2.2 2.2v9.167zm-30.8 17.966a4.73 4.73 0 01-.22 1.467h23.906a4.73 4.73 0 01-.22-1.467H10.267zM30.8 21.12a2.785 2.785 0 012.787-2.787c.733 0 1.466.294 1.98.807l1.1 1.1V4.4H7.333v15.84l1.1-1.1c1.1-1.1 2.86-1.1 3.96 0s1.1 2.86 0 3.96l-1.906 1.907a.665.665 0 00-.22.513v2.347h23.466V25.52a.665.665 0 00-.22-.513L31.607 23.1a2.833 2.833 0 01-.807-1.98zm8.067 1.027c.44 0 .733-.294.733-.734V2.2c0-.44-.293-.733-.733-.733H5.133c-.44 0-.733.293-.733.733v19.213c0 .147.073.367.22.514a.709.709 0 001.027 0l.22-.22V2.933h32.266v18.774l.22.22a.67.67 0 00.514.22zM18.333 11a3.631 3.631 0 00-3.666-3.667c-1.32 0-2.494.734-3.154 1.834a3.618 3.618 0 001.32 4.986L12.1 15.4c-.807-.513-1.467-1.1-1.907-1.907C8.8 11 9.607 7.847 12.1 6.453c2.493-1.393 5.647-.586 7.04 1.907 1.393 2.493.513 5.647-1.907 7.04l-.733-1.247c1.1-.66 1.833-1.833 1.833-3.153zm9.534-5.133h1.466V11h-1.466V5.867zM19.066 22h-.733c-1.247 0-2.2.953-2.2 2.2 0 1.247.953 2.2 2.2 2.2 1.246 0 2.2-.953 2.2-2.2v-4.4h4.4V22H24.2c-1.247 0-2.2.953-2.2 2.2 0 1.247.953 2.2 2.2 2.2 1.247 0 2.2-.953 2.2-2.2v-5.867h-7.333V22zm0 2.2c0 .44-.294.733-.733.733-.44 0-.734-.293-.734-.733s.293-.733.733-.733h.734v.733zm5.866 0c0 .44-.293.733-.733.733s-.733-.293-.733-.733.293-.733.733-.733h.733v.733zm5.5-15.693l.734-1.247a5.92 5.92 0 011.907 1.907c1.393 2.493.586 5.646-1.907 7.04-2.494 1.393-5.647.586-7.04-1.907-1.393-2.493-.514-5.647 1.907-7.04l.733 1.247c-.514.293-1.027.733-1.32 1.32a3.618 3.618 0 001.32 4.986 3.618 3.618 0 004.986-1.32 3.618 3.618 0 00-1.32-4.986zm-16.5 3.226H15.4v5.134h-1.466v-5.134zm15.914 29.114l-1.027-1.1a9.832 9.832 0 01-13.64 0l-1.027 1.1a11.387 11.387 0 0015.694 0zm-2.42-2.64c-3.154 2.933-8.067 2.86-11.073-.294l1.1-1.026.22.22c2.566 2.42 6.6 2.346 9.02-.22l1.026 1.026-.293.294zm-1.907-3.3l-1.1-.954a2.936 2.936 0 01-4.107.66c-.22-.146-.44-.366-.66-.66l-1.1.954c1.467 1.906 4.254 2.273 6.16.806.294-.22.514-.44.807-.806z" fill="#0EF5FF"/></svg>