<svg width="50" height="50" viewBox="0 0 50 50" fill="none" xmlns="http://www.w3.org/2000/svg"><path fill-rule="evenodd" clip-rule="evenodd" d="M25 0C11.235 0 0 11.235 0 25c0 13.766 11.235 25 25 25 13.766 0 25-11.235 25-25S38.765 0 25 0zm0 47.07c-12.17 0-22.07-9.9-22.07-22.07S12.83 2.93 25 2.93 47.07 12.83 47.07 25 37.17 47.07 25 47.07zm-7.324-16.21a1.465 1.465 0 11-2.93 0 1.465 1.465 0 012.93 0zm17.578 0a1.465 1.465 0 11-2.93 0 1.465 1.465 0 012.93 0zM5.957 25c0-10.494 8.53-19.043 19.043-19.043 10.508 0 19.043 8.554 19.043 19.043 0 5.4-2.313 10.569-6.347 14.182a1.465 1.465 0 11-1.955-2.181 16.175 16.175 0 005.304-10.546h-1.397A1.457 1.457 0 0138.184 25c0-.809.656-1.465 1.464-1.465h1.398a16.041 16.041 0 00-3.669-8.84l-.983.983a1.465 1.465 0 11-2.072-2.072l.983-.983a16.04 16.04 0 00-8.84-3.669v1.398a1.465 1.465 0 01-2.93 0V8.954a16.04 16.04 0 00-8.84 3.669l.983.983a1.465 1.465 0 11-2.072 2.072l-.983-.983a16.042 16.042 0 00-3.669 8.84h1.398a1.465 1.465 0 010 2.93H8.955A16.152 16.152 0 0014.26 37a1.465 1.465 0 01-1.955 2.182A19.073 19.073 0 015.957 25zm20.508-4.143v-4.646a1.465 1.465 0 00-2.93 0v4.646A4.401 4.401 0 0020.605 25 4.4 4.4 0 0025 29.395 4.4 4.4 0 0029.395 25a4.401 4.401 0 00-2.93-4.143zM25 26.465A1.466 1.466 0 0123.535 25c0-.808.657-1.465 1.465-1.465s1.465.657 1.465 1.465-.657 1.465-1.465 1.465zm-7.324 7.324c0-.809.656-1.465 1.465-1.465h11.718c.81 0 1.465.656 1.465 1.465v5.86c0 .808-.656 1.464-1.465 1.464H19.141a1.465 1.465 0 01-1.465-1.465V33.79zm2.93 1.465v2.93h8.788v-2.93h-8.788z" fill="#0EF5FF"/></svg>