<svg width="102" height="102" viewBox="0 0 102 102" fill="none" xmlns="http://www.w3.org/2000/svg"><g filter="url(#filter0_d)"><path fill-rule="evenodd" clip-rule="evenodd" d="M46.57 30.82a.82.82 0 011.64 0v1.395a.82.82 0 11-1.64 0V30.82zm8.065 1.23a.827.827 0 00-.58-.241.827.827 0 00-.58.24.827.827 0 00-.24.58.821.821 0 00.82.82.827.827 0 00.58-.24.827.827 0 00.24-.58.829.829 0 00-.24-.58zm-1.4 3.555a.82.82 0 011.64 0v3.254a.82.82 0 01-1.64 0v-3.254zm16.672 15.38l-1.905-.238a13.102 13.102 0 00-2.446-3.862l1.4-5.936a.82.82 0 00-.797-1.009h-.182a5.652 5.652 0 00-5.246 3.61 12.918 12.918 0 00-1.794-.567.82.82 0 10-.378 1.596 11.37 11.37 0 015.42 3.015.82.82 0 00.198.205 11.417 11.417 0 012.465 3.981.82.82 0 00.67.534l2.392.3a.75.75 0 01.656.743v4.136a.75.75 0 01-.656.743l-2.217.277a.82.82 0 00-.681.57 11.38 11.38 0 01-3.614 5.372.82.82 0 00-.297.632v4.534a.739.739 0 01-.738.738H57.4a.739.739 0 01-.738-.738v-1.728a.82.82 0 00-.82-.82H48.95a.82.82 0 00-.82.82v1.728a.739.739 0 01-.739.738h-4.758a.739.739 0 01-.738-.738V66.42a.82.82 0 00-.429-.721 11.401 11.401 0 01-5.969-10.026c0-6.286 5.114-11.4 11.4-11.4h1.028a.82.82 0 100-1.64h-1.028c-6.09 0-11.217 4.195-12.645 9.848h-.6a2.012 2.012 0 01-2.01-2.01c0-1.108.901-2.01 2.01-2.01a.82.82 0 000-1.64A3.655 3.655 0 0030 50.47a3.654 3.654 0 003.65 3.65h.298a13.04 13.04 0 006.305 12.776v2.724A2.381 2.381 0 0042.632 72h4.758a2.381 2.381 0 002.379-2.379v-.907h5.251v.907A2.381 2.381 0 0057.4 72h4.758a2.381 2.381 0 002.379-2.379v-4.156a13.014 13.014 0 003.666-5.388l1.705-.213A2.393 2.393 0 0072 57.493v-4.136c0-1.203-.9-2.222-2.093-2.371zm-5.729-5.406a13.08 13.08 0 00-1.957-1.325 4.005 4.005 0 012.877-2.573l-.92 3.898zm-1.524 5.251a.826.826 0 00-.58-.24.826.826 0 00-.58.24.826.826 0 00-.24.58c0 .216.088.428.24.58.153.153.364.24.58.24a.826.826 0 00.58-.24.827.827 0 00.24-.58.826.826 0 00-.24-.58zm-23.308 4.843a.82.82 0 00-1.64 0v.044a.82.82 0 00.82.815h.005a.82.82 0 00.816-.825v-.034zm.498 2.7a7.603 7.603 0 003.134 3.755.82.82 0 01-.853 1.401 9.252 9.252 0 01-3.813-4.569.82.82 0 111.532-.587zm7.547-24.431a3.45 3.45 0 00-3.446 3.445 3.45 3.45 0 003.446 3.445 3.45 3.45 0 003.445-3.445 3.45 3.45 0 00-3.445-3.445zm0 5.25c-.995 0-1.805-.81-1.805-1.805 0-.995.81-1.805 1.805-1.805.995 0 1.804.81 1.804 1.805 0 .995-.81 1.805-1.804 1.805zm9.597 8.199h.739a.82.82 0 110 1.64H47.063a.82.82 0 110-1.64h4.059a3.424 3.424 0 01-.512-1.805 3.45 3.45 0 013.445-3.445 3.45 3.45 0 013.445 3.445 3.42 3.42 0 01-.512 1.805zm-4.738-1.805c0 .995.81 1.805 1.805 1.805.995 0 1.805-.81 1.805-1.805 0-.995-.81-1.805-1.805-1.805-.995 0-1.805.81-1.805 1.805z" fill="#0EF5FF"/></g><defs><filter id="filter0_d" x="0" y="0" width="102" height="102" filterUnits="userSpaceOnUse" color-interpolation-filters="sRGB"><feFlood flood-opacity="0" result="BackgroundImageFix"/><feColorMatrix in="SourceAlpha" values="0 0 0 0 0 0 0 0 0 0 0 0 0 0 0 0 0 0 127 0"/><feOffset/><feGaussianBlur stdDeviation="15"/><feColorMatrix values="0 0 0 0 0.054902 0 0 0 0 0.960784 0 0 0 0 1 0 0 0 0.8 0"/><feBlend in2="BackgroundImageFix" result="effect1_dropShadow"/><feBlend in="SourceGraphic" in2="effect1_dropShadow" result="shape"/></filter></defs></svg>