<svg width="106" height="102" viewBox="0 0 106 102" fill="none" xmlns="http://www.w3.org/2000/svg"><g filter="url(#filter0_d)"><path fill-rule="evenodd" clip-rule="evenodd" d="M55.024 52.428c6.193 0 11.214-5.02 11.214-11.213C66.238 35.02 61.218 30 55.024 30c-6.193 0-11.214 5.02-11.214 11.214.007 6.19 5.023 11.207 11.214 11.214zm0-20.776c5.281 0 9.562 4.281 9.562 9.563a9.562 9.562 0 01-9.562 9.562 9.562 9.562 0 01-9.563-9.563 9.573 9.573 0 019.563-9.562zM32.6 71.317c.08.449.507.75.956.67l6.743-1.179a.826.826 0 00.67-.956l-.13-.752 1.572-1.278a3.088 3.088 0 012.207-.706l10.996.804a.849.849 0 00.055.002h.068a11.481 11.481 0 006.748-2.209.836.836 0 00.09-.076L75.67 52.814a.826.826 0 00.046-1.132 4.322 4.322 0 00-5.94-.566l-6.015 4.498a5.47 5.47 0 00-5.165-1.916l-6.149 1.075c-.98.17-1.985.118-2.942-.153l-.687-.197a11.163 11.163 0 00-10.179 2.113l-.259-1.48a.826.826 0 00-.955-.671l-6.743 1.18a.826.826 0 00-.67.955L32.6 71.317zm15.767-15.304l.688.196a8.291 8.291 0 003.678.192l6.15-1.076a3.82 3.82 0 014.184 2.303l-9.206 1.61a.826.826 0 10.285 1.627l10.107-1.768a.825.825 0 00.671-.956 5.458 5.458 0 00-.313-1.1l6.163-4.608.017-.014a2.674 2.674 0 013.088-.162L61.461 64.419a9.824 9.824 0 01-5.724 1.859h-.032l-10.967-.805a4.727 4.727 0 00-3.375 1.075l-.85.69-1.536-8.777a9.522 9.522 0 019.39-2.448zm-11.47.141l2.304 13.17-5.116.895-2.303-13.17 5.115-.895zm22.17-13.206h-4.62a.899.899 0 01-.868-.867v-6.064a.826.826 0 111.651 0v5.28h3.836a.826.826 0 010 1.651z" fill="#0EF5FF"/></g><defs><filter id="filter0_d" x="0" y="0" width="105.919" height="102" filterUnits="userSpaceOnUse" color-interpolation-filters="sRGB"><feFlood flood-opacity="0" result="BackgroundImageFix"/><feColorMatrix in="SourceAlpha" values="0 0 0 0 0 0 0 0 0 0 0 0 0 0 0 0 0 0 127 0"/><feOffset/><feGaussianBlur stdDeviation="15"/><feColorMatrix values="0 0 0 0 0.054902 0 0 0 0 0.960784 0 0 0 0 1 0 0 0 0.8 0"/><feBlend in2="BackgroundImageFix" result="effect1_dropShadow"/><feBlend in="SourceGraphic" in2="effect1_dropShadow" result="shape"/></filter></defs></svg>