<svg width="97" height="95" viewBox="0 0 97 95" fill="none" xmlns="http://www.w3.org/2000/svg"><g filter="url(#filter0_d)"><path fill-rule="evenodd" clip-rule="evenodd" d="M65.15 59.6h.617c.68 0 1.233.552 1.233 1.233V63.3c0 .681-.552 1.233-1.233 1.233H31.233A1.233 1.233 0 0130 63.3v-2.467c0-.68.552-1.233 1.233-1.233h.617V38.633h-.378a1.233 1.233 0 01-1.171-1.623l2.055-6.167c.169-.504.64-.844 1.172-.843h29.944c.532 0 1.004.339 1.172.843L66.7 37.01a1.234 1.234 0 01-1.172 1.623h-.378V59.6zm-1.678-28.367H33.528L31.473 37.4h34.055l-2.056-6.167zm.445 17.267v-9.867H33.083V48.5h30.834zm0 1.233H33.083V59.6h11.1v-8.017c0-.34.276-.616.617-.616h7.4c.34 0 .617.276.617.616V59.6h11.1v-9.867zm-18.5 9.867h6.166v-7.4h-6.166v7.4zm6.166 1.233h-6.166v.617h6.166v-.617zm-7.4 0h-12.95V63.3h12.95v-2.467zm7.4 1.85h-6.166v.617h6.166v-.617zm1.234.617h12.95v-2.467h-12.95V63.3zm1.85-16.033h7.4c.34 0 .616-.276.616-.617v-6.167a.617.617 0 00-.616-.616h-7.4a.617.617 0 00-.617.616v6.167c0 .34.276.617.617.617zm.616-3.084h.617v1.85h-.617v-1.85zm1.85 0h.617v1.85h-.617v-1.85zm1.85 0h.617v1.85h-.617v-1.85zm2.467 1.85h-.617v-1.85h.617v1.85zm0-4.933v1.85h-6.167V41.1h6.167zm-26.517 9.867h7.4c.34 0 .617.276.617.616v6.167c0 .34-.276.617-.617.617h-7.4a.617.617 0 01-.616-.617v-6.167c0-.34.276-.616.616-.616zm6.784 3.083V52.2H35.55v1.85h6.167zm-5.55 1.233h-.617v1.85h.617v-1.85zm1.85 0H37.4v1.85h.617v-1.85zm1.85 0h-.617v1.85h.617v-1.85zm1.233 1.85h.617v-1.85H41.1v1.85zm20.967 1.234h-7.4a.617.617 0 01-.617-.617v-6.167c0-.34.276-.616.617-.616h7.4c.34 0 .616.276.616.616v6.167c0 .34-.276.617-.616.617zM55.9 55.283h-.617v1.85h.617v-1.85zm1.85 0h-.617v1.85h.617v-1.85zm1.85 0h-.617v1.85h.617v-1.85zm1.233 1.85h.617v-1.85h-.617v1.85zm.617-3.083V52.2h-6.167v1.85h6.167zm-9.25-6.783h-7.4a.617.617 0 01-.617-.617v-6.167c0-.34.276-.616.617-.616h7.4c.34 0 .617.276.617.616v6.167c0 .34-.276.617-.617.617zm-6.167-3.084h-.616v1.85h.616v-1.85zm1.85 0h-.616v1.85h.616v-1.85zm1.85 0h-.616v1.85h.616v-1.85zm1.234 1.85h.616v-1.85h-.616v1.85zm.616-3.083V41.1h-6.166v1.85h6.166zm-16.65 4.317h7.4c.34 0 .617-.276.617-.617v-6.167a.617.617 0 00-.617-.616h-7.4a.617.617 0 00-.616.616v6.167c0 .34.276.617.616.617zm.617-3.084h.617v1.85h-.617v-1.85zm1.85 0h.617v1.85H37.4v-1.85zm1.85 0h.617v1.85h-.617v-1.85zm2.467 1.85H41.1v-1.85h.617v1.85zm0-4.933v1.85H35.55V41.1h6.167z" fill="#0EF5FF"/></g><defs><filter id="filter0_d" x="0" y="0" width="97" height="94.533" filterUnits="userSpaceOnUse" color-interpolation-filters="sRGB"><feFlood flood-opacity="0" result="BackgroundImageFix"/><feColorMatrix in="SourceAlpha" values="0 0 0 0 0 0 0 0 0 0 0 0 0 0 0 0 0 0 127 0"/><feOffset/><feGaussianBlur stdDeviation="15"/><feColorMatrix values="0 0 0 0 0.054902 0 0 0 0 0.960784 0 0 0 0 1 0 0 0 0.8 0"/><feBlend in2="BackgroundImageFix" result="effect1_dropShadow"/><feBlend in="SourceGraphic" in2="effect1_dropShadow" result="shape"/></filter></defs></svg>