<svg width="33" height="58" viewBox="0 0 33 58" fill="none" xmlns="http://www.w3.org/2000/svg"><path d="M4.533 0h23.571c2.5 0 4.533 2.033 4.533 4.533v45.33a4.537 4.537 0 01-4.533 4.532H4.533A4.538 4.538 0 010 49.862V4.532A4.538 4.538 0 014.533 0zm-2.72 49.862c0 1.5 1.22 2.72 2.72 2.72h23.571c1.5 0 2.72-1.22 2.72-2.72V4.532a2.723 2.723 0 00-2.72-2.719H4.533c-1.5 0-2.72 1.22-2.72 2.72v45.33z" fill="#0EF5FF"/><path d="M.907 48.954c.5 0 .906.405.906.907v3.607c0 1.5 1.22 2.72 2.72 2.72h23.571c1.5 0 2.72-1.22 2.72-2.72v-3.607a.906.906 0 111.813 0v3.606c0 2.5-2.033 4.533-4.533 4.533H4.533A4.538 4.538 0 010 53.468v-3.607c0-.502.405-.907.907-.907zm0-3.646H31.73a.906.906 0 110 1.813H.907a.906.906 0 110-1.813z" fill="#0EF5FF"/><path d="M16.335 47.12c1.5 0 2.72 1.221 2.72 2.72 0 1.5-1.22 2.72-2.72 2.72-1.5 0-2.72-1.22-2.72-2.72 0-1.499 1.22-2.72 2.72-2.72zm0 3.627a.907.907 0 100-1.814.907.907 0 000 1.814zm-.782-41.272a.909.909 0 011.252-.279l9.973 6.347a.907.907 0 11-.974 1.53l-9.972-6.346a.907.907 0 01-.279-1.252z" fill="#0EF5FF"/><path d="M5.86 15.543l9.972-6.346a.907.907 0 11.974 1.53l-9.973 6.346a.91.91 0 01-1.252-.278.907.907 0 01.278-1.252zm9.693-2.442a.908.908 0 011.252-.278l9.973 6.346a.907.907 0 11-.974 1.53l-9.972-6.346a.907.907 0 01-.279-1.252z" fill="#0EF5FF"/><path d="M5.86 19.169l9.972-6.346a.907.907 0 01.974 1.53L6.832 20.7a.91.91 0 01-1.252-.278.907.907 0 01.278-1.252zm20.431-3.768c.502 0 .907.405.907.907v3.626a.906.906 0 11-1.813 0v-3.626c0-.502.405-.907.906-.907z" fill="#0EF5FF"/><path d="M6.346 15.401c.501 0 .906.405.906.907v3.626a.906.906 0 11-1.813 0v-3.626c0-.502.406-.907.907-.907zm18.132 2.473c.501 0 .906.405.906.907v11.126a.906.906 0 11-1.813 0V18.78c0-.502.405-.907.907-.907z" fill="#0EF5FF"/><path d="M5.44 29h21.758a.906.906 0 110 1.813H5.44a.906.906 0 110-1.813z" fill="#0EF5FF"/><path d="M8.16 17.874c.5 0 .906.405.906.907v11.126a.906.906 0 11-1.813 0V18.78c0-.502.405-.907.906-.907zm6.346 3.873h3.626c.501 0 .907.406.907.907v7.253a.906.906 0 01-.907.906h-3.626a.906.906 0 01-.907-.906v-7.253c0-.501.405-.907.907-.907zM15.412 29h1.813v-5.44h-1.813V29zm1.813 4.533h9.973a.906.906 0 110 1.813h-9.973a.906.906 0 110-1.813zm4.533 2.72h5.44a.906.906 0 110 1.813h-5.44a.906.906 0 110-1.813zM5.44 33.533h7.252c.501 0 .907.405.907.907v2.72a.906.906 0 01-.907.906H5.439a.906.906 0 01-.906-.907v-2.72c0-.5.405-.906.906-.906zm.906 2.72h5.44v-.907h-5.44v.907z" fill="#0EF5FF"/></svg>