<svg width="49" height="50" viewBox="0 0 49 50" fill="none" xmlns="http://www.w3.org/2000/svg"><path fill-rule="evenodd" clip-rule="evenodd" d="M47.712 7.95L41.305.483a1.524 1.524 0 00-2.103-.117l-5.105 4.409a1.488 1.488 0 00-.515 1.025c-.03.399.099.786.36 1.088l.2.232-.33.284c-.873.755-2.189.981-3.517.604l-.18-.051h-.002L26.459 6.92c-.689-.16-2.472-.413-4.175.686l-.181.104-.004.002-9.625 5.51c-.89.581-2.131 2.031-1.13 3.787l.011.02c.429.7 1.047 1.116 1.768 1.231a2.65 2.65 0 004.648 1.626l3.616-4.178c.146-.17.27-.355.368-.554l.15-.062c.194.731.727 1.459 1.816 1.768.753.213 1.407.401 1.98.566 2.88.83 3.712 1.07 4.772.953 3.541-.38 4.353-.496 6.136-1.522a28.133 28.133 0 003.721-2.57l.218.251a1.498 1.498 0 002.113.155l4.86-4.196c.753-.65.838-1.793.191-2.548zM16.663 18.928c-.733.847-2.115.286-2.075-.812l4.328-1.79-2.253 2.602zm19.216-3.34c-1.518.873-2.029.956-5.547 1.333-.792.085-1.444-.102-4.149-.88-.585-.168-1.265-.364-2.062-.59-.576-.163-.726-.47-.789-.688a1.376 1.376 0 01-.031-.58v-.005l.002-.006c0-.006.003-.012.004-.018 0-.002.046-.198.172-.368.11-.148.274-.291.667-.237 1.25.172 4.06.548 4.621.623l.099.014a.732.732 0 10.194-1.453c-.033-.004-3.33-.445-4.714-.635-1.295-.179-2.058.621-2.359 1.377l-1.068.44c-2.445 1.008-4.021 1.66-5.043 2.083-1.81.75-1.874.776-1.941.783h-.008a.77.77 0 00-.166.037c-1.178.165-1.985-1.368-.503-2.356l9.77-5.593.003-.001a.775.775 0 00.035-.022c1.223-.796 2.525-.62 3.045-.501l3.784 1.073c1.804.511 3.627.173 4.875-.905l.33-.284 4.273 4.95a26.665 26.665 0 01-3.494 2.409zm10.685-6.2l-.034.03c-.436.377-4.83 4.178-4.85 4.175-.028-.002-6.67-7.671-6.626-7.709l5.105-4.408a.053.053 0 01.063-.005L46.6 8.904a.345.345 0 01-.036.485zM35.166 31.774c-.089-2.363-3.07-3.45-4.648-1.626l-3.616 4.178c-.147.17-.27.355-.368.554l-.15.062c-.194-.731-.727-1.46-1.816-1.768-.766-.217-1.425-.406-1.998-.57l-.001-.001c-3.021-.868-3.64-1.046-4.739-.95l-.014.002c-3.541.38-4.353.496-6.137 1.522a28.11 28.11 0 00-3.72 2.57l-.218-.251a1.5 1.5 0 00-2.114-.155L.503 39.765a1.45 1.45 0 00-.142 2.054l6.753 7.697c.506.576 1.385.648 1.96.162l.013-.011 5.105-4.408a1.498 1.498 0 00.155-2.114l-.2-.231.33-.285c.873-.755 2.189-.98 3.517-.603l3.397.963a.733.733 0 00.4-1.41l-3.397-.963c-1.804-.511-3.627-.173-4.875.904l-.33.285-4.273-4.95a26.653 26.653 0 013.494-2.409c1.519-.874 2.029-.956 5.555-1.334.823-.072 1.338.076 4.152.884l.013.004c.375.108.7.197.98.274 1.357.375 1.694.468 1.847.997.083.286.035.56.031.579v.001a1.087 1.087 0 01-.178.397c-.11.147-.275.29-.667.237-1.25-.172-4.054-.548-4.62-.623l-.1-.014a.732.732 0 10-.194 1.452c.033.005 3.33.446 4.714.636 1.144.158 1.993-.458 2.358-1.377.037-.015 7.377-3.04 7.412-3.057.774-.393 1.505-.483 1.965.257.53.947-.41 1.655-.647 1.813l-9.77 5.593-.014.008a3.726 3.726 0 01-.537.294.733.733 0 00.598 1.337 5.19 5.19 0 00.697-.378l.01-.005c.344-.197 9.772-5.593 9.8-5.611 2.657-1.73 1.379-4.713-.65-5.038zm-21.928 12.33c.003.003.01.01.008.024-.001.02-4.447 3.853-5.006 4.335l-.057.05-6.711-7.648 5.113-4.415a.031.031 0 01.024-.008.03.03 0 01.023.011l6.606 7.65zm16.135-10.395l2.253-2.603c.723-.836 2.116-.3 2.075.813l-4.328 1.79zm-5.047-10.392c-.478.011-.883-.313-1.02-.554-1-1.76-3.668-1.019-3.666.969.003 2.636 2.373 4.74 4.66 5.87 1.623-.817 3.377-2.195 4.17-3.832a.732.732 0 111.318.638c-.972 2.01-3.073 3.673-5.05 4.61-.268.128-.59.135-.873.001-2.748-1.297-5.687-3.892-5.69-7.285-.003-3.228 4.117-4.687 6.122-2.119 1.653-2.105 4.843-1.574 5.843.768a.733.733 0 01-1.347.575c-.59-1.38-2.563-1.722-3.507-.206-.198.32-.564.555-.96.565z" fill="#0090A1"/></svg>