<svg width="102" height="102" viewBox="0 0 102 102" fill="none" xmlns="http://www.w3.org/2000/svg"><g filter="url(#filter0_d)"><path fill-rule="evenodd" clip-rule="evenodd" d="M71.385 50.385h-9.906v-1.4h2.672a.615.615 0 000-1.23H61.48v-1.4h1.855a2.57 2.57 0 001.83-.758l4.047-4.047c.263.132.555.202.859.202.515 0 1-.201 1.365-.566.364-.364.565-.85.565-1.365s-.2-1-.565-1.365a1.917 1.917 0 00-1.365-.565c-.516 0-1 .2-1.365.565-.365.365-.566.85-.566 1.365 0 .303.07.596.202.86l-4.047 4.046a1.349 1.349 0 01-.96.397H61.48v-1.357a3.25 3.25 0 00-3.246-3.246h-1.357v-5.446a1.933 1.933 0 001.315-1.83c0-1.064-.866-1.93-1.93-1.93a1.932 1.932 0 00-.616 3.76v5.446h-1.4V37.85a.615.615 0 00-1.23 0v2.672h-1.4v-9.906a.615.615 0 00-1.23 0v9.906h-1.4V37.85a.615.615 0 00-1.23 0v2.672h-1.4v-1.855c0-.692-.27-1.341-.758-1.83l-4.048-4.048a1.933 1.933 0 00-.363-2.223 1.933 1.933 0 00-2.73 0 1.933 1.933 0 000 2.73 1.924 1.924 0 002.223.363l4.048 4.048c.256.256.397.597.397.96v1.855h-1.357a3.29 3.29 0 00-.811.102.615.615 0 10.306 1.192c.164-.042.334-.063.505-.063h14.466c1.111 0 2.015.904 2.015 2.015v14.466c0 .171-.021.34-.063.504a.615.615 0 101.192.306c.067-.263.102-.536.102-.81v-1.357h5.446c.258.763.98 1.315 1.83 1.315 1.064 0 1.93-.866 1.93-1.93a1.932 1.932 0 00-3.76-.616H61.48v-1.4h2.672a.615.615 0 000-1.23H61.48v-1.4h9.906a.615.615 0 000-1.23zm-1.81-11.059a.695.695 0 01.495-.205c.187 0 .362.073.495.205a.695.695 0 01.204.495.695.695 0 01-.205.495.695.695 0 01-.494.205.695.695 0 01-.495-.205.695.695 0 01-.205-.495c0-.187.072-.362.205-.495zm-29.259-6.9a.7.7 0 11-.99-.993.7.7 0 01.99.992zm15.945 1.52a.7.7 0 11.001-1.402.7.7 0 01-.001 1.401zM68.754 55.56a.7.7 0 11-.001 1.401.7.7 0 01.001-1.401zm-5.21 13.144c-.6-.6-1.501-.72-2.223-.363l-4.048-4.048a1.349 1.349 0 01-.397-.96V61.48h1.357c.275 0 .548-.035.811-.102a.615.615 0 10-.306-1.192 2.024 2.024 0 01-.505.063H43.767a2.017 2.017 0 01-2.015-2.015V43.767c0-.171.021-.34.063-.504a.615.615 0 10-1.191-.307 3.253 3.253 0 00-.103.81v1.358h-5.446a1.933 1.933 0 00-1.83-1.315c-1.064 0-1.93.866-1.93 1.93a1.932 1.932 0 003.76.616h5.446v1.4H37.85a.615.615 0 000 1.23h2.672v1.4h-9.906a.615.615 0 000 1.23h9.906v1.4H37.85a.615.615 0 000 1.23h2.672v1.4h-1.855a2.57 2.57 0 00-1.83.758L32.79 60.45a1.922 1.922 0 00-.859-.202c-.515 0-1 .201-1.365.566-.364.364-.565.85-.565 1.365s.2 1 .565 1.365c.365.364.85.565 1.365.565.516 0 1-.2 1.365-.565a1.931 1.931 0 00.365-2.225l4.046-4.046a1.35 1.35 0 01.96-.397h1.855v1.357a3.25 3.25 0 003.246 3.246h1.357v5.446a1.933 1.933 0 00-1.315 1.83c0 1.064.866 1.93 1.93 1.93a1.932 1.932 0 00.616-3.76V61.48h1.4v2.672a.615.615 0 001.23 0V61.48h1.4v9.906a.615.615 0 001.23 0V61.48h1.4v2.672a.615.615 0 001.23 0V61.48h1.4v1.855c0 .692.27 1.341.758 1.83l4.048 4.048a1.933 1.933 0 00.363 2.223c.376.376.87.564 1.365.564.494 0 .988-.188 1.365-.564a1.933 1.933 0 000-2.73zM33.246 46.439a.7.7 0 11.001-1.401.7.7 0 01-.002 1.401zm-.82 16.235a.695.695 0 01-.496.205.695.695 0 01-.494-.205.695.695 0 01-.206-.495c0-.187.073-.363.206-.495a.695.695 0 01.494-.205.696.696 0 01.7.7.695.695 0 01-.205.495zm14.013 6.08a.7.7 0 11-1.401-.001.7.7 0 011.401.001zm16.235 1.81a.7.7 0 11-.99-.991.7.7 0 01.99.992zm-7.42-24c1.317.362 2.28 1.476 2.28 2.792 0 .738-.315 1.441-.856 1.973.54.532.855 1.235.855 1.973 0 1.002-.572 1.93-1.485 2.46-.09 1.354-1.324 2.429-2.829 2.429-.898 0-1.7-.384-2.219-.98-.52.596-1.321.98-2.22.98-1.562 0-2.834-1.161-2.834-2.588v-.002c-.92-.605-1.48-1.582-1.48-2.628 0-.688.238-1.334.649-1.866a2.702 2.702 0 01-.648-1.75c0-1.317.962-2.431 2.28-2.793a2.1 2.1 0 01-.06-.496c0-1.245 1.105-2.259 2.464-2.259a2.56 2.56 0 011.85.768 2.559 2.559 0 011.849-.768c1.358 0 2.464 1.014 2.464 2.26 0 .168-.022.334-.06.495zm1.049 6.738c0-.582-.354-1.116-.947-1.43a.615.615 0 010-1.087c.593-.313.947-.847.947-1.429 0-.925-.878-1.679-1.959-1.686h-.007a.095.095 0 01-.02 0h-.007a2.22 2.22 0 00-.85.172.615.615 0 01-.479-1.133c.322-.136.66-.22 1.01-.254a.865.865 0 00.092-.387c0-.567-.553-1.029-1.234-1.029-.68 0-1.234.462-1.234 1.03a.615.615 0 01-1.23 0c0-.568-.554-1.03-1.235-1.03-.68 0-1.234.462-1.234 1.03a.92.92 0 00.225.59h.001a.62.62 0 01.03.04l.004.005a.108.108 0 01.004.005l.014.023a.615.615 0 01-.531.938h-.007c-1.082.007-1.959.76-1.96 1.686 0 .335.118.656.337.93a3.748 3.748 0 011.128-.46.615.615 0 01.276 1.2c-1.025.234-1.74 1.035-1.74 1.947 0 .505.227.989.615 1.356.106-.17.233-.33.38-.477a.615.615 0 11.867.873 1.24 1.24 0 00-.383.878c0 .749.72 1.358 1.605 1.358.884 0 1.604-.61 1.604-1.358v-1.315c0-.565-.422-1.076-1.05-1.274a.615.615 0 01.37-1.173c.245.077.473.184.68.314V48.74a.615.615 0 011.23 0v.786a3.008 3.008 0 011.604-.456.615.615 0 010 1.23c-.884 0-1.604.61-1.604 1.358v3.945c0 .749.72 1.358 1.604 1.358.885 0 1.604-.61 1.604-1.358 0-.565-.421-1.076-1.048-1.273a.615.615 0 11.368-1.174 2.762 2.762 0 011.618 1.302c.34-.31.542-.723.542-1.156z" fill="#0EF5FF"/></g><defs><filter id="filter0_d" x="0" y="0" width="102" height="102" filterUnits="userSpaceOnUse" color-interpolation-filters="sRGB"><feFlood flood-opacity="0" result="BackgroundImageFix"/><feColorMatrix in="SourceAlpha" values="0 0 0 0 0 0 0 0 0 0 0 0 0 0 0 0 0 0 127 0"/><feOffset/><feGaussianBlur stdDeviation="15"/><feColorMatrix values="0 0 0 0 0.054902 0 0 0 0 0.960784 0 0 0 0 1 0 0 0 0.8 0"/><feBlend in2="BackgroundImageFix" result="effect1_dropShadow"/><feBlend in="SourceGraphic" in2="effect1_dropShadow" result="shape"/></filter></defs></svg>