<svg width="50" height="50" viewBox="0 0 50 50" fill="none" xmlns="http://www.w3.org/2000/svg"><path fill-rule="evenodd" clip-rule="evenodd" d="M40 20.172l9.5 4.103c.304.133.5.433.5.765v12.05a8.487 8.487 0 01-3.575 6.896l-8.063 5.739a1.49 1.49 0 01-1.724 0l-.684-.486a2.494 2.494 0 01-1.787.761H2.5A2.5 2.5 0 010 47.5V5.833a2.5 2.5 0 012.5-2.5h.833V2.5a2.5 2.5 0 012.5-2.5H37.5A2.5 2.5 0 0140 2.5v17.672zM5.833 1.668A.833.833 0 005 2.5v.833h20.833a.1.1 0 01.024.004.834.834 0 01.24.044c.009.003.021.005.032.007.01.002.02.003.024.005a.07.07 0 01.014.009l.015.009c.09.04.173.097.244.167l10 10a.8.8 0 01.166.244l.001.001.006.008c.003.004.007.008.011.019.004.01.006.021.007.032a.165.165 0 00.006.026.783.783 0 01.04.212l.001.004.004.013c.003.01.005.02.005.03v5.286l.5-.218a.84.84 0 01.66 0l.5.218V2.5a.833.833 0 00-.833-.833H5.833zm27.989 11.666l-7.155-7.155V12.5c0 .46.373.833.833.833h6.322zm-31.322 35h31.667a.813.813 0 00.373-.101L30 45H5a.833.833 0 110-1.667h22.768a8.528 8.528 0 01-1.4-1.666H20A.833.833 0 0120 40h5.526a8.35 8.35 0 01-.422-1.667H5a.833.833 0 110-1.666h20V35h-5a.833.833 0 010-1.667h5v-1.666H5A.833.833 0 015 30h20v-1.667h-5a.833.833 0 010-1.666h5V25.04c0-.007.002-.014.003-.02.001-.007.003-.013.003-.02H5a.833.833 0 110-1.667h22.683l3.858-1.666H20A.833.833 0 0120 20h11.667c.46 0 .833.373.833.833a.814.814 0 01-.182.5L35 20.173V15h-7.5a2.5 2.5 0 01-2.5-2.5V5H2.5a.833.833 0 00-.833.833V47.5c0 .46.373.833.833.833zm42.96-5.706a6.818 6.818 0 002.873-5.536V25.587L37.5 20.907l-9.31 4.026-.015.006-1.508.652v11.5a6.818 6.818 0 002.874 5.536l7.959 5.666 7.96-5.666zM10 9.167H5A.833.833 0 015 7.5h5a.833.833 0 010 1.667zm11.667 0h-7.5a.833.833 0 110-1.667h7.5a.833.833 0 010 1.667zM5 18.333h26.667a.833.833 0 000-1.666H5a.833.833 0 100 1.666zm12.5 2.5c0 .46-.373.834-.833.834H5A.833.833 0 015 20h11.667c.46 0 .833.373.833.833zm-.833 7.5a.833.833 0 000-1.666H5a.833.833 0 000 1.666h11.667zm.833 5.834c0 .46-.373.833-.833.833H5a.833.833 0 010-1.667h11.667c.46 0 .833.373.833.834zm-.833 7.5a.833.833 0 000-1.667H5a.833.833 0 000 1.667h11.667zm20.5-18.801l-8.334 3.6a.833.833 0 00-.5.765v9.86a5.149 5.149 0 002.174 4.178l6.51 4.634a.832.832 0 00.966 0l6.51-4.634a5.15 5.15 0 002.174-4.178v-9.86a.833.833 0 00-.5-.765l-8.334-3.6a.834.834 0 00-.666 0zM45 27.782v9.309a3.482 3.482 0 01-1.474 2.826L37.5 44.202l-6.026-4.29A3.48 3.48 0 0130 37.09v-9.313l7.5-3.239 7.5 3.243zm-12.827 7.285a.833.833 0 01.827.1l2.688 2.015 6.161-7.703a.833.833 0 111.302 1.042l-6.667 8.333a.833.833 0 01-1.15.146L32 36.5a.833.833 0 01.173-1.433z" fill="#0090A1"/></svg>