<svg width="56" height="52" viewBox="0 0 56 52" fill="none" xmlns="http://www.w3.org/2000/svg"><mask id="a" maskUnits="userSpaceOnUse" x="0" y="0" width="56" height="52" fill="#000"><path fill="#fff" d="M0 0h56v52H0z"/><path d="M53.12 26.552h-1.89a22.827 22.827 0 00-2.089-8.254.796.796 0 10-1.444.671 21.243 21.243 0 011.936 7.583h-36.48a.796.796 0 100 1.593H53.12a.73.73 0 01.73.73v.972a.73.73 0 01-.73.73H3.323a.731.731 0 01-.73-.73v-.972a.73.73 0 01.73-.73h6.118a.796.796 0 100-1.593H6.81a21.333 21.333 0 016.444-13.934A21.331 21.331 0 0126.79 6.584h.008c.217-.014.431-.025.643-.033.043 0 .085-.003.127-.004l.225-.006a21.745 21.745 0 011 .004l.168.005a21.887 21.887 0 01.67.033 21.477 21.477 0 0116.296 9.282.796.796 0 001.313-.902 23.071 23.071 0 00-15.753-9.785 3.88 3.88 0 00.62-2.102c0-.433-.193-1.231-1.487-1.707C29.974 1.13 29.122 1 28.221 1c-.9 0-1.753.131-2.399.369-1.293.476-1.486 1.274-1.486 1.707 0 .758.223 1.482.617 2.097a22.911 22.911 0 00-12.811 6.303 22.917 22.917 0 00-6.929 15.076h-1.89A2.326 2.326 0 001 28.875v.972a2.326 2.326 0 002.323 2.324h8.58a9.875 9.875 0 00-1.223.987l-.016.015a.705.705 0 00-.07.074l-3.78 4.591a2.182 2.182 0 00-1.59-.304 2.178 2.178 0 00-1.407.926L2.33 40.653a2.203 2.203 0 00.584 3.054l10.175 6.912a2.185 2.185 0 001.65.341 2.184 2.184 0 001.407-.926l1.487-2.193a2.203 2.203 0 00-.584-3.054l-.058-.04a5.148 5.148 0 012.68-1.617c2.163-.501 4.71-.178 6.438.108 2.137.354 4.382.233 6.491-.35l2.933-.81a15.099 15.099 0 005.379-2.733l5.034-4.459c.858-.656 1.045-1.794.75-2.715h6.423a2.326 2.326 0 002.323-2.323v-.973a2.326 2.326 0 00-2.323-2.323zm-24.9-23.96c1.341 0 2.145.333 2.292.517a2.293 2.293 0 01-1.015 1.87 30.42 30.42 0 00-.465-.02l-.156-.006a22.003 22.003 0 00-1.348.002c-.09.003-.182.005-.273.01-.104.004-.209.008-.313.014a2.292 2.292 0 01-1.014-1.87c.147-.184.95-.516 2.292-.516zm5.711 29.963a2.637 2.637 0 00-.21-.384h7.639l-3.303 2.186-4.708 1.362-.16.004a2.71 2.71 0 00.742-3.168zm-8.636-.384l-1.15.24-.888-.24h2.038zm-8.981 14.776l-1.487 2.193a.603.603 0 01-.843.162L3.81 42.389a.607.607 0 01-.162-.842l1.487-2.193a.601.601 0 01.504-.267.6.6 0 01.34.105l.55.373 9.625 6.54a.608.608 0 01.16.842zM44.969 33.63a.702.702 0 00-.055.044l-5.04 4.465a13.515 13.515 0 01-4.765 2.404l-2.933.81a13.59 13.59 0 01-5.806.314c-1.862-.308-4.618-.653-7.06-.088a6.765 6.765 0 00-3.643 2.27l-7.528-5.114 3.654-4.437c1.382-1.304 3.134-2.079 4.812-2.126h.032c.521-.009 1.072.144 1.654.308l.351.096 5.274 1.423c.12.032.247.036.37.01l6.907-1.44c.313-.064.642 0 .902.176.168.114.3.27.38.453a1.114 1.114 0 01-.516 1.44l-2.356 1.248a.796.796 0 00.39 1.5l3.495-.076a.805.805 0 00.204-.03l4.925-1.426a.798.798 0 00.219-.1l4.968-3.29c.417-.257.972-.469 1.267-.033.23.339.236.95-.102 1.199z"/></mask><path d="M53.12 26.552h-1.89a22.827 22.827 0 00-2.089-8.254.796.796 0 10-1.444.671 21.243 21.243 0 011.936 7.583h-36.48a.796.796 0 100 1.593H53.12a.73.73 0 01.73.73v.972a.73.73 0 01-.73.73H3.323a.731.731 0 01-.73-.73v-.972a.73.73 0 01.73-.73h6.118a.796.796 0 100-1.593H6.81a21.333 21.333 0 016.444-13.934A21.331 21.331 0 0126.79 6.584h.008c.217-.014.431-.025.643-.033.043 0 .085-.003.127-.004l.225-.006a21.745 21.745 0 011 .004l.168.005a21.887 21.887 0 01.67.033 21.477 21.477 0 0116.296 9.282.796.796 0 001.313-.902 23.071 23.071 0 00-15.753-9.785 3.88 3.88 0 00.62-2.102c0-.433-.193-1.231-1.487-1.707C29.974 1.13 29.122 1 28.221 1c-.9 0-1.753.131-2.399.369-1.293.476-1.486 1.274-1.486 1.707 0 .758.223 1.482.617 2.097a22.911 22.911 0 00-12.811 6.303 22.917 22.917 0 00-6.929 15.076h-1.89A2.326 2.326 0 001 28.875v.972a2.326 2.326 0 002.323 2.324h8.58a9.875 9.875 0 00-1.223.987l-.016.015a.705.705 0 00-.07.074l-3.78 4.591a2.182 2.182 0 00-1.59-.304 2.178 2.178 0 00-1.407.926L2.33 40.653a2.203 2.203 0 00.584 3.054l10.175 6.912a2.185 2.185 0 001.65.341 2.184 2.184 0 001.407-.926l1.487-2.193a2.203 2.203 0 00-.584-3.054l-.058-.04a5.148 5.148 0 012.68-1.617c2.163-.501 4.71-.178 6.438.108 2.137.354 4.382.233 6.491-.35l2.933-.81a15.099 15.099 0 005.379-2.733l5.034-4.459c.858-.656 1.045-1.794.75-2.715h6.423a2.326 2.326 0 002.323-2.323v-.973a2.326 2.326 0 00-2.323-2.323zm-24.9-23.96c1.341 0 2.145.333 2.292.517a2.293 2.293 0 01-1.015 1.87 30.42 30.42 0 00-.465-.02l-.156-.006a22.003 22.003 0 00-1.348.002c-.09.003-.182.005-.273.01-.104.004-.209.008-.313.014a2.292 2.292 0 01-1.014-1.87c.147-.184.95-.516 2.292-.516zm5.711 29.963a2.637 2.637 0 00-.21-.384h7.639l-3.303 2.186-4.708 1.362-.16.004a2.71 2.71 0 00.742-3.168zm-8.636-.384l-1.15.24-.888-.24h2.038zm-8.981 14.776l-1.487 2.193a.603.603 0 01-.843.162L3.81 42.389a.607.607 0 01-.162-.842l1.487-2.193a.601.601 0 01.504-.267.6.6 0 01.34.105l.55.373 9.625 6.54a.608.608 0 01.16.842zM44.969 33.63a.702.702 0 00-.055.044l-5.04 4.465a13.515 13.515 0 01-4.765 2.404l-2.933.81a13.59 13.59 0 01-5.806.314c-1.862-.308-4.618-.653-7.06-.088a6.765 6.765 0 00-3.643 2.27l-7.528-5.114 3.654-4.437c1.382-1.304 3.134-2.079 4.812-2.126h.032c.521-.009 1.072.144 1.654.308l.351.096 5.274 1.423c.12.032.247.036.37.01l6.907-1.44c.313-.064.642 0 .902.176.168.114.3.27.38.453a1.114 1.114 0 01-.516 1.44l-2.356 1.248a.796.796 0 00.39 1.5l3.495-.076a.805.805 0 00.204-.03l4.925-1.426a.798.798 0 00.219-.1l4.968-3.29c.417-.257.972-.469 1.267-.033.23.339.236.95-.102 1.199z" fill="#0090A1"/><path d="M53.12 26.552h-1.89a22.827 22.827 0 00-2.089-8.254.796.796 0 10-1.444.671 21.243 21.243 0 011.936 7.583h-36.48a.796.796 0 100 1.593H53.12a.73.73 0 01.73.73v.972a.73.73 0 01-.73.73H3.323a.731.731 0 01-.73-.73v-.972a.73.73 0 01.73-.73h6.118a.796.796 0 100-1.593H6.81a21.333 21.333 0 016.444-13.934A21.331 21.331 0 0126.79 6.584h.008c.217-.014.431-.025.643-.033.043 0 .085-.003.127-.004l.225-.006a21.745 21.745 0 011 .004l.168.005a21.887 21.887 0 01.67.033 21.477 21.477 0 0116.296 9.282.796.796 0 001.313-.902 23.071 23.071 0 00-15.753-9.785 3.88 3.88 0 00.62-2.102c0-.433-.193-1.231-1.487-1.707C29.974 1.13 29.122 1 28.221 1c-.9 0-1.753.131-2.399.369-1.293.476-1.486 1.274-1.486 1.707 0 .758.223 1.482.617 2.097a22.911 22.911 0 00-12.811 6.303 22.917 22.917 0 00-6.929 15.076h-1.89A2.326 2.326 0 001 28.875v.972a2.326 2.326 0 002.323 2.324h8.58a9.875 9.875 0 00-1.223.987l-.016.015a.705.705 0 00-.07.074l-3.78 4.591a2.182 2.182 0 00-1.59-.304 2.178 2.178 0 00-1.407.926L2.33 40.653a2.203 2.203 0 00.584 3.054l10.175 6.912a2.185 2.185 0 001.65.341 2.184 2.184 0 001.407-.926l1.487-2.193a2.203 2.203 0 00-.584-3.054l-.058-.04a5.148 5.148 0 012.68-1.617c2.163-.501 4.71-.178 6.438.108 2.137.354 4.382.233 6.491-.35l2.933-.81a15.099 15.099 0 005.379-2.733l5.034-4.459c.858-.656 1.045-1.794.75-2.715h6.423a2.326 2.326 0 002.323-2.323v-.973a2.326 2.326 0 00-2.323-2.323zm-24.9-23.96c1.341 0 2.145.333 2.292.517a2.293 2.293 0 01-1.015 1.87 30.42 30.42 0 00-.465-.02l-.156-.006a22.003 22.003 0 00-1.348.002c-.09.003-.182.005-.273.01-.104.004-.209.008-.313.014a2.292 2.292 0 01-1.014-1.87c.147-.184.95-.516 2.292-.516zm5.711 29.963a2.637 2.637 0 00-.21-.384h7.639l-3.303 2.186-4.708 1.362-.16.004a2.71 2.71 0 00.742-3.168zm-8.636-.384l-1.15.24-.888-.24h2.038zm-8.981 14.776l-1.487 2.193a.603.603 0 01-.843.162L3.81 42.389a.607.607 0 01-.162-.842l1.487-2.193a.601.601 0 01.504-.267.6.6 0 01.34.105l.55.373s0 0 0 0l9.625 6.54a.608.608 0 01.16.842zM44.969 33.63a.702.702 0 00-.055.044l-5.04 4.465a13.515 13.515 0 01-4.765 2.404l-2.933.81a13.59 13.59 0 01-5.806.314c-1.862-.308-4.618-.653-7.06-.088a6.765 6.765 0 00-3.643 2.27l-7.528-5.114 3.654-4.437c1.382-1.304 3.134-2.079 4.812-2.126h.032c.521-.009 1.072.144 1.654.308l.351.096 5.274 1.423c.12.032.247.036.37.01l6.907-1.44c.313-.064.642 0 .902.176.168.114.3.27.38.453a1.114 1.114 0 01-.516 1.44l-2.356 1.248a.796.796 0 00.39 1.5l3.495-.076a.805.805 0 00.204-.03l4.925-1.426a.798.798 0 00.219-.1l4.968-3.29c.417-.257.972-.469 1.267-.033.23.339.236.95-.102 1.199z" stroke="#0090A1" stroke-width=".6" mask="url(#a)"/></svg>