<svg width="50" height="50" viewBox="0 0 50 50" fill="none" xmlns="http://www.w3.org/2000/svg"><path fill-rule="evenodd" clip-rule="evenodd" d="M49.022 0a.977.977 0 01.977.977v48.046c0 .54-.438.977-.977.977h-29.48a4.92 4.92 0 01-3.233-1.212l-1.161-1.013A2.934 2.934 0 0112.304 50H2.93A2.933 2.933 0 010 47.07V31.153a2.933 2.933 0 012.93-2.93h9.374a2.93 2.93 0 012.419 1.279l4.15-4.15-4.798-17.905a.976.976 0 01.69-1.196l9.258-2.48V.978c0-.54.437-.977.976-.977L49.022 0zM12.304 48.047a.978.978 0 00.977-.977V31.153a.978.978 0 00-.977-.977h-3.71v11.25a.977.977 0 01-1.954 0v-11.25H2.93a.978.978 0 00-.977.977V47.07c0 .539.438.977.976.977h9.375zM24.023 5.792l-7.808 2.093L20.8 25.002a.981.981 0 01.164.343l1.01 3.951h1.96l-3.807-14.095a.976.976 0 01.69-1.198 2.632 2.632 0 001.86-3.22.976.976 0 01.69-1.197l.655-.175V5.792zm0 16.338v-8.24a4.574 4.574 0 01-1.782 1.645l1.782 6.595zm-4.48 25.917h18.51a1.37 1.37 0 001.367-1.367 1.37 1.37 0 00-1.368-1.367h-7.474a.977.977 0 010-1.953h10.805c.754 0 1.367-.614 1.367-1.367a1.37 1.37 0 00-1.367-1.368H30.578a.977.977 0 010-1.953h12.895a1.368 1.368 0 000-2.734H30.578a.977.977 0 010-1.953h9.838c.754 0 1.367-.614 1.367-1.367a1.37 1.37 0 00-1.367-1.368h-19.2a.976.976 0 01-.945-.735l-.774-3.026-4.263 4.264v13.506l2.358 2.057c.54.471 1.234.73 1.95.73zm28.502 0V1.953l-22.07.001v27.343h1.908V9.857c0-.54.438-.977.977-.977 1.45 0 2.63-1.18 2.63-2.629 0-.54.436-.977.976-.977h9.09c.538 0 .976.438.976.977 0 1.45 1.179 2.63 2.629 2.63.54 0 .977.437.977.976v3.908a.977.977 0 01-1.954 0v-3.036a4.597 4.597 0 01-3.5-3.501h-7.347a4.597 4.597 0 01-3.5 3.5v18.57h5.337A4.68 4.68 0 0132.337 25a4.679 4.679 0 014.673-4.674A4.679 4.679 0 0141.684 25a4.68 4.68 0 01-2.838 4.297h1.57c1.83 0 3.32 1.49 3.32 3.32a3.3 3.3 0 01-.295 1.368h.032c.244 0 .482.027.712.077V22.95a.977.977 0 011.953 0v12.377c.411.553.655 1.237.655 1.978a3.326 3.326 0 01-2.442 3.201 3.3 3.3 0 01.352 1.486 3.323 3.323 0 01-3.32 3.32h-.306a3.3 3.3 0 010 2.735h6.968zM34.29 25c0 1.5 1.22 2.72 2.72 2.72 1.5 0 2.721-1.22 2.721-2.72 0-1.5-1.22-2.72-2.72-2.72-1.5 0-2.72 1.22-2.72 2.72zm11.561-7.135a.982.982 0 00-.69-.286.984.984 0 00-.69.286.985.985 0 00-.287.69c0 .257.105.51.286.69a.984.984 0 00.69.287.982.982 0 00.978-.977.981.981 0 00-.287-.69zM8.307 44.427a.983.983 0 00-.69-.286.983.983 0 00-.69.286.984.984 0 00-.287.69c0 .257.105.509.286.69a.984.984 0 00.69.287.983.983 0 00.691-.287.984.984 0 00.286-.69.984.984 0 00-.286-.69z" fill="#0090A1"/></svg>