<svg width="86" height="106" viewBox="0 0 86 106" fill="none" xmlns="http://www.w3.org/2000/svg"><g filter="url(#filter0_d)" fill="#0EF5FF"><path d="M54.897 52.207a.793.793 0 00-.793.793v4.758c0 6.123-4.981 11.104-11.104 11.104-6.123 0-11.103-4.98-11.103-11.103v-4.76a.793.793 0 10-1.586 0v4.76c0 6.729 5.269 12.236 11.896 12.649v4.006h-3.965a.793.793 0 100 1.586h9.517a.793.793 0 100-1.586h-3.966v-4.006c6.627-.413 11.897-5.92 11.897-12.65V53a.793.793 0 00-.793-.793z"/><path d="M43 66.483c4.81 0 8.724-3.914 8.724-8.724V38.724C51.724 33.914 47.81 30 43 30c-4.81 0-8.724 3.914-8.724 8.724V57.76c0 4.81 3.914 8.724 8.724 8.724zm-7.138-27.759c0-3.936 3.203-7.138 7.138-7.138s7.138 3.202 7.138 7.138V57.76c0 3.936-3.203 7.138-7.138 7.138s-7.138-3.202-7.138-7.138V38.724z"/></g><defs><filter id="filter0_d" x="-10" y="0" width="106" height="106" filterUnits="userSpaceOnUse" color-interpolation-filters="sRGB"><feFlood flood-opacity="0" result="BackgroundImageFix"/><feColorMatrix in="SourceAlpha" values="0 0 0 0 0 0 0 0 0 0 0 0 0 0 0 0 0 0 127 0"/><feOffset/><feGaussianBlur stdDeviation="15"/><feColorMatrix values="0 0 0 0 0.054902 0 0 0 0 0.960784 0 0 0 0 1 0 0 0 0.8 0"/><feBlend in2="BackgroundImageFix" result="effect1_dropShadow"/><feBlend in="SourceGraphic" in2="effect1_dropShadow" result="shape"/></filter></defs></svg>