<svg width="112" height="109" viewBox="0 0 112 109" fill="none" xmlns="http://www.w3.org/2000/svg"><g filter="url(#filter0_d)"><mask id="a" fill="#fff"><path d="M53.331 53.548h20.93c.515 0 .858-.347.858-.866 0-.52-.343-.866-.858-.866h-20.93c-.4 0-.698.21-.81.55-.066.202-.02.422.063.618.148.347.34.564.747.564z"/></mask><path d="M52.584 52.984l-1.84.782 1.84-.782zm.747 2.564h20.93v-4h-20.93v4zm20.93 0c.718 0 1.468-.251 2.043-.83a2.867 2.867 0 00.815-2.036h-4c0-.19.07-.505.343-.78.275-.277.596-.354.8-.354v4zm2.858-2.866c0-.709-.242-1.457-.815-2.035a2.85 2.85 0 00-2.043-.83v4c-.203 0-.524-.078-.799-.355a1.138 1.138 0 01-.343-.78h4zm-2.858-2.866h-20.93v4h20.93v-4zm-20.93 0c-1.181 0-2.302.688-2.709 1.924l3.8 1.25a1.23 1.23 0 01-.472.623 1.11 1.11 0 01-.619.203v-4zm-2.588 3.95c.125.293.364.774.84 1.169a2.697 2.697 0 001.748.613v-4c.076 0 .205.01.362.062.163.054.315.14.445.248.241.2.31.398.287.344l-3.681 1.564zm-.121-2.026c-.287.87-.044 1.637.121 2.026l3.682-1.564c.009.02.04.096.055.218.017.127.02.332-.059.57l-3.799-1.25z" fill="#0EF5FF" mask="url(#a)"/><mask id="b" fill="#fff"><path d="M74.261 58.569h-9.607c-.515 0-.858.346-.858.866 0 .519.343.865.858.865h9.607c.515 0 .858-.346.858-.865 0-.693-.343-.866-.858-.866z"/></mask><path d="M74.261 56.569h-9.607v4h9.607v-4zm-9.607 0c-.717 0-1.468.25-2.043.83a2.868 2.868 0 00-.815 2.036h4c0 .189-.07.504-.343.78a1.154 1.154 0 01-.8.354v-4zm-2.858 2.866c0 .708.242 1.457.815 2.035.575.58 1.326.83 2.043.83v-4c.203 0 .525.078.799.355.272.275.343.59.343.78h-4zm2.858 2.865h9.607v-4h-9.607v4zm9.607 0a2.85 2.85 0 002.043-.83 2.867 2.867 0 00.815-2.035h-4c0-.19.07-.505.343-.78.275-.277.596-.355.8-.355v4zm2.858-2.865c0-.643-.16-1.542-.927-2.206-.705-.61-1.527-.66-1.93-.66v4c.11 0-.283.035-.688-.314-.466-.404-.455-.871-.455-.82h4z" fill="#0EF5FF" mask="url(#b)"/><mask id="c" fill="#fff"><path d="M53.331 60.127h7.206c.514 0 .857-.346.857-.866 0-.519-.343-.865-.857-.865H53.33c-.4 0-.698.21-.81.549-.066.202-.02.422.063.618.148.348.34.564.747.564z"/></mask><path d="M53.331 62.127h7.206v-4H53.33v4zm7.206 0a2.85 2.85 0 002.042-.83 2.867 2.867 0 00.815-2.035h-4c0-.19.071-.505.344-.78.274-.277.596-.355.799-.355v4zm2.857-2.866c0-.708-.242-1.457-.815-2.035a2.85 2.85 0 00-2.042-.83v4c-.203 0-.525-.078-.8-.355a1.138 1.138 0 01-.343-.78h4zm-2.857-2.865H53.33v4h7.206v-4zm-7.206 0c-1.181 0-2.302.688-2.709 1.923l3.8 1.251a1.23 1.23 0 01-.472.622 1.11 1.11 0 01-.619.204v-4zm-2.588 3.95c.125.293.364.773.84 1.168a2.697 2.697 0 001.748.613v-4c.076 0 .205.01.362.063.163.054.315.14.445.247.241.2.31.399.287.345l-3.681 1.563zm-.121-2.027c-.287.871-.044 1.638.121 2.026l3.682-1.563c.009.02.04.096.055.218.017.127.02.331-.059.57l-3.799-1.25z" fill="#0EF5FF" mask="url(#c)"/><mask id="d" fill="#fff"><path d="M53.331 66.534h20.93c.515 0 .858-.347.858-.866 0-.52-.343-.866-.858-.866h-20.93c-.43 0-.74.241-.83.624a.91.91 0 00.037.477c.155.498.343.63.793.63z"/></mask><path d="M52.538 65.903l-1.91.594 1.91-.594zm.793 2.63h20.93v-4h-20.93v4zm20.93 0a2.85 2.85 0 002.043-.83 2.867 2.867 0 00.815-2.035h-4c0-.19.07-.505.343-.78.275-.277.596-.355.8-.355v4zm2.858-2.865c0-.709-.242-1.457-.815-2.036a2.851 2.851 0 00-2.043-.83v4c-.203 0-.524-.077-.799-.354a1.138 1.138 0 01-.343-.78h4zm-2.858-2.866h-20.93v4h20.93v-4zm-20.93 0c-1.287 0-2.457.813-2.777 2.163l3.893.922a1.214 1.214 0 01-.45.677 1.123 1.123 0 01-.666.238v-4zm-2.703 3.695c.11.355.348 1.004.967 1.486.652.508 1.362.55 1.736.55v-4c-.077 0 .314-.023.721.294.374.29.44.625.396.482l-3.82 1.188zm-.074-1.532a2.897 2.897 0 00.074 1.532l3.82-1.188c.003.01.02.066.03.157.009.094.011.242-.031.421l-3.893-.922z" fill="#0EF5FF" mask="url(#d)"/><mask id="e" fill="#fff"><path d="M58.135 36.58H36.348c-.515 0-.858.346-.858.865 0 .52.343.866.858.866h21.787c.515 0 .858-.346.858-.866s-.343-.866-.858-.866z"/></mask><path d="M58.135 34.58H36.348v4h21.787v-4zm-21.787 0a2.85 2.85 0 00-2.043.83 2.868 2.868 0 00-.815 2.035h4c0 .19-.07.505-.343.78a1.154 1.154 0 01-.8.354v-4zm-2.858 2.865c0 .709.242 1.457.815 2.035a2.85 2.85 0 002.043.83v-4c.203 0 .524.078.799.355.272.275.343.59.343.78h-4zm2.858 2.866h21.787v-4H36.348v4zm21.787 0a2.85 2.85 0 002.043-.83 2.867 2.867 0 00.815-2.036h-4c0-.19.071-.505.344-.78.274-.277.596-.354.798-.354v4zm2.858-2.866c0-.709-.242-1.457-.815-2.035a2.85 2.85 0 00-2.043-.83v4c-.202 0-.524-.078-.798-.355a1.138 1.138 0 01-.344-.78h4z" fill="#0EF5FF" mask="url(#e)"/><mask id="f" fill="#fff"><path d="M47.67 43.852c0-.52-.343-.866-.857-.866H36.348c-.515 0-.858.346-.858.866s.343.866.858.866h10.465c.686 0 .857-.347.857-.866z"/></mask><path d="M49.67 43.852c0-.709-.242-1.457-.815-2.035a2.851 2.851 0 00-2.042-.83v4c-.203 0-.525-.078-.8-.355a1.138 1.138 0 01-.343-.78h4zm-2.857-2.866H36.348v4h10.465v-4zm-10.465 0a2.85 2.85 0 00-2.043.83 2.867 2.867 0 00-.815 2.036h4c0 .19-.07.505-.343.78a1.153 1.153 0 01-.8.354v-4zm-2.858 2.866c0 .709.242 1.457.815 2.035a2.85 2.85 0 002.043.83v-4c.203 0 .524.078.799.355.272.275.343.59.343.78h-4zm2.858 2.866h10.465v-4H36.348v4zm10.465 0c.65 0 1.551-.168 2.21-.944.599-.705.647-1.522.647-1.922h-4c0 .12-.037-.265.304-.667.402-.473.876-.468.839-.468v4z" fill="#0EF5FF" mask="url(#f)"/><mask id="g" fill="#fff"><path d="M58.136 42.986h-6.52c-.514 0-.858.346-.858.866s.344.866.858.866h6.52c.514 0 .857-.347.857-.866 0-.52-.343-.866-.857-.866z"/></mask><path d="M58.136 40.986h-6.52v4h6.52v-4zm-6.52 0a2.85 2.85 0 00-2.042.83 2.868 2.868 0 00-.816 2.036h4c0 .19-.07.505-.343.78a1.153 1.153 0 01-.799.354v-4zm-2.858 2.866c0 .709.243 1.457.816 2.035.574.58 1.325.83 2.042.83v-4c.203 0 .525.078.8.355.272.275.343.59.343.78h-4zm2.858 2.866h6.52v-4h-6.52v4zm6.52 0c.717 0 1.468-.251 2.042-.83a2.867 2.867 0 00.815-2.036h-4c0-.19.071-.505.344-.78.274-.277.596-.355.799-.355v4zm2.857-2.866c0-.709-.242-1.457-.815-2.035a2.85 2.85 0 00-2.042-.83v4c-.203 0-.525-.078-.8-.355a1.138 1.138 0 01-.343-.78h4z" fill="#0EF5FF" mask="url(#g)"/><mask id="h" fill="#fff"><path d="M36.517 49.565c-.515 0-.858.347-.858.866 0 .52.343.866.858.866h7.205c.515 0 .858-.346.858-.866s-.343-.866-.858-.866h-7.205z"/></mask><path d="M36.517 47.565c-.718 0-1.468.251-2.043.83a2.868 2.868 0 00-.815 2.036h4c0 .19-.07.505-.343.78a1.154 1.154 0 01-.799.354v-4zm-2.858 2.866c0 .709.242 1.457.815 2.036.575.58 1.326.83 2.043.83v-4c.203 0 .524.077.799.354.272.275.343.59.343.78h-4zm2.858 2.866h7.205v-4h-7.205v4zm7.205 0a2.85 2.85 0 002.043-.83 2.867 2.867 0 00.815-2.036h-4c0-.19.07-.505.343-.78.275-.277.596-.354.8-.354v4zm2.858-2.866c0-.709-.242-1.457-.815-2.035a2.851 2.851 0 00-2.043-.83v4c-.203 0-.524-.078-.799-.355a1.138 1.138 0 01-.343-.78h4zm-2.858-2.866h-7.205v4h7.205v-4z" fill="#0EF5FF" mask="url(#h)"/><mask id="i" fill="#fff"><path d="M46.125 50.431v17.488c0 2.424 2.059 5.194 4.632 5.194H66.37l6.519 5.714c.172.173.343.173.515.173h.343c.343-.173.514-.346.514-.693v-5.194h2.402c2.402 0 4.975-2.597 4.975-5.194V50.43c0-2.597-2.573-3.982-4.975-3.982H50.757c-2.745-.173-4.632 1.558-4.632 3.982zm33.797 0v17.488c0 1.731-1.716 3.636-3.26 3.636h-3.088c-.514 0-.858.346-.858.865v4.156l-5.49-4.848c-.17-.173-.342-.173-.514-.173H50.929c-1.544 0-3.088-1.732-3.088-3.636V50.43c0-1.731 1.544-2.424 3.088-2.424h25.905c1.372-.173 3.088.866 3.088 2.424z"/></mask><path d="M66.369 73.113l1.318-1.504-.566-.496h-.752v2zm6.519 5.714l1.42-1.408-.049-.05-.053-.046-1.318 1.504zm.858.173v2h.476l.425-.215L73.746 79zm.514-5.887v-2h-2v2h2zM50.757 46.449l-.126 1.996.063.004h.063v-2zm21.96 30.127l-1.324 1.499 3.323 2.935v-4.434h-2zm-5.49-4.848l-1.421 1.407.047.048.05.044 1.324-1.5zm9.607-23.721v2h.126l.124-.016-.25-1.984zm-32.709 2.424v17.488h4V50.43h-4zm0 17.488c0 1.74.72 3.483 1.82 4.792 1.103 1.314 2.78 2.402 4.812 2.402v-4c-.54 0-1.18-.297-1.75-.975-.572-.682-.882-1.536-.882-2.22h-4zm6.632 7.194H66.37v-4H50.757v4zm14.294-.496l6.519 5.714 2.636-3.008-6.519-5.714-2.636 3.008zm6.416 5.617c.794.801 1.731.766 1.936.766v-4c-.123 0 .038-.01.232.04a1.488 1.488 0 01.674.38l-2.842 2.814zM73.403 79v2h.343v-4h-.343v2zm1.244 1.785c.254-.128.694-.373 1.052-.824a2.624 2.624 0 00.561-1.654h-4c0-.078.01-.212.062-.374a1.44 1.44 0 01.242-.457c.187-.235.37-.306.28-.262l1.803 3.572zm1.613-2.478v-5.194h-4v5.194h4zm-2-3.194h2.402v-4H74.26v4zm2.402 0c1.893 0 3.624-.992 4.825-2.232 1.21-1.25 2.15-3.023 2.15-4.962h-4c0 .657-.347 1.48-1.023 2.18-.686.707-1.442 1.014-1.952 1.014v4zm6.975-7.194V50.43h-4v17.488h4zm0-17.488c0-2.052-1.049-3.615-2.427-4.595-1.333-.947-2.997-1.387-4.548-1.387v4c.852 0 1.675.252 2.23.647.508.361.745.79.745 1.335h4zm-6.975-5.982H50.757v4h25.905v-4zm-25.779.004c-1.824-.115-3.523.4-4.79 1.509-1.273 1.116-1.968 2.716-1.968 4.469h4c0-.67.25-1.149.605-1.461.364-.319.98-.583 1.901-.525l.252-3.992zm27.039 5.978v17.488h4V50.43h-4zm0 17.488c0 .246-.151.699-.54 1.13-.408.457-.725.506-.72.506v4c1.55 0 2.863-.904 3.697-1.833.856-.953 1.563-2.318 1.563-3.803h-4zm-1.26 1.636h-3.088v4h3.088v-4zm-3.088 0c-.717 0-1.468.25-2.042.83a2.867 2.867 0 00-.816 2.035h4c0 .19-.07.505-.343.78a1.154 1.154 0 01-.799.355v-4zm-2.858 2.865v4.156h4V72.42h-4zm3.324 2.657l-5.49-4.848-2.647 2.998 5.49 4.848 2.647-2.998zm-5.393-4.757c-.793-.8-1.731-.765-1.935-.765v4c.123 0-.038.01-.232-.04a1.49 1.49 0 01-.674-.38l2.841-2.815zm-1.935-.765H50.929v4h15.783v-4zm-15.783 0c-.03 0-.29-.042-.609-.41-.3-.349-.48-.804-.48-1.226h-4c0 1.482.594 2.844 1.452 3.839.84.972 2.123 1.797 3.637 1.797v-4zm-1.088-1.636V50.43h-4v17.488h4zm0-17.488a.539.539 0 01.02-.149v-.002c.002 0 .003-.003.007-.007a.317.317 0 01.054-.044c.149-.1.49-.222 1.007-.222v-4c-1.028 0-2.23.224-3.24.903-1.101.742-1.848 1.955-1.848 3.521h4zm1.088-.424h25.905v-4H50.929v4zm26.155-.016a.755.755 0 01.28.03c.13.037.256.097.359.171a.638.638 0 01.18.183c.019.032.019.046.019.056h4c0-1.573-.874-2.773-1.86-3.484-.965-.696-2.237-1.08-3.478-.924l.5 3.968z" fill="#0EF5FF" mask="url(#i)"/><path d="M38.378 63.253l-.001-.006a.02.02 0 010 .006z" stroke="#0EF5FF" stroke-width="2"/></g><defs><filter id="filter0_d" x="0" y="0" width="111.637" height="109" filterUnits="userSpaceOnUse" color-interpolation-filters="sRGB"><feFlood flood-opacity="0" result="BackgroundImageFix"/><feColorMatrix in="SourceAlpha" values="0 0 0 0 0 0 0 0 0 0 0 0 0 0 0 0 0 0 127 0"/><feOffset/><feGaussianBlur stdDeviation="15"/><feColorMatrix values="0 0 0 0 0.054902 0 0 0 0 0.960784 0 0 0 0 1 0 0 0 0.8 0"/><feBlend in2="BackgroundImageFix" result="effect1_dropShadow"/><feBlend in="SourceGraphic" in2="effect1_dropShadow" result="shape"/></filter></defs></svg>