<svg width="50" height="50" viewBox="0 0 50 50" fill="none" xmlns="http://www.w3.org/2000/svg"><path fill-rule="evenodd" clip-rule="evenodd" d="M47.58 16.129h-.806V6.452H8.064V0H4.033A4.037 4.037 0 000 4.032v30.645a4.037 4.037 0 004.032 4.033h21.774v8.87a2.422 2.422 0 002.42 2.42H47.58A2.422 2.422 0 0050 47.58V18.549a2.423 2.423 0 00-2.42-2.419zM1.614 4.032a2.423 2.423 0 012.42-2.42h2.419v29.033h-2.42c-.907 0-1.745.302-2.42.808V4.033zm2.42 33.065a2.423 2.423 0 01-2.42-2.42 2.422 2.422 0 012.42-2.419h4.032V8.065H45.16v8.064H28.476c-1.354-3.828-5.013-6.452-9.121-6.452-5.337 0-9.678 4.341-9.678 9.678 0 5.336 4.341 9.677 9.678 9.677a9.687 9.687 0 006.451-2.475v10.54H4.032zm21.773-18.549h-5.645v-7.212a8.093 8.093 0 016.747 5.188 2.414 2.414 0 00-1.102 2.024zm-7.258 8.83c-4.069-.406-7.258-3.85-7.258-8.023 0-4.174 3.19-7.618 7.258-8.024v16.047zm1.613-7.217h5.645v4.015a8.07 8.07 0 01-5.645 3.194v-7.209zm28.226 27.42a.808.808 0 01-.806.806H28.226a.808.808 0 01-.807-.806V18.548c0-.444.363-.806.807-.806H47.58c.444 0 .806.362.806.806v29.033zM29.032 27.419h17.742v-8.064H29.032v8.064zm1.613-6.451h14.516v4.838H30.645v-4.838zm16.13 25.806h-4.84v-4.839h4.84v4.84zm-1.614-3.226h-1.613v1.613h1.613v-1.613zm-9.677 3.226h4.839v-4.839h-4.84v4.84zm1.613-3.226h1.613v1.613h-1.613v-1.613zm-3.226 3.226h-4.839v-4.839h4.839v4.84zm-1.613-3.226h-1.613v1.613h1.613v-1.613zm9.677-3.225h4.84v-4.84h-4.84v4.84zm1.613-3.226h1.613v1.613h-1.613v-1.613zm-3.225 3.226h-4.84v-4.84h4.84v4.84zm-1.613-3.226h-1.613v1.613h1.613v-1.613zm-9.678 3.226h4.839v-4.84h-4.839v4.84zm1.613-3.226h1.613v1.613h-1.613v-1.613zm16.13-3.226h-4.84v-4.839h4.84v4.839zm-1.614-3.226h-1.613v1.613h1.613v-1.613zm-9.677 3.226h4.839v-4.839h-4.84v4.839zm1.613-3.226h1.613v1.613h-1.613v-1.613zm-3.226 3.226h-4.839v-4.839h4.839v4.839zm-1.613-3.226h-1.613v1.613h1.613v-1.613zm0-20.968h11.29v1.613h-11.29V9.677zm11.29 3.226H30.645v1.613h12.903v-1.613z" fill="#0090A1"/></svg>