<svg width="50" height="37" viewBox="0 0 50 37" fill="none" xmlns="http://www.w3.org/2000/svg"><path fill-rule="evenodd" clip-rule="evenodd" d="M47.765 26.95l-3.025-.864a.307.307 0 01-.222-.294v-1.01c.246-.17.481-.36.7-.574a5.388 5.388 0 001.65-3.898v-1.393l.292-.585c.321-.642.49-1.36.49-2.078v-3.775a.732.732 0 00-.732-.732H39.87a4.653 4.653 0 00-4.648 4.648v.044c0 .596.141 1.194.408 1.728l.375.75v1.196c0 1.896.934 3.597 2.35 4.621v1.058c0 .163 0 .23-.605.404l-1.476.421-4.27-1.552a.732.732 0 00-.2-.56L30.44 23.07v-2.407a8.73 8.73 0 00.425-.37 8.596 8.596 0 002.708-6.249v-1.921a8.463 8.463 0 00.783-3.56V.731A.733.733 0 0033.624 0H22.66a7.005 7.005 0 00-6.998 6.997v1.567c0 1.232.264 2.429.784 3.56v1.653a8.95 8.95 0 003.132 6.831v2.463l-1.364 1.433a.731.731 0 00-.2.561l-4.506 1.639c-.327.118-.63.28-.906.474l-.707-.354c2.106-.917 2.774-2.206 2.806-2.27a.732.732 0 000-.655c-.529-1.056-.593-2.992-.644-4.547a39.769 39.769 0 00-.064-1.443c-.25-3.513-2.92-6.162-6.213-6.162-3.292 0-5.962 2.649-6.212 6.162-.03.436-.047.925-.064 1.443-.052 1.555-.116 3.49-.644 4.546a.732.732 0 000 .656c.032.064.698 1.35 2.809 2.269l-1.965.982A3.066 3.066 0 000 30.562v5.41a.733.733 0 001.465 0v-5.41c0-.617.342-1.17.894-1.446l2.447-1.224.852.809a3.073 3.073 0 002.122.848 3.07 3.07 0 002.123-.848l.852-.809.798.399a3.858 3.858 0 00-.59 2.045v5.637a.732.732 0 101.466 0v-5.637c0-1.005.634-1.912 1.58-2.256l4.75-1.727 1.978 2.967a1.51 1.51 0 001.263.674c.4 0 .784-.157 1.07-.443l1.207-1.207v7.63a.732.732 0 101.465 0v-7.63l1.206 1.207a1.51 1.51 0 001.221.436 1.51 1.51 0 001.112-.667l1.978-2.967 4.751 1.728a2.407 2.407 0 011.58 2.255v5.637a.733.733 0 001.465 0v-5.637a3.872 3.872 0 00-1.084-2.68l.181-.051c.183-.053.432-.124.682-.246l1.87 1.87v6.744a.732.732 0 101.465 0V29.23l1.857-1.857c.098.05.202.092.311.123l3.025.865c.69.197 1.173.836 1.173 1.554v6.06a.732.732 0 101.465 0v-6.06c0-1.369-.92-2.587-2.235-2.963zM4.699 25.658c-1.37-.493-2.057-1.15-2.35-1.51.2-.522.329-1.12.417-1.753a5.461 5.461 0 001.933 2.385v.878zm4.196 1.982a1.616 1.616 0 01-2.228 0l-.681-.647c.114-.215.178-.46.178-.715v-.781a5.448 5.448 0 003.234 0v.78c0 .256.063.5.178.716l-.681.647zM7.78 24.277a3.97 3.97 0 01-3.966-3.966.732.732 0 00-.853-.722l.006-.188c.017-.504.032-.98.061-1.388.094-1.316.62-2.529 1.481-3.415a4.527 4.527 0 013.27-1.386c1.24 0 2.402.492 3.271 1.386.862.886 1.387 2.1 1.481 3.415.029.408.045.884.061 1.387l.005.13c-.797-1.227-2.028-2.132-3.618-2.643a9.19 9.19 0 00-2.786-.441.733.733 0 00-.507.224l-1.321 1.37a.733.733 0 001.054 1.017l1.1-1.14c.947.046 3.994.4 5.178 3.01a3.957 3.957 0 01-3.917 3.35zm3.081 1.383v-.874a5.417 5.417 0 001.934-2.388c.088.631.217 1.229.417 1.75-.292.356-.982 1.019-2.35 1.512zm7.048-11.883V11.96c0-.11-.024-.22-.072-.318a7.025 7.025 0 01-.71-3.078V6.997a5.539 5.539 0 015.532-5.532H32.89v7.099a7.027 7.027 0 01-.71 3.078.732.732 0 00-.073.318v2.086a7.032 7.032 0 01-2.245 5.18 7.3 7.3 0 01-.562.476l-.008.006-.005.003a7.042 7.042 0 01-4.753 1.418c-3.715-.24-6.625-3.47-6.625-7.352zm4.124 14.738c-.005.005-.017.017-.04.014a.047.047 0 01-.038-.022L19.68 25.09l.733-.77 3.455 2.362-1.833 1.833zm2.975-2.827l-3.966-2.71V21.61a8.248 8.248 0 003.974 1c1.4 0 2.748-.335 3.959-.97v1.337l-3.967 2.711zm3.053 2.819a.046.046 0 01-.037.022.045.045 0 01-.04-.014l-1.834-1.833 3.456-2.362.733.77-2.278 3.417zm13.374-.618l-1.662-1.662a2.01 2.01 0 00.045-.435v-.31a5.137 5.137 0 001.62.26c.555 0 1.098-.084 1.614-.245v.295c0 .146.019.29.053.427l-1.67 1.67zm2.762-4.732a3.936 3.936 0 01-2.884 1.118c-2.12-.064-3.844-1.93-3.844-4.161v-1.37a.732.732 0 00-.077-.327l-.453-.905a2.413 2.413 0 01-.253-1.073v-.044a3.187 3.187 0 013.183-3.183h6.316v3.042a3.2 3.2 0 01-.336 1.423l-.37.74a.732.732 0 00-.077.327v1.567a3.935 3.935 0 01-1.205 2.846zm-.085-6.634c-1.701-.85-4.891-.86-5.026-.86a.732.732 0 100 1.464c.823 0 3.213.127 4.371.706a.73.73 0 00.983-.327.732.732 0 00-.328-.983zm1.29 14.751a.732.732 0 011.465 0v4.699a.732.732 0 11-1.465 0v-4.699zm-41.538.236a.732.732 0 00-.732.732v3.731a.732.732 0 001.464 0v-3.73a.732.732 0 00-.732-.733zM20.08 6.945c2.363-.357 8.159-.886 10.929 1.884a.732.732 0 11-1.036 1.036c-.978-.979-2.633-1.552-4.917-1.704-1.94-.13-3.814.09-4.758.232-.022.003-.038.025-.038.05v1.687a.732.732 0 01-1.465 0V8.443c0-.756.54-1.386 1.285-1.498zm-3.685 25.163a.732.732 0 00-.732.733v3.132a.732.732 0 101.464 0V32.84a.732.732 0 00-.732-.732zm16.496.733a.732.732 0 111.465 0v3.132a.732.732 0 11-1.465 0V32.84z" fill="#0090A1"/></svg>