<svg width="50" height="50" viewBox="0 0 50 50" fill="none" xmlns="http://www.w3.org/2000/svg"><g clip-path="url(#clip0)" fill="#0090A1"><path d="M12.467 3.634a1.228 1.228 0 00-1.61.012L7.503 6.647v-.393a.833.833 0 10-1.666 0v1.885L4.448 9.382a.833.833 0 001.112 1.242l6.11-5.469 6.109 5.469a.833.833 0 101.111-1.242l-6.423-5.748zm4.202 8.036a.833.833 0 00-.834.833v5.832H7.504v-5.832a.833.833 0 10-1.667 0v6.36c.009.637.53 1.146 1.167 1.138h9.331a1.155 1.155 0 001.167-1.14v-6.358a.833.833 0 00-.833-.834zm-4.999 9.998a5.832 5.832 0 105.832 5.832 5.839 5.839 0 00-5.832-5.832zM7.503 27.5a4.173 4.173 0 013.332-4.083v3.61l-3.082 1.849a4.107 4.107 0 01-.25-1.376zm1.108 2.805l2.928-1.757 2.423 2.423a4.126 4.126 0 01-5.35-.666zm6.53-.513l-2.64-2.637v-3.738a4.159 4.159 0 012.64 6.375zm29.855-14.79V12.15c0-.725-.589-1.313-1.314-1.314h-2.371c-.726 0-1.314.589-1.314 1.314v2.852H38.33V9.778a1.444 1.444 0 00-1.442-1.441h-2.116a1.443 1.443 0 00-1.441 1.441v5.224h-1.667V5.837c0-.92-.746-1.666-1.666-1.666h-1.666c-.92 0-1.667.746-1.667 1.666v9.165h-.833A.833.833 0 0125 14.17v-10a.833.833 0 00-1.666 0v9.998a2.5 2.5 0 002.5 2.5h19.162a.833.833 0 100-1.667zm-14.997 0h-1.666V5.837h1.666v9.165zm6.665 0h-1.666v-4.999h1.666v5zm6.666 0h-1.667v-2.5h1.667v2.5zm1.666 16.663H25.833a.833.833 0 01-.833-.833v-1.321l2.744-2.744a.85.85 0 011.178 0l.976.977a2.5 2.5 0 003.534 0l3.476-3.476a.85.85 0 011.178 0l.977.977a2.504 2.504 0 003.534 0l2.988-2.988a.833.833 0 00-1.178-1.178l-2.988 2.987a.833.833 0 01-1.178 0l-.977-.976a2.56 2.56 0 00-3.534 0l-3.476 3.476a.833.833 0 01-1.178 0l-.975-.977a2.56 2.56 0 00-3.535 0L25 27.155v-6.32a.833.833 0 00-1.666 0v9.997a2.5 2.5 0 002.5 2.5h19.162a.833.833 0 000-1.667z"/><path d="M49.995 38.709V4.625a4.416 4.416 0 00-4.166-4.62H4.171a4.416 4.416 0 00-4.166 4.62V38.71a4.416 4.416 0 004.166 4.62h13.33v1.667H14.17a3.333 3.333 0 00-3.333 3.333v.833c0 .46.373.833.833.833h26.662c.46 0 .833-.373.833-.833v-.833a3.333 3.333 0 00-3.333-3.333h-3.333V43.33H45.83a4.416 4.416 0 004.166-4.621zM35.83 46.662c.92 0 1.666.746 1.666 1.667H12.503c0-.92.746-1.667 1.666-1.667H35.83zm-16.663-1.666V43.33h11.664v1.666H19.168zm26.661-3.333H4.171a2.76 2.76 0 01-2.5-2.954v-2.045H48.33v2.045a2.76 2.76 0 01-2.5 2.954zm2.5-37.038v30.373H1.672V4.625A2.759 2.759 0 014.17 1.672h41.658a2.759 2.759 0 012.5 2.953z"/></g><defs><clipPath id="clip0"><path fill="#fff" d="M0 0h50v50H0z"/></clipPath></defs></svg>