<svg width="42" height="50" viewBox="0 0 42 50" fill="none" xmlns="http://www.w3.org/2000/svg"><path fill-rule="evenodd" clip-rule="evenodd" d="M40.04 5.86A4.888 4.888 0 0135.155.976.977.977 0 0034.18 0H6.836a.977.977 0 00-.977.977A4.888 4.888 0 01.977 5.859.977.977 0 000 6.836v15.936c0 12.42 8.095 23.549 20.227 27.187a.981.981 0 00.561 0c11.87-3.56 20.228-14.495 20.228-27.187V6.837a.977.977 0 00-.977-.977zm-.977 16.912c0 11.665-7.444 21.767-18.555 25.23a26.405 26.405 0 01-18.555-25.23V7.744c2.99-.43 5.36-2.8 5.79-5.79h25.53c.43 2.99 2.8 5.36 5.79 5.79v15.03zM20.508 3.908a.974.974 0 00-.976.976c0 .502.378.92.878.97a.974.974 0 001.073-.97.974.974 0 00-.975-.976zm11.475.584a8.797 8.797 0 004.542 4.541.977.977 0 01.584.895v12.846c0 10.478-6.484 19.597-16.275 23.063a.976.976 0 01-.652 0c-9.8-3.468-16.276-12.593-16.276-23.063V9.927c0-.388.23-.74.585-.895a8.797 8.797 0 004.541-4.541.977.977 0 01.895-.585h6.677a.977.977 0 010 1.953h-6.06a10.736 10.736 0 01-4.685 4.685v12.229c0 9.556 5.738 17.802 14.649 21.103 8.911-3.3 14.648-11.547 14.648-21.103V10.544a10.735 10.735 0 01-4.685-4.685h-6.059a.977.977 0 010-1.953h6.677c.388 0 .739.23.894.585zm-11.475 9.767c-4.846 0-8.79 3.943-8.79 8.789s3.944 8.789 8.79 8.789c4.846 0 8.789-3.943 8.789-8.79 0-4.845-3.943-8.788-8.79-8.788zm0 15.625a6.844 6.844 0 01-6.836-6.836 6.844 6.844 0 016.836-6.836 6.844 6.844 0 016.836 6.836 6.844 6.844 0 01-6.836 6.836zm3.216-9.48a.977.977 0 011.38 1.381l-4.882 4.883a.974.974 0 01-1.381 0l-1.953-1.953a.977.977 0 011.38-1.381l1.263 1.262 4.193-4.192z" fill="#0090A1"/></svg>