<svg width="98" height="106" viewBox="0 0 98 106" fill="none" xmlns="http://www.w3.org/2000/svg"><g filter="url(#filter0_d)"><path fill-rule="evenodd" clip-rule="evenodd" d="M64.935 58.1v1.52H30V58.1h3.038V45.95c0-.42.34-.76.76-.76h6.834v-9.113c0-.42.34-.76.76-.76h1.519v-2.278c0-.42.34-.76.76-.76h3.037V30h1.52v2.278h3.037c.42 0 .76.34.76.76v2.278h1.518c.42 0 .76.34.76.76v6.075h6.835c.42 0 .76.34.76.76V58.1h3.037zM45.95 55.062V58.1h3.038v-3.038H45.95zM60.38 58.1V43.67h-6.076V58.1h6.076zm-9.873-24.303H44.43v1.52h6.076v-1.52zm2.278 3.038H42.151V58.1h2.279v-3.797c0-.42.34-.76.76-.76h4.556c.42 0 .76.34.76.76V58.1h2.278V36.835zm-12.151 9.873h-6.076V58.1h6.075V46.708zm7.594-8.354h-1.519v1.52h1.52v-1.52zm-1.519 3.038h1.52v1.519h-1.52v-1.519zm1.52 3.038h-1.52v1.519h1.52v-1.52zm-1.52 3.038h1.52v1.519h-1.52v-1.52zm1.52 3.037h-1.52v1.52h1.52v-1.52zm14.486 11.05l4.282 1.558a.76.76 0 01.456.968l-4.156 11.42a.76.76 0 01-.973.453l-4.283-1.558a.76.76 0 01-.456-.974l.26-.713-.463-.169-4.355 1.47a.762.762 0 01-.503-.006l-15.595-5.676a3.104 3.104 0 01-2.073-3.335 3.047 3.047 0 011.723-2.31 3.014 3.014 0 012.323-.102l4.734 1.731a3.044 3.044 0 012.173-1.605l10.323-1.823a.738.738 0 01.39.034l4.96 1.805.26-.713a.76.76 0 01.973-.456zm-5.567 9.463a.76.76 0 01.503.005l.714.262 2.598-7.139-4.77-1.735-10.12 1.785a1.526 1.526 0 00-1.164.978.946.946 0 00-.052.19 1.596 1.596 0 00-.016.601 1.52 1.52 0 001.76 1.226l8.546-1.508.264 1.496-8.55 1.507a3.051 3.051 0 01-3.517-2.464 3.295 3.295 0 01-.032-.418l-4.93-1.793a1.501 1.501 0 00-1.16.051 1.519 1.519 0 00-.865 1.163 1.606 1.606 0 001.091 1.678l15.346 5.585 4.354-1.47zm2.128 2.212l2.855 1.04 3.637-9.992-2.855-1.039-3.637 9.991zm-9.529-22.725h1.52v1.52h-1.52v-1.52zm-4.557 0h-1.52v1.52h1.52v-1.52zm6.076-3.037h-1.519v1.519h1.52v-1.52zm-7.595 0h1.52v1.519h-1.52v-1.52zm6.076-3.038h1.52v1.519h-1.52v-1.52zm-4.557 0h-1.52v1.519h1.52v-1.52zm6.076-3.038h-1.519v1.519h1.52v-1.519zm-7.595 0h1.52v1.519h-1.52v-1.519zm6.076-3.038h1.52v1.52h-1.52v-1.52zm-4.557 0h-1.52v1.52h1.52v-1.52zm10.633 6.835h3.038v1.52h-3.038v-1.52zm3.038 3.038h-3.038v1.52h3.038v-1.52zm-3.038 3.038h3.038v1.519h-3.038v-1.519zm3.038 3.038h-3.038v1.519h3.038v-1.519zm-22.784-6.076h3.038v1.52h-3.038v-1.52zm3.038 3.038h-3.038v1.519h3.038v-1.519zm-3.038 3.038h3.038v1.519h-3.038v-1.519z" fill="#0EF5FF"/></g><defs><filter id="filter0_d" x="0" y="0" width="97.496" height="106" filterUnits="userSpaceOnUse" color-interpolation-filters="sRGB"><feFlood flood-opacity="0" result="BackgroundImageFix"/><feColorMatrix in="SourceAlpha" values="0 0 0 0 0 0 0 0 0 0 0 0 0 0 0 0 0 0 127 0"/><feOffset/><feGaussianBlur stdDeviation="15"/><feColorMatrix values="0 0 0 0 0.054902 0 0 0 0 0.960784 0 0 0 0 1 0 0 0 0.8 0"/><feBlend in2="BackgroundImageFix" result="effect1_dropShadow"/><feBlend in="SourceGraphic" in2="effect1_dropShadow" result="shape"/></filter></defs></svg>