<svg width="95" height="102" viewBox="0 0 95 102" fill="none" xmlns="http://www.w3.org/2000/svg"><g opacity=".6" filter="url(#filter0_d)"><path fill-rule="evenodd" clip-rule="evenodd" d="M63.633 34.922a4.106 4.106 0 01-4.102-4.102.82.82 0 00-.82-.82H35.742a.82.82 0 00-.82.82 4.106 4.106 0 01-4.102 4.102.82.82 0 00-.82.82V49.13c0 10.432 6.8 19.78 16.991 22.837a.825.825 0 00.471 0c9.97-2.991 16.991-12.176 16.991-22.837V35.742a.82.82 0 00-.82-.82zm-.82 14.207c0 9.798-6.253 18.284-15.586 21.193A22.18 22.18 0 0131.64 49.129V36.504a5.756 5.756 0 004.863-4.863H57.95a5.756 5.756 0 004.864 4.863V49.13zM47.227 33.282a.818.818 0 00-.82.82c0 .422.318.773.738.815a.818.818 0 00.901-.815.818.818 0 00-.82-.82zm9.64.49a7.39 7.39 0 003.814 3.815.82.82 0 01.49.752v10.79c0 8.802-5.446 16.462-13.67 19.373a.82.82 0 01-.548 0C38.72 65.589 33.28 57.924 33.28 49.129v-10.79a.82.82 0 01.492-.752 7.39 7.39 0 003.814-3.815.82.82 0 01.752-.49h5.608a.82.82 0 010 1.64h-5.09a9.019 9.019 0 01-3.935 3.935V49.13c0 8.028 4.82 14.954 12.305 17.727 7.485-2.773 12.304-9.7 12.304-17.727V38.857a9.018 9.018 0 01-3.935-3.935h-5.09a.82.82 0 010-1.64h5.609a.82.82 0 01.751.49zm-9.64 8.205c-4.071 0-7.383 3.312-7.383 7.382 0 4.071 3.312 7.383 7.383 7.383 4.07 0 7.382-3.312 7.382-7.383 0-4.07-3.312-7.382-7.382-7.382zm0 13.125a5.749 5.749 0 01-5.743-5.743 5.749 5.749 0 015.743-5.742 5.749 5.749 0 015.742 5.742 5.749 5.749 0 01-5.742 5.743zm2.7-7.963a.82.82 0 011.16 1.16l-4.1 4.101a.818.818 0 01-1.16 0l-1.642-1.64a.82.82 0 011.16-1.16l1.061 1.06 3.522-3.521z" fill="#0EF5FF"/></g><defs><filter id="filter0_d" x="0" y="0" width="94.453" height="102" filterUnits="userSpaceOnUse" color-interpolation-filters="sRGB"><feFlood flood-opacity="0" result="BackgroundImageFix"/><feColorMatrix in="SourceAlpha" values="0 0 0 0 0 0 0 0 0 0 0 0 0 0 0 0 0 0 127 0"/><feOffset/><feGaussianBlur stdDeviation="15"/><feColorMatrix values="0 0 0 0 0.054902 0 0 0 0 0.960784 0 0 0 0 1 0 0 0 0.8 0"/><feBlend in2="BackgroundImageFix" result="effect1_dropShadow"/><feBlend in="SourceGraphic" in2="effect1_dropShadow" result="shape"/></filter></defs></svg>