<svg width="50" height="46" viewBox="0 0 50 46" fill="none" xmlns="http://www.w3.org/2000/svg"><path fill-rule="evenodd" clip-rule="evenodd" d="M6.78.847v33.12c2.87.413 5.084 2.881 5.084 5.864a5.94 5.94 0 01-5.932 5.932A5.94 5.94 0 010 39.83c0-2.983 2.215-5.451 5.085-5.865V.847a.847.847 0 111.695 0zM1.695 39.83c0 2.337 1.9 4.238 4.237 4.238s4.237-1.901 4.237-4.237c0-2.337-1.9-4.238-4.237-4.238a4.242 4.242 0 00-4.237 4.237zM19.492.848v22.95c2.87.413 5.084 2.882 5.084 5.864 0 2.982-2.215 5.45-5.084 5.864v9.39a.847.847 0 11-1.695 0v-9.39c-2.87-.413-5.085-2.882-5.085-5.864 0-2.982 2.215-5.45 5.085-5.864V.847a.847.847 0 111.695 0zm-5.085 28.814c0 2.336 1.9 4.237 4.237 4.237s4.237-1.9 4.237-4.237c0-2.336-1.9-4.237-4.237-4.237a4.242 4.242 0 00-4.237 4.237zm17.796-16.034V.847a.847.847 0 10-1.694 0v12.78c-2.87.414-5.085 2.882-5.085 5.864 0 2.983 2.215 5.451 5.085 5.865v19.56a.847.847 0 101.694 0v-19.56c2.87-.414 5.085-2.882 5.085-5.865 0-2.982-2.215-5.45-5.084-5.864zm-.847 10.102a4.242 4.242 0 01-4.237-4.238c0-2.336 1.9-4.237 4.237-4.237s4.237 1.901 4.237 4.237c0 2.337-1.9 4.238-4.237 4.238zm13.56-20.271C47.784 3.87 50 6.34 50 9.322c0 2.982-2.215 5.45-5.085 5.864v29.73a.847.847 0 11-1.694 0v-29.73c-2.87-.413-5.085-2.882-5.085-5.864 0-2.982 2.215-5.45 5.084-5.864V.848a.847.847 0 111.695 0v2.61zM39.83 9.322a4.24 4.24 0 004.237 4.237c2.336 0 4.237-1.9 4.237-4.237 0-2.336-1.9-4.237-4.237-4.237a4.242 4.242 0 00-4.237 4.237zm5.084-2.542H43.22a.847.847 0 100 1.695h1.695a.847.847 0 100-1.695zM30.51 16.95h1.694a.847.847 0 110 1.694H30.51a.847.847 0 110-1.695zm1.694 3.389H30.51a.847.847 0 100 1.695h1.694a.847.847 0 100-1.695zm-14.406 6.78h1.695a.847.847 0 110 1.695h-1.695a.847.847 0 110-1.695zm1.695 3.39h-1.695a.847.847 0 100 1.694h1.695a.847.847 0 100-1.695zm-14.407 6.78H6.78a.847.847 0 110 1.694H5.085a.847.847 0 110-1.695zm1.695 3.389H5.085a.847.847 0 100 1.695H6.78a.847.847 0 100-1.695zm36.44-30.509h1.695a.847.847 0 110 1.695H43.22a.847.847 0 110-1.695z" fill="#0090A1"/></svg>