<svg width="94" height="106" viewBox="0 0 94 106" fill="none" xmlns="http://www.w3.org/2000/svg"><g filter="url(#filter0_d)"><path fill-rule="evenodd" clip-rule="evenodd" d="M62.73 33.538h-6.19v-.884a.885.885 0 00-.885-.885h-5.309A4.44 4.44 0 0046.808 30a4.44 4.44 0 00-3.538 1.77h-5.309a.885.885 0 00-.884.884v.884h-6.192a.885.885 0 00-.885.885v40.692c0 .489.396.885.885.885H62.73a.885.885 0 00.884-.885V34.423a.885.885 0 00-.884-.885zm-23.884 0h4.898a.885.885 0 00.766-.441 2.664 2.664 0 012.298-1.328c.944 0 1.824.51 2.298 1.328.158.273.45.441.765.441h4.898v3.539H38.846v-3.538zm23 37.154h-4.423a.885.885 0 000 1.77h4.423v1.769H31.77V35.308h5.308v2.654c0 .488.396.884.885.884h17.692a.885.885 0 00.884-.884v-2.654h5.308v35.384zM42.06 41.7a.885.885 0 00-1.245.125l-3.631 4.447-2.062-2.66a.885.885 0 10-1.398 1.084l2.742 3.538c.165.213.419.34.688.343h.011c.266 0 .517-.12.685-.325l4.335-5.308a.885.885 0 00-.125-1.245zm2.978.685h14.154a.885.885 0 010 1.769H45.038a.885.885 0 010-1.77zm5.308 3.538H45.04a.885.885 0 000 1.77h5.307a.885.885 0 000-1.77zm-9.531 6.517a.885.885 0 111.37 1.12l-4.335 5.307a.885.885 0 01-.685.325h-.011a.885.885 0 01-.688-.342l-2.742-3.539a.885.885 0 111.398-1.084l2.062 2.66 3.63-4.447zm18.377.56H45.038a.885.885 0 000 1.77h14.154a.885.885 0 000-1.77zm-14.154 3.538h5.308a.885.885 0 010 1.77H45.04a.885.885 0 010-1.77zM42.06 62.93a.885.885 0 00-1.245.126l-3.631 4.447-2.062-2.66a.885.885 0 10-1.398 1.084l2.742 3.538c.165.213.419.34.688.343h.011c.266 0 .517-.12.685-.325l4.335-5.308a.885.885 0 00-.125-1.245zm2.978.685h14.154a.885.885 0 010 1.77H45.038a.885.885 0 010-1.77zm5.308 3.539H45.04a.885.885 0 000 1.77h5.307a.885.885 0 000-1.77zm4.423 3.538a.89.89 0 01.626.26.89.89 0 01.259.625.89.89 0 01-.26.625.89.89 0 01-.625.26.892.892 0 01-.625-.26.89.89 0 01-.26-.625.89.89 0 01.26-.625.89.89 0 01.625-.26z" fill="#0EF5FF"/></g><defs><filter id="filter0_d" x="0" y="0" width="93.615" height="106" filterUnits="userSpaceOnUse" color-interpolation-filters="sRGB"><feFlood flood-opacity="0" result="BackgroundImageFix"/><feColorMatrix in="SourceAlpha" values="0 0 0 0 0 0 0 0 0 0 0 0 0 0 0 0 0 0 127 0"/><feOffset/><feGaussianBlur stdDeviation="15"/><feColorMatrix values="0 0 0 0 0.054902 0 0 0 0 0.960784 0 0 0 0 1 0 0 0 0.8 0"/><feBlend in2="BackgroundImageFix" result="effect1_dropShadow"/><feBlend in="SourceGraphic" in2="effect1_dropShadow" result="shape"/></filter></defs></svg>