<svg width="58" height="58" viewBox="0 0 58 58" fill="none" xmlns="http://www.w3.org/2000/svg"><g clip-path="url(#clip0)" fill="#0090A1"><path d="M43.434 22.488l-1.303 1.424 5.928 5.435a6.783 6.783 0 012.192 4.989V58h1.933V34.336a8.723 8.723 0 00-2.82-6.414l-5.93-5.434z"/><path d="M35.75 0H10.619a4.84 4.84 0 00-4.834 4.833v48.334A4.84 4.84 0 0010.618 58h24.166v-1.73a21.977 21.977 0 013.705-12.234.966.966 0 00-.121-1.22L31.6 36.05a3.135 3.135 0 01.23-4.64 3.256 3.256 0 014.328.333l9.542 9.542 1.367-1.366-6.484-6.486v-28.6A4.84 4.84 0 0035.751 0zm2.9 31.5l-1.124-1.125a5.203 5.203 0 00-6.926-.458 5.07 5.07 0 00-.366 7.5l6.216 6.216a23.901 23.901 0 00-3.592 12.434h-22.24a2.9 2.9 0 01-2.9-2.9v-2.9h24.166v-1.934H7.718v-40.6H38.65V31.5zm0-25.7H7.719v-.967a2.9 2.9 0 012.9-2.9H35.75a2.9 2.9 0 012.9 2.9V5.8z"/><path d="M11.584 17.4h3.867a1.933 1.933 0 001.933-1.933V11.6a1.933 1.933 0 00-1.934-1.933h-3.866A1.933 1.933 0 009.65 11.6v3.867c0 1.068.865 1.933 1.933 1.933zm0-5.8h3.867v3.867h-3.867V11.6zm9.667 5.8h3.867a1.933 1.933 0 001.933-1.933V11.6a1.933 1.933 0 00-1.933-1.933H21.25a1.933 1.933 0 00-1.933 1.933v3.867c0 1.068.865 1.933 1.933 1.933zm0-5.8h3.867v3.867H21.25V11.6zm9.667 5.8h3.867a1.933 1.933 0 001.933-1.933V11.6a1.933 1.933 0 00-1.933-1.933h-3.867a1.933 1.933 0 00-1.933 1.933v3.867c0 1.068.865 1.933 1.933 1.933zm0-5.8h3.867v3.867h-3.867V11.6zM11.584 27.067h3.867a1.933 1.933 0 001.933-1.934v-3.866a1.933 1.933 0 00-1.934-1.934h-3.866a1.933 1.933 0 00-1.933 1.934v3.866c0 1.068.865 1.934 1.933 1.934zm0-5.8h3.867v3.866h-3.867v-3.866zm0 15.466h3.867a1.933 1.933 0 001.933-1.933v-3.867A1.933 1.933 0 0015.45 29h-3.866a1.933 1.933 0 00-1.933 1.933V34.8c0 1.068.865 1.933 1.933 1.933zm0-5.8h3.867V34.8h-3.867v-3.867zm9.667-3.866h3.867a1.933 1.933 0 001.933-1.934v-3.866a1.933 1.933 0 00-1.933-1.934H21.25a1.933 1.933 0 00-1.933 1.934v3.866c0 1.068.865 1.934 1.933 1.934zm0-5.8h3.867v3.866H21.25v-3.866zm9.667 5.8h3.867a1.933 1.933 0 001.933-1.934v-3.866a1.933 1.933 0 00-1.933-1.934h-3.867a1.933 1.933 0 00-1.933 1.934v3.866c0 1.068.865 1.934 1.933 1.934zm0-5.8h3.867v3.866h-3.867v-3.866zm-9.667 15.466h3.867A1.933 1.933 0 0027.05 34.8v-3.867A1.933 1.933 0 0025.118 29H21.25a1.933 1.933 0 00-1.933 1.933V34.8c0 1.068.865 1.933 1.933 1.933zm0-5.8h3.867V34.8H21.25v-3.867zM11.584 46.4h3.867a1.933 1.933 0 001.933-1.933V40.6a1.933 1.933 0 00-1.934-1.933h-3.866A1.933 1.933 0 009.65 40.6v3.867c0 1.068.865 1.933 1.933 1.933zm0-5.8h3.867v3.867h-3.867V40.6zm9.667 5.8h3.867a1.933 1.933 0 001.933-1.933V40.6a1.933 1.933 0 00-1.933-1.933H21.25a1.933 1.933 0 00-1.933 1.933v3.867c0 1.068.865 1.933 1.933 1.933zm0-5.8h3.867v3.867H21.25V40.6zm.966 11.6h1.934v1.933h-1.934V52.2z"/></g><defs><clipPath id="clip0"><path fill="#fff" d="M0 0h58v58H0z"/></clipPath></defs></svg>