<svg width="102" height="102" viewBox="0 0 102 102" fill="none" xmlns="http://www.w3.org/2000/svg"><g filter="url(#filter0_d)"><path fill-rule="evenodd" clip-rule="evenodd" d="M72 38.806c0 1.12-.912 2.033-2.032 2.033h-2.032v1.355h1.354v1.354h-3.387v8.13h-3.188c.205.424.351.877.422 1.354h4.121v6.775H72V72H61.161V59.806h4.742v-5.419H63.14a4.745 4.745 0 01-4.687 4.065H43.548a4.748 4.748 0 01-4.742-4.742h-1.354v6.096h4.064c1.12 0 2.032.912 2.032 2.033v6.097h1.355v2.032c0 1.12-.912 2.032-2.032 2.032H32.032A2.035 2.035 0 0130 69.968v-2.032h1.355v-6.097c0-1.12.912-2.032 2.032-2.032h2.71v-7.452h2.922c.147-.49.37-.944.659-1.355h-4.936v-3.387h-2.71A2.035 2.035 0 0130 45.58V32.032c0-1.12.912-2.032 2.032-2.032h6.775c1.12 0 2.032.912 2.032 2.032v13.549c0 1.12-.912 2.032-2.032 2.032h-2.71v2.032h5.021a4.71 4.71 0 011.43-.569 5.45 5.45 0 015.065-3.495c.763 0 1.514.162 2.21.475a5.44 5.44 0 014.564-2.508 5.426 5.426 0 015.415 5.62c.745.223 1.41.627 1.95 1.155h2.796v-6.775h-3.387v-1.355h1.355V40.84h-2.032a2.035 2.035 0 01-2.032-2.032v-6.775c0-1.12.912-2.032 2.032-2.032h9.484c1.12 0 2.032.912 2.032 2.032v6.775zM31.355 40.84h8.129v-6.774h-8.13v6.774zm7.451-9.484h-6.774a.678.678 0 00-.677.677v.678h8.129v-.678a.678.678 0 00-.678-.677zm-7.451 10.838v3.388c0 .373.303.677.677.677h6.775a.678.678 0 00.677-.677v-3.388h-8.13zM42.87 70.645a.678.678 0 00.677-.677v-.678H31.355v.678c0 .373.303.677.677.677h10.839zm-.678-2.71V61.84a.678.678 0 00-.677-.678h-8.129a.678.678 0 00-.677.678v6.097h9.483zm20.323-1.354v4.064h8.13v-4.064h-8.13zm0-1.355h8.13V61.16h-8.13v4.065zm-18.968-8.13h14.904a3.391 3.391 0 003.387-3.386 3.406 3.406 0 00-2.873-3.344l-.67-.102.102-.67c.037-.24.054-.44.054-.626a4.069 4.069 0 00-4.065-4.065 4.079 4.079 0 00-3.68 2.349l-.322.689-.646-.4a4.053 4.053 0 00-2.126-.605 4.084 4.084 0 00-3.901 2.93l-.126.43-.444.054a3.385 3.385 0 00.406 6.747zm26.42-25.741h-9.484a.678.678 0 00-.678.677v4.742h10.84v-4.742a.678.678 0 00-.678-.677zm-10.162 6.774v.678c0 .373.304.677.678.677h9.484a.678.678 0 00.677-.678v-.677H59.807zm4.065 4.065h2.71v-1.355h-2.71v1.355zm-27.097 1.354h-2.71v1.355h2.71v-1.355zM63.87 62.516h1.355v1.355H63.87v-1.355zm5.42 5.42h-1.355v1.354h1.354v-1.355zm-2.71-5.42h2.71v1.355h-2.71v-1.355zm0 6.774v-1.355h-2.71v1.355h2.71z" fill="#0EF5FF"/></g><defs><filter id="filter0_d" x="0" y="0" width="102" height="102" filterUnits="userSpaceOnUse" color-interpolation-filters="sRGB"><feFlood flood-opacity="0" result="BackgroundImageFix"/><feColorMatrix in="SourceAlpha" values="0 0 0 0 0 0 0 0 0 0 0 0 0 0 0 0 0 0 127 0"/><feOffset/><feGaussianBlur stdDeviation="15"/><feColorMatrix values="0 0 0 0 0.054902 0 0 0 0 0.960784 0 0 0 0 1 0 0 0 0.8 0"/><feBlend in2="BackgroundImageFix" result="effect1_dropShadow"/><feBlend in="SourceGraphic" in2="effect1_dropShadow" result="shape"/></filter></defs></svg>