<svg width="54" height="43" viewBox="0 0 54 43" fill="none" xmlns="http://www.w3.org/2000/svg"><path fill-rule="evenodd" clip-rule="evenodd" d="M53.21 30.406a.791.791 0 00-.792.791v.9h-.9a.791.791 0 000 1.582h.9v5.662l-10.322-4.014a4.175 4.175 0 00-.031-1.648h6.072a.791.791 0 100-1.582h-6.764l-.029.002a4.197 4.197 0 00-.798-.815l-2.337-8.382 4.61-1.29a2.465 2.465 0 001.494-1.174 2.465 2.465 0 00.227-1.886l-1.645-5.877a2.47 2.47 0 00.767-.834 2.465 2.465 0 00.227-1.886L41.61 1.813a2.485 2.485 0 00-3.059-1.72L5.668 9.296c-.528.148-.9.596-.947 1.142a1.292 1.292 0 00.736 1.287l2.5 1.196.026.091a8.388 8.388 0 00-1.44 7.396 8.388 8.388 0 005.071 5.573l.464 1.657a2.486 2.486 0 003.06 1.72L31.8 24.696l2.32 8.324a4.147 4.147 0 00-.303 1.56 4.178 4.178 0 004.173 4.173c1.485 0 2.79-.78 3.53-1.951l10.897 4.238v1.15a.791.791 0 001.582 0V31.196a.79.79 0 00-.79-.79zM38.977 1.616a.9.9 0 011.109.624l2.279 8.141a.895.895 0 01-.083.684.895.895 0 01-.54.425h-.002l-21.167 5.926A.791.791 0 0021 18.939l20.406-5.712 1.61 5.752a.901.901 0 01-.623 1.11l-23.664 6.623-1.852-6.619.867-.242a.791.791 0 00-.427-1.524l-1.629.456a.9.9 0 01-1.109-.624l-.932-3.332a2.481 2.481 0 00-1.32-1.57L6.81 10.62l32.168-9.004zM8.066 19.982a6.805 6.805 0 01.489-4.926l2.488 8.884a6.804 6.804 0 01-2.977-3.958zm6.645 7.854a.9.9 0 01-1.11-.624l-.573-2.05a.01.01 0 01-.001-.003l-3.171-11.33 1.789.855a.9.9 0 01.478.57l.933 3.332a2.485 2.485 0 002.262 1.807l1.888 6.745-2.495.698zm21.975-4.508l1.99 7.136a4.158 4.158 0 00-3.367.922l-1.984-7.117 3.36-.941zM37.99 37.17a2.594 2.594 0 01-2.59-2.59 2.594 2.594 0 012.59-2.591 2.594 2.594 0 012.59 2.59 2.594 2.594 0 01-2.59 2.591zM1.542 17.632l2.153.59a.791.791 0 00.418-1.526l-2.153-.59a.792.792 0 00-.418 1.526zm3.267 3.262a.791.791 0 00-.975-.549l-3.256.912a.791.791 0 00.426 1.523l3.257-.911a.79.79 0 00.548-.975zM3.71 25.378l1.534-1.622a.791.791 0 011.15 1.087L4.86 26.465a.788.788 0 01-1.118.03.79.79 0 01-.032-1.117zm34.282 8.41H38a.791.791 0 110 1.583.795.795 0 01-.796-.792c0-.437.35-.791.788-.791z" fill="#0090A1"/></svg>