<svg width="35" height="34" viewBox="0 0 35 34" fill="none" xmlns="http://www.w3.org/2000/svg">
<g filter="url(#filter0_d)">
<path d="M22 17.5C22 18.5878 21.6774 19.6512 21.0731 20.5556C20.4687 21.4601 19.6098 22.1651 18.6048 22.5813C17.5998 22.9976 16.4939 23.1065 15.427 22.8943C14.3601 22.6821 13.3801 22.1583 12.6109 21.3891C11.8417 20.6199 11.3179 19.6399 11.1057 18.573C10.8935 17.5061 11.0024 16.4002 11.4187 15.3952C11.8349 14.3902 12.5399 13.5313 13.4444 12.9269C14.3488 12.3226 15.4122 12 16.5 12" stroke="#0EF5FF" stroke-width="2" stroke-linecap="round"/>
<path d="M12.5 14.5L16.5 18.5L24 11" stroke="#0EF5FF" stroke-width="2" stroke-linecap="round" stroke-linejoin="round"/>
</g>
<defs>
<filter id="filter0_d" x="0" y="0" width="35" height="34" filterUnits="userSpaceOnUse" color-interpolation-filters="sRGB">
<feFlood flood-opacity="0" result="BackgroundImageFix"/>
<feColorMatrix in="SourceAlpha" type="matrix" values="0 0 0 0 0 0 0 0 0 0 0 0 0 0 0 0 0 0 127 0"/>
<feOffset/>
<feGaussianBlur stdDeviation="5"/>
<feColorMatrix type="matrix" values="0 0 0 0 0.054902 0 0 0 0 0.960784 0 0 0 0 1 0 0 0 0.8 0"/>
<feBlend mode="normal" in2="BackgroundImageFix" result="effect1_dropShadow"/>
<feBlend mode="normal" in="SourceGraphic" in2="effect1_dropShadow" result="shape"/>
</filter>
</defs>
</svg>
