<svg width="48" height="58" viewBox="0 0 48 58" fill="none" xmlns="http://www.w3.org/2000/svg"><path fill-rule="evenodd" clip-rule="evenodd" d="M23.988 1.825L1.816 8.6v17.995c0 9.935 5.118 19.122 13.453 24.217l8.719 5.328 8.718-5.327c8.335-5.096 13.453-14.283 13.453-24.218V8.6L23.988 1.825zm9.667 50.533l-8.86 5.414a1.545 1.545 0 01-1.615 0l-8.86-5.414C5.437 46.927 0 37.15 0 26.596V8.449c0-.706.455-1.328 1.118-1.531L23.537.068c.294-.09.607-.09.902 0l22.418 6.85a1.595 1.595 0 011.118 1.53v18.148c0 10.554-5.437 20.331-14.32 25.762z" fill="#0090A1"/><path fill-rule="evenodd" clip-rule="evenodd" d="M14.685 27.762c0-4.924 4.013-8.924 8.941-8.924 4.928 0 8.941 4 8.941 8.924v7.173a3.23 3.23 0 012.285 3.085v1.71c0 .839-.681 1.515-1.517 1.515H13.917a1.516 1.516 0 01-1.517-1.516v-1.71a3.23 3.23 0 012.285-3.084v-7.173zm8.941-7.033c-3.888 0-7.05 3.158-7.05 7.033v7.978a.946.946 0 01-.946.946c-.739 0-1.338.6-1.338 1.334v1.334H32.96V38.02c0-.733-.6-1.334-1.338-1.334a.946.946 0 01-.946-.946v-7.978c0-3.875-3.162-7.033-7.05-7.033zm.908 3.186c-2.629 0-4.766 2.135-4.766 4.753a.946.946 0 01-1.891 0c0-3.666 2.988-6.645 6.657-6.645a.946.946 0 010 1.892z" fill="#0090A1"/><path d="M23.543 16.018a.707.707 0 00.707-.706v-2.824a.707.707 0 00-1.415 0v2.824c0 .39.317.707.708.707zm7.784 2.519c.18 0 .362-.069.5-.207l2.124-2.118a.708.708 0 00-1-.999l-2.124 2.119a.705.705 0 00.5 1.205zm-15.363-.207a.707.707 0 001.001-.998l-2.122-2.119a.709.709 0 00-1.001 0 .705.705 0 000 .999l2.122 2.118zm23.582 4.128a.71.71 0 00-.95-.316l-2.83 1.413a.706.706 0 10.632 1.264l2.831-1.413a.706.706 0 00.317-.948zm-27.834 2.435a.707.707 0 00.317-1.339l-2.831-1.413a.707.707 0 10-.633 1.264l2.83 1.413c.103.05.21.075.317.075z" fill="#0090A1"/></svg>