<svg width="55" height="58" viewBox="0 0 55 58" fill="none" xmlns="http://www.w3.org/2000/svg"><path fill-rule="evenodd" clip-rule="evenodd" d="M53.888 12.797L27.553.085a.85.85 0 00-.738 0L.48 12.797a.85.85 0 00-.48.766v30.874a.85.85 0 00.48.765l26.334 12.714a.85.85 0 00.74 0l26.334-12.714a.85.85 0 00.48-.765V13.563a.85.85 0 00-.48-.766zM27.184 1.793l24.38 11.77-7.067 3.411a.844.844 0 00-.144-.09L20.138 5.194l7.046-3.4zM18.22 6.155l24.344 11.752-4.986 2.407L13.244 8.567l4.976-2.412zm24.914 13.364v8.898l-4.658 2.248v-8.897l4.658-2.249zm9.535 24.385L28.034 55.797V26.809l5.876-2.837a.85.85 0 00-.74-1.53l-5.986 2.89-2.356-1.137a.85.85 0 10-.739 1.53l2.245 1.084v28.988L1.7 43.904V14.916l18.76 9.056a.846.846 0 001.134-.395.85.85 0 00-.396-1.135l-18.393-8.88 8.44-4.074 25.521 12.32a.138.138 0 00.007.01l.005.006v10.195a.85.85 0 001.22.765l6.356-3.069a.85.85 0 00.48-.765V18.7l7.836-3.783v28.988zM8.71 40.61l-3.865-1.866a.85.85 0 10-.739 1.53l3.865 1.866a.85.85 0 00.739-1.53zm-3.86-5.895l7.416 3.58a.85.85 0 01-.738 1.53l-7.416-3.58a.85.85 0 01.738-1.53z" fill="#0090A1"/></svg>