<svg width="56" height="58" viewBox="0 0 56 58" fill="none" xmlns="http://www.w3.org/2000/svg"><path fill-rule="evenodd" clip-rule="evenodd" d="M55.346 9.222L47.914.561a1.768 1.768 0 00-2.44-.135l-5.922 5.113a1.726 1.726 0 00-.597 1.189c-.034.463.114.911.418 1.263l.232.268-.382.33c-1.014.876-2.54 1.138-4.081.7l-.209-.059-.01-.002-4.23-1.2c-.8-.185-2.868-.479-4.843.796l-.212.121-.009.005c-1.583.906-11.131 6.371-11.16 6.39-1.032.673-2.471 2.355-1.31 4.392l.004.008.01.016c.496.81 1.213 1.293 2.05 1.427a3.074 3.074 0 005.391 1.886l4.195-4.846c.17-.197.312-.412.427-.643l.173-.072c.226.848.844 1.692 2.107 2.05.874.248 1.632.466 2.297.658 3.34.962 4.307 1.24 5.536 1.105 4.108-.44 5.05-.575 7.118-1.766a32.644 32.644 0 004.316-2.982l.252.293a1.738 1.738 0 002.452.18l5.637-4.868c.874-.755.973-2.08.222-2.956zM19.329 21.957c-.85.982-2.454.33-2.407-.943l5.02-2.076-2.613 3.019zm22.29-3.875c-1.76 1.013-2.352 1.11-6.434 1.547-.919.098-1.675-.119-4.812-1.021h-.001c-.678-.195-1.466-.422-2.392-.685-.667-.189-.842-.546-.915-.798a1.612 1.612 0 01-.036-.673l.002-.012.002-.01a.177.177 0 00.003-.012c0-.002.054-.23.2-.427.127-.17.317-.337.773-.274 1.45.2 4.704.635 5.36.723h.002l.113.015a.85.85 0 10.226-1.684c-.039-.005-3.864-.517-5.469-.738-1.502-.206-2.387.721-2.736 1.598l-1.24.51c-2.836 1.17-4.664 1.927-5.849 2.417-2.1.869-2.174.9-2.251.907l-.01.001c-.027.003-.063.006-.192.043-1.366.192-2.302-1.587-.584-2.733l11.334-6.488.003-.001a.936.936 0 00.04-.025c1.42-.924 2.93-.72 3.533-.582l4.39 1.245c2.092.593 4.206.2 5.654-1.05l.382-.33 4.958 5.742a30.916 30.916 0 01-4.053 2.795zm12.395-7.19l-.037.031c-.486.42-5.606 4.848-5.628 4.845-.033-.002-7.737-8.899-7.686-8.943l5.922-5.113a.061.061 0 01.073-.005l7.398 8.622a.4.4 0 01-.042.562zM40.792 36.855c-.102-2.74-3.56-4.002-5.39-1.886l-4.196 4.847a3.06 3.06 0 00-.427.643l-.173.071c-.226-.848-.844-1.692-2.107-2.05-.889-.252-1.654-.472-2.32-.663-3.504-1.007-4.22-1.213-5.496-1.1h-.016c-4.108.441-5.05.576-7.119 1.767a32.62 32.62 0 00-4.316 2.981l-.252-.292a1.74 1.74 0 00-2.452-.18L.583 46.128a1.682 1.682 0 00-.165 2.383l7.835 8.928c.586.668 1.606.752 2.272.189l.016-.013 5.922-5.114a1.737 1.737 0 00.18-2.452l-.232-.268.382-.33c1.014-.876 2.54-1.137 4.08-.7l3.94 1.117a.85.85 0 00.464-1.634l-3.94-1.118c-2.093-.594-4.207-.201-5.655 1.049l-.382.33-4.957-5.742a30.917 30.917 0 014.053-2.795c1.761-1.014 2.353-1.11 6.443-1.548.955-.083 1.552.089 4.816 1.026l.016.005c.435.125.81.229 1.136.318 1.575.434 1.965.542 2.143 1.156a1.612 1.612 0 01.036.673c-.042.183-.12.344-.207.461-.127.17-.318.337-.773.274-1.447-.199-4.692-.633-5.356-.722h-.005l-.114-.016a.85.85 0 10-.225 1.684c.038.005 3.863.517 5.468.738 1.327.183 2.311-.532 2.736-1.597.042-.017 8.556-3.527 8.597-3.547.898-.456 1.745-.56 2.28.298.615 1.1-.476 1.92-.75 2.103l-11.335 6.488-.015.01a4.322 4.322 0 01-.623.34.85.85 0 00.693 1.552 6.02 6.02 0 00.81-.438l.01-.007c.399-.228 11.336-6.488 11.368-6.509 3.082-2.006 1.6-5.466-.753-5.843zM15.356 51.16c.004.004.01.012.01.028-.002.024-5.168 4.478-5.809 5.03l-.065.057-7.785-8.872L7.64 42.28a.038.038 0 01.028-.009c.016.001.023.01.026.013l7.663 8.875zm18.717-12.057l2.613-3.02c.84-.97 2.454-.347 2.407.943l-5.02 2.077zm-5.855-12.056c-.554.014-1.024-.362-1.183-.642-1.16-2.043-4.255-1.182-4.253 1.124.004 3.058 2.754 5.498 5.406 6.81 1.883-.949 3.918-2.547 4.837-4.446a.85.85 0 111.53.74c-1.128 2.33-3.566 4.26-5.858 5.348a1.186 1.186 0 01-1.013.001c-3.189-1.505-6.597-4.515-6.601-8.451-.004-3.744 4.776-5.437 7.101-2.457 1.918-2.442 5.619-1.827 6.779.89a.85.85 0 01-1.563.667c-.683-1.6-2.973-1.997-4.068-.238-.23.37-.655.643-1.114.654z" fill="#0090A1"/></svg>