<svg width="98" height="102" viewBox="0 0 98 102" fill="none" xmlns="http://www.w3.org/2000/svg"><g filter="url(#filter0_d)" fill="#0EF5FF"><path fill-rule="evenodd" clip-rule="evenodd" d="M39.1 48.9a4.9 4.9 0 119.8 0 4.9 4.9 0 01-9.8 0zm1.4 0a3.5 3.5 0 107 0 3.5 3.5 0 00-7 0z"/><path d="M47.78 53.94a6.09 6.09 0 01-.52.35.7.7 0 10.724 1.198c.22-.132.432-.275.636-.428a.7.7 0 00-.84-1.12zm-7.436-10.172c-.35.25-.674.535-.967.85a.7.7 0 11-1.025-.951 7.805 7.805 0 011.177-1.038.7.7 0 01.815 1.14zm-2.588 4.289a.7.7 0 11-1.386-.186 7.73 7.73 0 01.365-1.528.7.7 0 011.32.465 6.248 6.248 0 00-.299 1.25zm.178 2.553a.7.7 0 10-1.347.378c.142.506.336.995.578 1.462a.7.7 0 001.243-.647 6.23 6.23 0 01-.474-1.194zm9.659-6.885a6.325 6.325 0 00-1.125-.622.7.7 0 01.551-1.288 7.68 7.68 0 011.374.762.7.7 0 11-.8 1.148zm-5.05-.975l-.007.003c.05 0 .1-.006.147-.017a6.38 6.38 0 011.278-.14.7.7 0 000-1.4 7.677 7.677 0 00-1.563.17.7.7 0 00.145 1.384zm2.301 12.393l-.003-.002a.7.7 0 01.189 1.387 7.654 7.654 0 01-1.572.05.7.7 0 11.103-1.393c.428.03.858.015 1.283-.042zm-3.746-.65a6.27 6.27 0 01-1.074-.706.7.7 0 10-.885 1.085c.407.333.847.622 1.313.864a.7.7 0 10.646-1.243zm9.796-8.276a.7.7 0 01-.594.329.7.7 0 01-.627-.395 6.387 6.387 0 00-.303-.552.7.7 0 011.19-.734c.134.218.258.444.37.675a.7.7 0 01-.036.677zm1.866 4.44a.7.7 0 00.99.99 7.008 7.008 0 019.9 0 .7.7 0 00.99-.99 8.408 8.408 0 00-11.88 0z"/><path d="M54.74 52.638A5.562 5.562 0 0158.7 51a5.562 5.562 0 013.96 1.638.7.7 0 11-.99.99 4.206 4.206 0 00-5.94 0 .7.7 0 11-.99-.99z"/><path d="M56.72 54.616a.7.7 0 00.99.99 1.4 1.4 0 011.98 0 .7.7 0 00.99-.99 2.8 2.8 0 00-3.96 0z"/><path fill-rule="evenodd" clip-rule="evenodd" d="M67.754 51.531a9.182 9.182 0 00-8.019-8.227.733.733 0 00-.078-.004H58V32.8a2.8 2.8 0 00-2.8-2.8H32.8a2.8 2.8 0 00-2.8 2.8v32.9a2.8 2.8 0 002.8 2.8h22.4a3.504 3.504 0 003.5 3.5 3.504 3.504 0 003.5-3.5v-3.695c.431-.248.698-.707.7-1.205v-.7a3.89 3.89 0 011.5-3.236 9.278 9.278 0 003.354-8.133zM31.4 32.8a1.4 1.4 0 011.4-1.4h22.4a1.4 1.4 0 011.4 1.4v1.4H31.4v-1.4zm0 2.8h25.2v7.899A9.269 9.269 0 0053 59.663a3.809 3.809 0 011.449 2.537H31.4V35.6zm23.8 29.205V67.1H32.8a1.4 1.4 0 01-1.4-1.4v-2.1h23.1c.002.498.269.957.7 1.205zm5.6 3.695a2.1 2.1 0 01-1.4 1.971V69.9a.7.7 0 10-1.4 0v.571a2.1 2.1 0 01-1.4-1.971v-.7h4.2v.7zm0-2.1h-4.2V65h4.2v1.4zm2.715-7.821a5.265 5.265 0 00-2.015 4.32v.7h-5.6v-.7a5.267 5.267 0 00-2.016-4.32 7.88 7.88 0 01-2.845-6.91 7.774 7.774 0 016.744-6.97h1.834a7.774 7.774 0 016.743 6.97 7.882 7.882 0 01-2.845 6.91z"/></g><defs><filter id="filter0_d" x="0" y="0" width="97.803" height="102" filterUnits="userSpaceOnUse" color-interpolation-filters="sRGB"><feFlood flood-opacity="0" result="BackgroundImageFix"/><feColorMatrix in="SourceAlpha" values="0 0 0 0 0 0 0 0 0 0 0 0 0 0 0 0 0 0 127 0"/><feOffset/><feGaussianBlur stdDeviation="15"/><feColorMatrix values="0 0 0 0 0.054902 0 0 0 0 0.960784 0 0 0 0 1 0 0 0 0.8 0"/><feBlend in2="BackgroundImageFix" result="effect1_dropShadow"/><feBlend in="SourceGraphic" in2="effect1_dropShadow" result="shape"/></filter></defs></svg>