<svg width="102" height="102" viewBox="0 0 102 102" fill="none" xmlns="http://www.w3.org/2000/svg"><g filter="url(#filter0_d)" fill="#0EF5FF"><path fill-rule="evenodd" clip-rule="evenodd" d="M50.974 42.598v.002H51a2.818 2.818 0 10-.026-.002zm-1.065-3.677h.003a1.389 1.389 0 011.091-.519 1.4 1.4 0 11-1.094.519zM41.9 52.4v-2.8a1.4 1.4 0 011.4-1.4h15.4a1.4 1.4 0 011.4 1.4v2.8a1.4 1.4 0 01-1.4 1.4H43.3a1.4 1.4 0 01-1.4-1.4zm16.8-2.8h-1.4v2.8h1.4v-2.8zm-2.8 0h-1.4v2.8h1.4v-2.8zm-2.8 0h-1.4v2.8h1.4v-2.8zm-2.8 0h-1.4v2.8h1.4v-2.8zm-2.8 0h-1.4v2.8h1.4v-2.8zm-4.2 2.8h1.4v-2.8h-1.4v2.8z"/><path d="M45.4 56.6h-3.5a.7.7 0 100 1.4h3.5a.7.7 0 100-1.4zm-3.5 2.8h3.5a.7.7 0 110 1.4h-3.5a.7.7 0 110-1.4zm14.7-2.8a.7.7 0 100 1.4h3.5a.7.7 0 000-1.4h-3.5zm0 2.8h3.5a.7.7 0 110 1.4h-3.5a.7.7 0 110-1.4z"/><path fill-rule="evenodd" clip-rule="evenodd" d="M53.693 59.465l.016.013c.427.36.788.792 1.068 1.276.494.943.558 2.053.176 3.046A4.2 4.2 0 0151 66.4a4.074 4.074 0 01-4.2-3.926 3.903 3.903 0 012.057-3.379.708.708 0 01.298-.086c.076-.733.33-1.436.74-2.049a5.01 5.01 0 011.906-1.685.7.7 0 01.98.845 3.058 3.058 0 00-.156.856v.122a3.208 3.208 0 001.068 2.367zM51 65a2.8 2.8 0 002.647-1.702 2.298 2.298 0 00-.11-1.896 3.66 3.66 0 00-.807-.923 4.61 4.61 0 01-1.487-2.99 3.12 3.12 0 00-.11 3.82.7.7 0 01-.901 1.023 3.346 3.346 0 01-1.415-1.442 2.363 2.363 0 00-.617 1.584A2.677 2.677 0 0051 65z"/><path fill-rule="evenodd" clip-rule="evenodd" d="M65.91 47.5h3.99c1.16 0 2.1.94 2.1 2.1v11.2a2.1 2.1 0 01-2.1 2.1h-3.976a16.787 16.787 0 01-29.848 0H32.1a2.1 2.1 0 01-2.1-2.1V49.6c0-1.16.94-2.1 2.1-2.1h3.99a16.842 16.842 0 015.515-6.218 24.995 24.995 0 01-2.674-2.681 1.39 1.39 0 010-1.803C40.281 35.204 45.143 30 51 30h.095c.29.001.579.019.867.052 5.42.52 9.83 5.24 11.108 6.746a1.39 1.39 0 010 1.803 25.023 25.023 0 01-2.673 2.681A16.842 16.842 0 0165.91 47.5zm-3.913-9.8a23.125 23.125 0 00-4.266-3.884 7.63 7.63 0 010 7.77 23.103 23.103 0 004.266-3.886zm-10.17-6.257a8.27 8.27 0 00-.782-.043 6.3 6.3 0 000 12.594c.263-.001.523-.019.782-.043a6.296 6.296 0 000-12.508zm-.826 36.374a12.6 12.6 0 005.565-23.904 12.67 12.67 0 01-4.604 1.435 8.1 8.1 0 01-.867.052H51a12.122 12.122 0 01-5.564-1.487 12.6 12.6 0 005.565 23.904zm-6.406-34.226A22.854 22.854 0 0040 37.703a22.961 22.961 0 004.595 4.107 7.637 7.637 0 010-8.219zM32.1 61.5h3.33a16.683 16.683 0 01.01-12.6H32.1a.7.7 0 00-.7.7v.7h.7a.7.7 0 110 1.4h-.7v1.4h.7a.7.7 0 110 1.4h-.7v1.4h.7a.7.7 0 010 1.4h-.7v1.4h.7a.7.7 0 010 1.4h-.7v.7a.7.7 0 00.7.7zM51 70.6a15.39 15.39 0 008.247-28.39c-.397.3-.813.596-1.253.88a14 14 0 11-13.988 0c-.44-.284-.856-.58-1.253-.88A15.39 15.39 0 0051 70.6zm18.9-20.3h.7v-.7a.7.7 0 00-.7-.7h-3.34a16.684 16.684 0 01.01 12.6h3.33a.7.7 0 00.7-.7v-.7h-.7a.7.7 0 110-1.4h.7v-1.4h-.7a.7.7 0 110-1.4h.7v-1.4h-.7a.7.7 0 110-1.4h.7v-1.4h-.7a.7.7 0 110-1.4z"/></g><defs><filter id="filter0_d" x="0" y="0" width="102" height="102" filterUnits="userSpaceOnUse" color-interpolation-filters="sRGB"><feFlood flood-opacity="0" result="BackgroundImageFix"/><feColorMatrix in="SourceAlpha" values="0 0 0 0 0 0 0 0 0 0 0 0 0 0 0 0 0 0 127 0"/><feOffset/><feGaussianBlur stdDeviation="15"/><feColorMatrix values="0 0 0 0 0.054902 0 0 0 0 0.960784 0 0 0 0 1 0 0 0 0.8 0"/><feBlend in2="BackgroundImageFix" result="effect1_dropShadow"/><feBlend in="SourceGraphic" in2="effect1_dropShadow" result="shape"/></filter></defs></svg>