<svg width="98" height="102" viewBox="0 0 98 102" fill="none" xmlns="http://www.w3.org/2000/svg"><g filter="url(#filter0_d)"><path fill-rule="evenodd" clip-rule="evenodd" d="M63.6 41.2a2.8 2.8 0 00-2.8-2.8H51v-4.9a3.504 3.504 0 00-3.5-3.5h-14a3.504 3.504 0 00-3.5 3.5v35a3.504 3.504 0 003.5 3.5h14a3.504 3.504 0 003.5-3.5V44h9.8a2.8 2.8 0 002.8-2.8zm-14 27.3a2.1 2.1 0 01-2.1 2.1h-14a2.1 2.1 0 01-2.1-2.1v-35c0-1.16.94-2.1 2.1-2.1h14c1.16 0 2.1.94 2.1 2.1v4.9h-4.27a5.53 5.53 0 00-4.83-2.8 5.6 5.6 0 100 11.2 5.53 5.53 0 004.83-2.8h4.27v24.5zM40.5 44h3.135a4.157 4.157 0 01-3.135 1.4 4.2 4.2 0 110-8.4 4.156 4.156 0 013.135 1.4H40.5a2.8 2.8 0 100 5.6zm0-1.4a1.4 1.4 0 110-2.8h20.3a1.4 1.4 0 010 2.8H40.5zm26.6 16.8h-9.8v-4.958a3.85 3.85 0 117.7 0v.758a.7.7 0 101.4 0v-.758a5.25 5.25 0 00-10.5 0V59.4h-.7a.7.7 0 00-.7.7v7.7a4.205 4.205 0 004.2 4.2h4.9a4.205 4.205 0 004.2-4.2v-7.7a.7.7 0 00-.7-.7zm-.7 8.4a2.8 2.8 0 01-2.8 2.8h-4.9a2.8 2.8 0 01-2.8-2.8v-7h10.5v7zm-7.667-3.5h4.834a.7.7 0 100-1.4h-4.834a.7.7 0 100 1.4zm4.834 3.5h-4.834a.7.7 0 110-1.4h4.834a.7.7 0 110 1.4zM38.43 56.935a2.1 2.1 0 112.77 2.335v2.23a.7.7 0 01-1.4 0v-2.23a2.1 2.1 0 01-1.37-2.335zm1.37.365a.7.7 0 101.4 0 .7.7 0 00-1.4 0z" fill="#0EF5FF"/></g><defs><filter id="filter0_d" x="0" y="0" width="97.8" height="102" filterUnits="userSpaceOnUse" color-interpolation-filters="sRGB"><feFlood flood-opacity="0" result="BackgroundImageFix"/><feColorMatrix in="SourceAlpha" values="0 0 0 0 0 0 0 0 0 0 0 0 0 0 0 0 0 0 127 0"/><feOffset/><feGaussianBlur stdDeviation="15"/><feColorMatrix values="0 0 0 0 0.054902 0 0 0 0 0.960784 0 0 0 0 1 0 0 0 0.8 0"/><feBlend in2="BackgroundImageFix" result="effect1_dropShadow"/><feBlend in="SourceGraphic" in2="effect1_dropShadow" result="shape"/></filter></defs></svg>