<svg width="54" height="60" viewBox="0 0 54 60" fill="none" xmlns="http://www.w3.org/2000/svg"><path fill-rule="evenodd" clip-rule="evenodd" d="M48 16a4 4 0 00-4-4H30V5a5.006 5.006 0 00-5-5H5a5.006 5.006 0 00-5 5v50a5.006 5.006 0 005 5h20a5.006 5.006 0 005-5V20h14a4 4 0 004-4zM28 55a3 3 0 01-3 3H5a3 3 0 01-3-3V5a3 3 0 013-3h20a3 3 0 013 3v7h-6.1A7.9 7.9 0 0015 8a8 8 0 100 16 7.9 7.9 0 006.9-4H28v35zM15 20h4.478A5.94 5.94 0 0115 22a6 6 0 110-12 5.935 5.935 0 014.478 2H15a4 4 0 000 8zm0-2a2 2 0 010-4h29a2 2 0 110 4H15zm0 17.986a3 3 0 00-1 5.829V45a1 1 0 102 0v-3.185a3 3 0 00-1-5.828zM15 40a1 1 0 110-2 1 1 0 010 2zm31.967-8.167a1 1 0 011.397 0 18.858 18.858 0 010 26.878 1 1 0 01-1.4 0L44.1 55.883a1 1 0 010-1.423 12.894 12.894 0 000-18.377 1 1 0 010-1.422l2.867-2.828zM46.2 55.148l1.447 1.425c5.8-6.419 5.799-16.186-.002-22.604L46.2 35.396a14.889 14.889 0 010 19.752zm-3.555-17.66a1 1 0 00-1.406 0l-2.864 2.83a1 1 0 000 1.423 4.95 4.95 0 010 7.062 1 1 0 00-.299.712 1 1 0 00.3.71l2.864 2.829a1 1 0 001.405 0 10.922 10.922 0 000-15.565zM41.9 50.9l-1.454-1.436a6.952 6.952 0 000-8.384h.002l1.452-1.437a8.92 8.92 0 010 11.257zM32 45.544a3 3 0 116 0 3 3 0 01-6 0zm2 0a1 1 0 102 0 1 1 0 00-2 0z" fill="#0090A1"/></svg>