<svg width="58" height="58" viewBox="0 0 58 58" fill="none" xmlns="http://www.w3.org/2000/svg"><path fill-rule="evenodd" clip-rule="evenodd" d="M48.333 39.458V43.1l6.484 6.483a.969.969 0 01.283.684v3.866h-1.933v-3.466l-6.484-6.484a.964.964 0 01-.283-.683v-3.867h-3.867v5.4l4.55 4.55a.966.966 0 01.284.684v3.866h-1.934v-3.466l-4.55-4.55a.964.964 0 01-.283-.684v-5.8h-4.833v7.334l2.616 2.616a.966.966 0 01.284.684v3.866h-1.934v-3.466l-2.616-2.617a.964.964 0 01-.284-.683v-7.734h-3.866v14.5h-1.934v-14.5h-3.866v7.734a.964.964 0 01-.284.683l-2.616 2.617v3.466h-1.934v-3.866c0-.257.102-.503.284-.684l2.616-2.616v-7.334H17.4v5.8a.964.964 0 01-.283.684l-4.55 4.55v3.466h-1.934v-3.866c0-.257.102-.503.284-.684l4.55-4.55v-5.4h-2.9c-.327 0-.647-.024-.967-.049V43.5a.964.964 0 01-.283.683l-6.484 6.484v3.466H2.9v-3.866c0-.257.102-.503.283-.684L9.667 43.1v-3.818C4.133 37.968 0 32.996 0 27.067c0-6.262 4.634-11.525 10.732-12.42a13.005 13.005 0 01-.099-1.597C10.633 5.854 16.488 0 23.683 0c7.034 0 12.787 5.594 13.042 12.567h.008a5.809 5.809 0 015.67 4.58 11.442 11.442 0 013.997-.714c6.396 0 11.6 5.204 11.6 11.6 0 5.736-4.19 10.501-9.667 11.425zm-46.4-12.391c0 5.862 4.77 10.633 10.634 10.633H46.4c5.33 0 9.667-4.337 9.667-9.667s-4.337-9.666-9.667-9.666a9.57 9.57 0 00-4.414 1.073.968.968 0 01-1.408-.91c.002-.029.015-.15.02-.18.001-2.376-2.231-4.277-4.662-3.766a.966.966 0 01-1.165-.992l.014-.22a4.39 4.39 0 00.015-.322c0-6.13-4.987-11.117-11.117-11.117-6.13 0-11.116 4.987-11.116 11.117 0 .757.077 1.517.23 2.258a.966.966 0 01-.888 1.16c-5.594.342-9.976 4.999-9.976 10.599zm24.49-21.764a8.182 8.182 0 00-2.74-.47v1.934c.719 0 1.423.12 2.094.358l.646-1.822zm-5.48 0a8.236 8.236 0 00-5.476 7.747H17.4a6.3 6.3 0 014.19-5.925l-.646-1.822zm32.224 50.764H55.1V58h-1.933v-1.933zm-5.8 0h-1.934V58h1.934v-1.933zm-8.7 0V58h-1.934v-1.933h1.934zm-33.834 0H2.9V58h1.933v-1.933zm5.8 0h1.934V58h-1.934v-1.933zm10.634 0h-1.934V58h1.934v-1.933zm6.766 0h1.934V58h-1.934v-1.933zm-1.933-34.8h-1.933V23.2H26.1v-1.933zm-1.933 3.866H26.1v1.934h-1.933v-1.934zM26.1 29h-1.933v1.933H26.1V29zm1.933-5.8v-1.933h1.934V23.2h-1.934zm1.934 3.867v-1.934h-1.934v1.934h1.934zm-1.934 3.866V29h1.934v1.933h-1.934zm5.8-9.666H31.9V23.2h1.933v-1.933zM31.9 25.133h1.933v1.934H31.9v-1.934zM33.833 29H31.9v1.933h1.933V29zm1.934-.967v4.834H31.9V34.8h4.833a.966.966 0 00.967-.967v-5.8h-1.933zM21.267 17.4h5.8v1.933h-4.834v4.834H20.3v-5.8c0-.534.432-.967.967-.967zm10.633 0H29v1.933h2.9V17.4zm4.833 0h-2.9v1.933h1.934V26.1H37.7v-7.733a.966.966 0 00-.967-.967zM26.1 34.8v-1.933h3.867V34.8H26.1zm-5.8-8.7h1.933v6.767h1.934V34.8h-2.9a.966.966 0 01-.967-.967V26.1z" fill="#0090A1"/></svg>