<svg width="68" height="56" viewBox="0 0 68 56" fill="none" xmlns="http://www.w3.org/2000/svg"><path fill-rule="evenodd" clip-rule="evenodd" d="M67.586 22.085c0-.665-.442-1.773-2.43-2.438L12.149.362C9.498-.746 6.405.805 5.522 3.465l-1.546 3.99-3.313 8.867c-.884 2.66.441 5.763 3.092 6.65l15.46 5.541c-.22 1.774.221 3.547 1.326 4.877l-3.313 9.088a1.214 1.214 0 01-1.105.665H6.405V40.04c0-1.773-1.325-3.103-3.092-3.103H1.104C.442 36.937 0 37.38 0 38.045v16.847C0 55.557.442 56 1.104 56h2.21c1.766 0 3.091-1.33 3.091-3.103v-3.104h9.718c3.093 0 5.743-1.995 6.848-4.876l3.313-8.867c1.767-.222 3.534-1.33 4.638-3.103l18.111 6.65c.663.221 1.105.221 1.767.221 1.767 0 3.534-.886 4.418-2.438l1.987.665c.221 0 .442.222.663.222.22 0 .663 0 .883-.222a2.666 2.666 0 001.105-1.108l2.871-7.98c.442-.887 0-1.995-.883-2.439l3.313-1.551c2.208-1.109 2.43-2.217 2.43-2.882zM4.638 52.897c0 .665-.442 1.108-1.104 1.108H2.43V39.153h1.104c.662 0 1.104.444 1.104 1.109v12.635zm16.566-8.645c-.663 1.995-2.65 3.546-4.86 3.546H6.626v-1.995h9.718c1.326 0 2.43-.886 2.872-1.995l3.092-8.201c.442.221.662.443 1.104.443.221 0 .442.222.884.222l-3.093 7.98zm4.417-10.419c-.663 0-1.104 0-1.546-.221-.663-.222-1.104-.444-1.546-.887l-.221-.222c-.884-.886-1.105-1.995-1.105-3.103l7.51 2.66c-.663 1.33-1.767 1.773-3.092 1.773zm35.34-5.541l-2.872 7.98-1.988-.665 2.65-7.537.663-.222 1.546.444zm3.533-5.32l-5.522 2.66-1.325.665-1.546.665c-1.767.886-5.08.886-6.847.221l-34.54-12.191c-.442-.222-1.104 0-1.325.665-.221.665 0 1.108.662 1.33l34.54 12.191c1.105.444 2.43.665 3.755.665 1.546 0 2.872-.221 4.197-.665l-2.43 6.65c-.662 1.552-2.43 2.439-3.975 1.995L5.08 21.42c-1.546-.665-2.43-2.438-1.988-3.99l1.767-4.877c.663.887 1.546 1.552 2.65 1.995l1.105.444c.442.221 1.104 0 1.325-.665.221-.444 0-1.108-.662-1.33l-.884-.444c-1.546-.665-2.43-2.438-1.988-3.99l.442-.886L7.95 4.795c.663-1.551 2.43-2.438 3.976-1.995l53.009 19.285c.662.222.883.444.883.665-.442-.443-.662-.222-1.325.222z" fill="#0090A1"/></svg>