<svg width="184" height="63" viewBox="0 0 184 63" fill="none" xmlns="http://www.w3.org/2000/svg"><g filter="url(#filter0_d)"><path d="M56.606 16.934h-6.934V10a6.934 6.934 0 016.934 6.934z" fill="#0EF5FF"/></g><path d="M49.713 20.466h6.977v35.177h-6.977V20.466zm13.954 0h6.977v35.177h-6.977V20.466zm-27.909 0h6.977v35.177a6.977 6.977 0 01-6.977 6.977V20.466zm-13.954 0h6.977v35.177h-6.977V20.466z" fill="#fff"/><path fill-rule="evenodd" clip-rule="evenodd" d="M77.33 26.862h-6.686v-6.396h6.687c8.349 0 15.117 6.768 15.117 15.117v20.06h-1.163a5.814 5.814 0 01-5.814-5.815V35.002a8.14 8.14 0 00-8.14-8.14zM15.117 49.247h6.687v6.395h-6.687C6.768 55.642 0 48.874 0 40.525v-20.06h1.163a5.814 5.814 0 015.814 5.815v14.827a8.14 8.14 0 008.14 8.14z" fill="#fff"/><path d="M104.249 44.688c-.589 0-1.095-.087-1.516-.26-.422-.174-.742-.4-.959-.68a1.642 1.642 0 01-.335-.93.18.18 0 01.056-.13.206.206 0 01.149-.065h1.172c.075 0 .134.016.177.047a.51.51 0 01.149.12c.08.162.211.295.391.4.179.106.418.159.716.159.353 0 .623-.056.809-.168.186-.111.279-.263.279-.456a.423.423 0 00-.149-.335c-.093-.086-.241-.164-.446-.232a9.296 9.296 0 00-.912-.233c-.744-.155-1.302-.381-1.674-.679-.366-.304-.549-.735-.549-1.293 0-.378.105-.716.316-1.014.211-.298.512-.53.903-.698.39-.167.846-.25 1.367-.25.54 0 1.008.092 1.405.278.397.186.698.422.902.707.211.28.323.555.335.828a.19.19 0 01-.195.196h-1.228a.41.41 0 01-.186-.038.366.366 0 01-.121-.12c-.037-.143-.14-.264-.307-.363a1.136 1.136 0 00-.605-.15c-.279 0-.493.05-.642.15a.491.491 0 00-.223.437c0 .13.04.239.121.326.087.086.223.167.409.241.192.069.465.14.819.214.577.106 1.036.24 1.377.4.347.155.601.36.762.614.162.248.242.562.242.94 0 .415-.121.778-.362 1.088-.236.304-.568.54-.996.707-.422.162-.905.242-1.451.242zm4.438-.093a.246.246 0 01-.167-.065.245.245 0 01-.065-.167v-6.047c0-.069.021-.124.065-.168a.246.246 0 01.167-.065h4.345c.068 0 .124.022.167.065.044.044.065.1.065.168v.874a.245.245 0 01-.065.168.225.225 0 01-.167.065h-2.968v1.256h2.763a.21.21 0 01.167.074c.044.044.066.1.066.168v.809a.246.246 0 01-.066.167.225.225 0 01-.167.066h-2.763v1.293h3.042a.23.23 0 01.168.065.227.227 0 01.065.167v.875a.25.25 0 01-.065.167.23.23 0 01-.168.065h-4.419zm6.407 0a.25.25 0 01-.168-.065.25.25 0 01-.065-.167v-6.047a.23.23 0 01.065-.168.25.25 0 01.168-.065h.986c.155 0 .26.06.316.177l2.27 3.572v-3.516a.23.23 0 01.065-.168.25.25 0 01.168-.065h1.116a.23.23 0 01.168.065.23.23 0 01.065.168v6.037a.261.261 0 01-.065.177.23.23 0 01-.168.065h-.995a.332.332 0 01-.307-.176l-2.27-3.443v3.387a.25.25 0 01-.065.167.23.23 0 01-.168.065h-1.116zm9.347.093c-.589 0-1.095-.087-1.516-.26-.422-.174-.742-.4-.959-.68a1.641 1.641 0 01-.334-.93c0-.05.018-.093.055-.13a.206.206 0 01.149-.065h1.172c.075 0 .134.016.177.047a.51.51 0 01.149.12.969.969 0 00.391.4c.18.106.418.159.716.159.354 0 .623-.056.809-.168.186-.111.279-.263.279-.456a.425.425 0 00-.148-.335c-.093-.086-.242-.164-.447-.232a9.296 9.296 0 00-.912-.233c-.744-.155-1.302-.381-1.674-.679-.366-.304-.549-.735-.549-1.293 0-.378.105-.716.316-1.014.211-.298.512-.53.903-.698.39-.167.846-.25 1.367-.25.54 0 1.008.092 1.405.278.397.186.698.422.902.707.211.28.323.555.335.828a.187.187 0 01-.056.14.188.188 0 01-.139.056h-1.228a.41.41 0 01-.186-.038.366.366 0 01-.121-.12c-.037-.143-.14-.264-.307-.363a1.136 1.136 0 00-.605-.15c-.279 0-.493.05-.642.15a.491.491 0 00-.223.437c0 .13.04.239.121.326.087.086.223.167.409.241.193.069.465.14.819.214.577.106 1.036.24 1.377.4.347.155.601.36.763.614.161.248.241.562.241.94 0 .415-.12.778-.362 1.088-.236.304-.568.54-.996.707-.421.162-.905.242-1.451.242zm4.438-.093a.246.246 0 01-.167-.065.245.245 0 01-.065-.167v-6.047c0-.069.021-.124.065-.168a.246.246 0 01.167-.065h4.345c.068 0 .124.022.167.065.044.044.065.1.065.168v.874a.245.245 0 01-.065.168.225.225 0 01-.167.065h-2.968v1.256h2.763c.068 0 .124.024.168.074a.23.23 0 01.065.168v.809a.25.25 0 01-.065.167.23.23 0 01-.168.066h-2.763v1.293h3.042a.23.23 0 01.168.065.227.227 0 01.065.167v.875a.25.25 0 01-.065.167.23.23 0 01-.168.065h-4.419zm-24.398 11.141c-.874 0-1.562-.214-2.065-.642-.502-.428-.769-1.058-.8-1.889-.006-.18-.009-.446-.009-.8 0-.36.003-.63.009-.81.031-.818.301-1.447.81-1.888.514-.446 1.2-.67 2.055-.67.856 0 1.542.224 2.056.67.515.44.785 1.07.81 1.889.012.36.018.63.018.81 0 .173-.006.44-.018.8-.031.83-.298 1.46-.8 1.888-.503.428-1.191.642-2.066.642zm0-1.34c.342 0 .611-.102.81-.307.204-.205.313-.518.325-.94.013-.36.019-.614.019-.763 0-.16-.006-.415-.019-.762-.012-.422-.121-.735-.325-.94-.205-.205-.475-.307-.81-.307-.334 0-.604.102-.809.307-.198.205-.307.518-.326.94-.006.173-.009.427-.009.762 0 .33.003.583.009.763.019.422.128.735.326.94.199.205.468.307.809.307zm4.66 1.246a.247.247 0 01-.167-.065.25.25 0 01-.065-.167v-6.047c0-.068.022-.124.065-.167a.247.247 0 01.167-.066h4.28a.225.225 0 01.232.233v.94a.245.245 0 01-.065.167.225.225 0 01-.167.065h-2.875v1.368h2.689c.068 0 .124.025.167.074.044.044.065.1.065.168v.93a.245.245 0 01-.065.167.225.225 0 01-.167.065h-2.689v2.103a.228.228 0 01-.065.167.225.225 0 01-.167.066h-1.173zm9.74 0a.246.246 0 01-.167-.065.245.245 0 01-.065-.167v-4.82h-1.656a.25.25 0 01-.168-.065.25.25 0 01-.065-.168v-.995c0-.068.022-.124.065-.167a.25.25 0 01.168-.066h5.005a.225.225 0 01.232.233v.995a.224.224 0 01-.065.168.225.225 0 01-.167.065h-1.656v4.819a.25.25 0 01-.065.167.228.228 0 01-.168.066h-1.228zm4.893 0a.25.25 0 01-.168-.065.25.25 0 01-.065-.167v-6.047c0-.068.022-.124.065-.167a.25.25 0 01.168-.066h4.344a.23.23 0 01.168.066.227.227 0 01.065.167v.874a.25.25 0 01-.065.168.23.23 0 01-.168.065h-2.968v1.256h2.763c.069 0 .124.025.168.074a.23.23 0 01.065.168v.81a.25.25 0 01-.065.167.228.228 0 01-.168.065h-2.763v1.293h3.042c.069 0 .125.022.168.065.043.043.065.1.065.167v.875a.25.25 0 01-.065.167.226.226 0 01-.168.066h-4.418zm8.789.094c-.887 0-1.581-.214-2.084-.642-.496-.434-.759-1.06-.79-1.88a22.42 22.42 0 01-.01-.818c0-.385.003-.664.01-.837.031-.807.3-1.427.809-1.861.508-.44 1.197-.66 2.065-.66a3.68 3.68 0 011.47.279c.434.18.775.44 1.023.78.255.336.385.73.391 1.182v.019c0 .05-.022.093-.065.13a.197.197 0 01-.13.047h-1.256a.315.315 0 01-.186-.047.432.432 0 01-.112-.195c-.087-.316-.223-.537-.409-.66-.186-.13-.431-.196-.735-.196-.732 0-1.11.41-1.135 1.228a23.83 23.83 0 00-.009.772c0 .347.003.611.009.79.025.82.403 1.229 1.135 1.229.304 0 .552-.065.744-.196.192-.136.326-.356.4-.66.025-.093.059-.155.102-.186.044-.037.109-.056.196-.056h1.256a.19.19 0 01.139.056.151.151 0 01.056.14 1.98 1.98 0 01-.391 1.19 2.43 2.43 0 01-1.023.782c-.434.18-.924.27-1.47.27zm4.56-.094a.23.23 0 01-.168-.065.228.228 0 01-.065-.167v-6.047c0-.068.022-.124.065-.167a.25.25 0 01.168-.066h1.2c.068 0 .124.022.167.066a.21.21 0 01.075.167v2.242h2.288v-2.242a.225.225 0 01.233-.233h1.2a.23.23 0 01.168.066.227.227 0 01.065.167v6.047a.228.228 0 01-.065.167.23.23 0 01-.168.066h-1.2a.225.225 0 01-.233-.233v-2.316h-2.288v2.316a.212.212 0 01-.075.167.225.225 0 01-.167.066h-1.2zm7.397 0a.25.25 0 01-.168-.065.25.25 0 01-.065-.167v-6.047c0-.068.022-.124.065-.167a.25.25 0 01.168-.066h.986c.155 0 .26.06.316.177l2.27 3.572v-3.516c0-.068.022-.124.065-.167a.25.25 0 01.168-.066h1.116a.23.23 0 01.168.066.227.227 0 01.065.167v6.038a.262.262 0 01-.065.176.23.23 0 01-.168.066h-.995a.332.332 0 01-.307-.177l-2.27-3.442v3.386a.25.25 0 01-.065.167.23.23 0 01-.168.066h-1.116zm9.58.094c-.875 0-1.563-.214-2.066-.642-.502-.428-.769-1.058-.8-1.889-.006-.18-.009-.446-.009-.8 0-.36.003-.63.009-.81.031-.818.301-1.447.81-1.888.514-.446 1.2-.67 2.056-.67.855 0 1.541.224 2.056.67.514.44.784 1.07.809 1.889.012.36.019.63.019.81 0 .173-.007.44-.019.8-.031.83-.298 1.46-.8 1.888-.503.428-1.191.642-2.065.642zm0-1.34c.341 0 .61-.102.809-.307.205-.205.313-.518.326-.94.012-.36.018-.614.018-.763 0-.16-.006-.415-.018-.762-.013-.422-.121-.735-.326-.94-.205-.205-.474-.307-.809-.307-.335 0-.605.102-.81.307-.198.205-.307.518-.325.94-.007.173-.01.427-.01.762 0 .33.003.583.01.763.018.422.127.735.325.94.199.205.468.307.81.307zm4.66 1.246a.25.25 0 01-.168-.065.25.25 0 01-.065-.167v-6.047c0-.068.022-.124.065-.167a.25.25 0 01.168-.066h1.228a.224.224 0 01.232.233v4.875h2.819c.068 0 .124.025.167.074.044.044.066.1.066.168v.93a.246.246 0 01-.066.167.225.225 0 01-.167.066h-4.279zm8.362.094c-.875 0-1.563-.214-2.065-.642-.503-.428-.769-1.058-.8-1.889a22.64 22.64 0 01-.01-.8c0-.36.003-.63.01-.81.031-.818.3-1.447.809-1.888.515-.446 1.2-.67 2.056-.67.856 0 1.541.224 2.056.67.515.44.784 1.07.809 1.889.013.36.019.63.019.81 0 .173-.006.44-.019.8-.031.83-.297 1.46-.8 1.888-.502.428-1.191.642-2.065.642zm0-1.34c.341 0 .611-.102.809-.307.205-.205.313-.518.326-.94.012-.36.018-.614.018-.763 0-.16-.006-.415-.018-.762-.013-.422-.121-.735-.326-.94-.204-.205-.474-.307-.809-.307-.335 0-.605.102-.809.307-.199.205-.307.518-.326.94-.006.173-.009.427-.009.762 0 .33.003.583.009.763.019.422.127.735.326.94.198.205.468.307.809.307zm7.116 1.34c-.893 0-1.591-.218-2.093-.652-.503-.44-.769-1.063-.8-1.87-.007-.18-.01-.465-.01-.855 0-.391.003-.677.01-.856.031-.788.3-1.396.809-1.824.515-.428 1.209-.642 2.084-.642.589 0 1.101.096 1.535.289.44.192.775.437 1.005.735.235.297.359.604.372.92a.178.178 0 01-.065.14.191.191 0 01-.14.056h-1.358a.335.335 0 01-.149-.028.219.219 0 01-.093-.102 1.187 1.187 0 00-.382-.465c-.173-.137-.415-.205-.725-.205-.738 0-1.126.39-1.163 1.172-.006.174-.009.444-.009.81 0 .36.003.629.009.809.037.819.434 1.228 1.191 1.228.366 0 .657-.093.874-.28.224-.191.335-.483.335-.874v-.176h-.874a.227.227 0 01-.168-.066.261.261 0 01-.065-.176v-.689c0-.068.022-.124.065-.167a.213.213 0 01.168-.075h2.344a.21.21 0 01.167.075c.044.043.066.1.066.167v1.06c0 .528-.121.984-.363 1.368-.242.379-.586.67-1.033.875-.44.198-.955.297-1.544.297zm6.134-.094a.25.25 0 01-.168-.065.25.25 0 01-.065-.167v-2l-2.158-3.982a.488.488 0 01-.028-.102.18.18 0 01.056-.13.204.204 0 01.149-.066h1.163c.124 0 .232.066.325.196l1.331 2.4 1.339-2.4a.356.356 0 01.326-.196h1.163c.055 0 .102.022.139.066a.18.18 0 01.056.13.31.31 0 01-.019.102l-2.158 3.982v2a.214.214 0 01-.074.167.23.23 0 01-.168.066h-1.209z" fill="#fff"/><defs><filter id="filter0_d" x="39.672" y="0" width="26.934" height="26.934" filterUnits="userSpaceOnUse" color-interpolation-filters="sRGB"><feFlood flood-opacity="0" result="BackgroundImageFix"/><feColorMatrix in="SourceAlpha" values="0 0 0 0 0 0 0 0 0 0 0 0 0 0 0 0 0 0 127 0"/><feOffset/><feGaussianBlur stdDeviation="5"/><feColorMatrix values="0 0 0 0 0.054902 0 0 0 0 0.960784 0 0 0 0 1 0 0 0 0.8 0"/><feBlend in2="BackgroundImageFix" result="effect1_dropShadow"/><feBlend in="SourceGraphic" in2="effect1_dropShadow" result="shape"/></filter></defs></svg>