<svg width="273" height="78" viewBox="0 0 273 78" fill="none" xmlns="http://www.w3.org/2000/svg"><path d="M83.909 10.279H73.63V0c5.677 0 10.28 4.602 10.28 10.279z" fill="#0EF5FF"/><path d="M73.69 15.514h10.343v52.143H73.691V15.514zm20.686 0h10.342v52.143H94.376V15.514zm-41.37 0h10.342v52.143C63.348 73.37 58.718 78 53.006 78V15.514zm-20.686 0h10.343v52.143H32.32V15.514z" fill="#fff"/><path fill-rule="evenodd" clip-rule="evenodd" d="M114.63 24.994h-9.912v-9.48h9.912c12.376 0 22.409 10.033 22.409 22.409v29.734h-1.724a8.619 8.619 0 01-8.619-8.618V37.06c0-6.664-5.402-12.067-12.066-12.067zM22.409 58.177h9.911v9.48h-9.91C10.033 67.657 0 57.625 0 45.25V15.514h1.724a8.619 8.619 0 018.618 8.619V46.11c0 6.664 5.403 12.066 12.067 12.066z" fill="#fff"/><path d="M154.532 51.42c-.874 0-1.623-.13-2.248-.387-.625-.257-1.099-.593-1.421-1.006a2.43 2.43 0 01-.496-1.38c0-.073.028-.137.083-.192a.303.303 0 01.22-.097h1.738c.11 0 .198.023.262.07a.773.773 0 01.221.178c.119.24.312.437.579.593.266.157.62.235 1.062.235.524 0 .923-.083 1.199-.248.276-.166.414-.391.414-.676a.63.63 0 00-.221-.497c-.138-.128-.358-.243-.662-.344a13.657 13.657 0 00-1.351-.345c-1.103-.23-1.931-.566-2.482-1.007-.543-.45-.814-1.09-.814-1.917 0-.56.156-1.061.469-1.503.313-.441.758-.786 1.338-1.034.579-.248 1.255-.372 2.027-.372.8 0 1.494.138 2.082.413.588.276 1.034.626 1.338 1.048.312.414.478.823.496 1.228a.277.277 0 01-.083.207.28.28 0 01-.206.082h-1.821a.617.617 0 01-.276-.055.555.555 0 01-.179-.18c-.055-.21-.207-.39-.455-.537-.239-.147-.538-.22-.896-.22-.414 0-.731.073-.952.22-.22.147-.331.363-.331.648 0 .193.06.354.18.483.128.129.331.248.606.358.285.102.69.207 1.214.318.855.156 1.535.354 2.041.593.515.23.892.533 1.131.91.239.367.358.832.358 1.393 0 .616-.179 1.153-.538 1.613-.349.45-.841.8-1.475 1.048-.625.24-1.342.359-2.151.359zm6.579-.138a.37.37 0 01-.249-.097.368.368 0 01-.096-.248v-8.964c0-.1.032-.184.096-.248a.37.37 0 01.249-.096h6.44c.101 0 .183.032.248.096a.337.337 0 01.096.248v1.297a.368.368 0 01-.096.248.337.337 0 01-.248.096h-4.399v1.862h4.095c.101 0 .184.037.248.11a.334.334 0 01.097.249v1.2a.365.365 0 01-.097.248.335.335 0 01-.248.096h-4.095v1.917h4.509c.101 0 .184.032.248.096a.338.338 0 01.097.249v1.296a.37.37 0 01-.097.248.335.335 0 01-.248.097h-6.55zm9.496 0a.367.367 0 01-.248-.097.368.368 0 01-.096-.248v-8.964c0-.1.032-.184.096-.248a.367.367 0 01.248-.096h1.462c.23 0 .386.087.469.262l3.365 5.295v-5.213c0-.1.032-.184.096-.248a.37.37 0 01.249-.096h1.654a.34.34 0 01.249.096.337.337 0 01.096.248v8.95a.386.386 0 01-.096.262.339.339 0 01-.249.097h-1.475a.493.493 0 01-.455-.262l-3.365-5.103v5.02a.364.364 0 01-.097.248.335.335 0 01-.248.097h-1.655zm13.856.138c-.873 0-1.623-.13-2.248-.387-.625-.257-1.098-.593-1.42-1.006a2.431 2.431 0 01-.497-1.38c0-.073.028-.137.083-.192a.304.304 0 01.221-.097h1.737c.111 0 .198.023.262.07a.76.76 0 01.221.178c.119.24.313.437.579.593.267.157.621.235 1.062.235.524 0 .924-.083 1.2-.248.276-.166.413-.391.413-.676a.63.63 0 00-.22-.497c-.138-.128-.359-.243-.662-.344a13.768 13.768 0 00-1.352-.345c-1.103-.23-1.93-.566-2.482-1.007-.542-.45-.813-1.09-.813-1.917 0-.56.156-1.061.468-1.503.313-.441.759-.786 1.338-1.034.579-.248 1.255-.372 2.027-.372.8 0 1.494.138 2.083.413.588.276 1.034.626 1.337 1.048.313.414.478.823.497 1.228a.281.281 0 01-.29.29h-1.82a.61.61 0 01-.276-.056.555.555 0 01-.179-.18c-.055-.21-.207-.39-.455-.537-.239-.147-.538-.22-.897-.22-.413 0-.731.073-.951.22-.221.147-.331.363-.331.648 0 .193.06.354.179.483.129.129.331.248.607.358.285.102.689.207 1.213.318.855.156 1.536.354 2.041.593.515.23.892.533 1.131.91.239.367.359.832.359 1.393a2.55 2.55 0 01-.538 1.613c-.35.45-.841.8-1.476 1.048-.625.24-1.342.359-2.151.359zm6.579-.138a.365.365 0 01-.248-.097.364.364 0 01-.097-.248v-8.964c0-.1.032-.184.097-.248a.365.365 0 01.248-.096h6.44c.101 0 .184.032.248.096a.334.334 0 01.097.248v1.297a.365.365 0 01-.097.248.335.335 0 01-.248.096h-4.399v1.862h4.096c.101 0 .183.037.248.11a.337.337 0 01.096.249v1.2a.368.368 0 01-.096.248.337.337 0 01-.248.096h-4.096v1.917h4.509a.34.34 0 01.249.096.337.337 0 01.096.249v1.296a.368.368 0 01-.096.248.339.339 0 01-.249.097h-6.55zm-36.166 16.513c-1.296 0-2.316-.317-3.061-.951-.745-.635-1.14-1.568-1.186-2.8a37.922 37.922 0 01-.014-1.186c0-.533.005-.933.014-1.2.046-1.213.446-2.146 1.2-2.799.763-.662 1.779-.993 3.047-.993 1.269 0 2.285.331 3.048.993.763.653 1.163 1.586 1.2 2.8.018.533.027.933.027 1.2 0 .257-.009.652-.027 1.185-.046 1.232-.442 2.165-1.186 2.8-.745.634-1.765.951-3.062.951zm0-1.986c.506 0 .906-.151 1.2-.455.303-.303.464-.767.483-1.392.018-.534.027-.91.027-1.131 0-.24-.009-.616-.027-1.13-.019-.626-.18-1.09-.483-1.394-.303-.303-.703-.455-1.2-.455-.496 0-.896.152-1.199.455-.295.304-.456.768-.483 1.393a34.75 34.75 0 00-.014 1.13c0 .488.005.865.014 1.132.027.625.188 1.089.483 1.392.294.304.694.456 1.199.456zm6.908 1.848a.365.365 0 01-.248-.096.364.364 0 01-.097-.248v-8.964c0-.101.032-.184.097-.248a.365.365 0 01.248-.097h6.343c.101 0 .184.032.249.097a.337.337 0 01.096.248v1.393a.368.368 0 01-.096.248.34.34 0 01-.249.097h-4.261v2.027h3.986c.101 0 .183.037.248.11a.337.337 0 01.096.248v1.38a.368.368 0 01-.096.248.337.337 0 01-.248.096h-3.986v3.117a.337.337 0 01-.096.248.337.337 0 01-.249.096h-1.737zm14.438 0a.37.37 0 01-.249-.096.368.368 0 01-.096-.248v-7.144h-2.455a.367.367 0 01-.248-.096.368.368 0 01-.096-.248v-1.476c0-.101.032-.184.096-.248a.367.367 0 01.248-.097h7.419c.101 0 .184.032.249.097a.337.337 0 01.096.248v1.476a.337.337 0 01-.096.248.339.339 0 01-.249.096h-2.454v7.144a.364.364 0 01-.097.248.335.335 0 01-.248.096h-1.82zm7.252 0a.37.37 0 01-.249-.096.368.368 0 01-.096-.248v-8.964c0-.101.032-.184.096-.248a.37.37 0 01.249-.097h6.44c.101 0 .183.032.248.097a.337.337 0 01.096.248v1.296a.368.368 0 01-.096.249.337.337 0 01-.248.096h-4.399v1.862h4.095c.101 0 .184.037.248.11a.334.334 0 01.097.248v1.2a.365.365 0 01-.097.248.335.335 0 01-.248.097h-4.095v1.917h4.509c.101 0 .184.032.248.096a.334.334 0 01.097.248v1.297a.364.364 0 01-.097.248.335.335 0 01-.248.096h-6.55zm13.029.138c-1.315 0-2.345-.317-3.089-.951-.736-.644-1.126-1.572-1.172-2.786a34.75 34.75 0 01-.014-1.213c0-.57.004-.984.014-1.242.046-1.195.445-2.114 1.199-2.758.754-.652 1.775-.979 3.062-.979.809 0 1.535.138 2.179.414.643.267 1.149.653 1.516 1.158.377.497.57 1.08.58 1.752v.027a.25.25 0 01-.097.194.291.291 0 01-.193.068h-1.862a.468.468 0 01-.275-.069.643.643 0 01-.166-.29c-.129-.468-.331-.794-.607-.978-.275-.193-.639-.29-1.089-.29-1.085 0-1.646.607-1.682 1.82-.01.249-.014.63-.014 1.145s.004.906.014 1.172c.036 1.214.597 1.82 1.682 1.82.45 0 .818-.096 1.103-.29.285-.201.483-.528.593-.978.037-.138.087-.23.152-.276.064-.055.161-.083.289-.083h1.862a.28.28 0 01.207.083.227.227 0 01.083.207c-.01.671-.203 1.26-.58 1.765-.367.496-.873.883-1.516 1.158-.644.267-1.37.4-2.179.4zm6.759-.138a.335.335 0 01-.248-.096.334.334 0 01-.097-.248v-8.964c0-.101.032-.184.097-.248a.365.365 0 01.248-.097h1.779c.101 0 .184.032.248.097.074.064.11.147.11.248v3.324h3.393v-3.324c0-.101.032-.184.096-.248a.337.337 0 01.248-.097h1.779c.101 0 .184.032.249.097a.337.337 0 01.096.248v8.964a.337.337 0 01-.096.248.339.339 0 01-.249.096h-1.779a.337.337 0 01-.248-.096.337.337 0 01-.096-.248v-3.434h-3.393v3.434a.313.313 0 01-.11.248.335.335 0 01-.248.096h-1.779zm10.965 0a.37.37 0 01-.249-.096.368.368 0 01-.096-.248v-8.964c0-.101.032-.184.096-.248a.37.37 0 01.249-.097h1.461c.23 0 .386.088.469.262l3.365 5.296v-5.213c0-.101.032-.184.096-.248a.37.37 0 01.249-.097h1.655c.101 0 .183.032.248.097a.337.337 0 01.096.248v8.95a.386.386 0 01-.096.262.337.337 0 01-.248.096h-1.476a.493.493 0 01-.455-.262l-3.365-5.102v5.02a.368.368 0 01-.096.248.337.337 0 01-.249.096h-1.654zm14.2.138c-1.296 0-2.317-.317-3.061-.951-.745-.635-1.14-1.568-1.186-2.8-.01-.266-.014-.661-.014-1.186 0-.533.004-.933.014-1.2.046-1.213.445-2.146 1.199-2.799.763-.662 1.779-.993 3.048-.993 1.269 0 2.284.331 3.048.993.763.653 1.162 1.586 1.199 2.8.019.533.028.933.028 1.2 0 .257-.009.652-.028 1.185-.046 1.232-.441 2.165-1.186 2.8-.744.634-1.765.951-3.061.951zm0-1.986c.506 0 .905-.151 1.2-.455.303-.303.464-.767.482-1.392.019-.534.028-.91.028-1.131 0-.24-.009-.616-.028-1.13-.018-.626-.179-1.09-.482-1.394-.304-.303-.704-.455-1.2-.455-.497 0-.896.152-1.2.455-.294.304-.455.768-.482 1.393-.01.258-.014.634-.014 1.13 0 .488.004.865.014 1.132.027.625.188 1.089.482 1.392.294.304.694.456 1.2.456zm6.908 1.848a.37.37 0 01-.249-.096.368.368 0 01-.096-.248v-8.964c0-.101.032-.184.096-.248a.37.37 0 01.249-.097h1.82c.101 0 .184.032.248.097a.338.338 0 01.097.248v7.226h4.178c.101 0 .184.037.248.11a.334.334 0 01.097.249v1.379a.364.364 0 01-.097.248.335.335 0 01-.248.096h-6.343zm12.395.138c-1.296 0-2.316-.317-3.061-.951-.745-.635-1.14-1.568-1.186-2.8a37.922 37.922 0 01-.014-1.186c0-.533.005-.933.014-1.2.046-1.213.446-2.146 1.2-2.799.763-.662 1.779-.993 3.047-.993 1.269 0 2.285.331 3.048.993.763.653 1.163 1.586 1.2 2.8.018.533.027.933.027 1.2 0 .257-.009.652-.027 1.185-.046 1.232-.442 2.165-1.186 2.8-.745.634-1.765.951-3.062.951zm0-1.986c.506 0 .906-.151 1.2-.455.303-.303.464-.767.483-1.392.018-.534.027-.91.027-1.131 0-.24-.009-.616-.027-1.13-.019-.626-.18-1.09-.483-1.394-.303-.303-.703-.455-1.2-.455-.496 0-.896.152-1.199.455-.295.304-.456.768-.483 1.393a34.75 34.75 0 00-.014 1.13c0 .488.005.865.014 1.132.027.625.188 1.089.483 1.392.294.304.694.456 1.199.456zm10.549 1.986c-1.324 0-2.359-.322-3.103-.965-.745-.653-1.14-1.577-1.186-2.772-.009-.266-.014-.69-.014-1.269s.005-1.002.014-1.268c.046-1.168.446-2.069 1.2-2.703.763-.634 1.792-.952 3.089-.952.873 0 1.631.143 2.275.428.653.285 1.149.648 1.489 1.09.35.44.533.896.552 1.364a.26.26 0 01-.097.207.28.28 0 01-.207.083h-2.013a.502.502 0 01-.221-.041.317.317 0 01-.137-.152 1.757 1.757 0 00-.566-.69c-.257-.202-.616-.303-1.075-.303-1.094 0-1.669.58-1.724 1.738a37.71 37.71 0 00-.014 1.2c0 .533.005.933.014 1.2.055 1.213.643 1.82 1.765 1.82.542 0 .974-.138 1.296-.414.331-.285.497-.717.497-1.296v-.262h-1.297a.335.335 0 01-.248-.097.386.386 0 01-.096-.262v-1.02c0-.102.032-.184.096-.249a.314.314 0 01.248-.11h3.475c.102 0 .184.037.249.11a.337.337 0 01.096.248v1.573c0 .781-.179 1.457-.538 2.027-.358.56-.868.993-1.53 1.296-.653.294-1.416.441-2.289.441zm9.092-.138a.365.365 0 01-.248-.096.37.37 0 01-.097-.248v-2.965l-3.199-5.902a.717.717 0 01-.041-.152c0-.074.027-.138.082-.193a.305.305 0 01.221-.097h1.724c.184 0 .345.097.482.29l1.972 3.558 1.986-3.558a.527.527 0 01.483-.29h1.724c.082 0 .151.032.207.097.055.055.082.12.082.193a.493.493 0 01-.027.152l-3.2 5.902v2.965a.313.313 0 01-.11.248.335.335 0 01-.248.096h-1.793z" fill="#fff"/></svg>