<svg width="273" height="78" viewBox="0 0 273 78" fill="none" xmlns="http://www.w3.org/2000/svg">
<path d="M83.909 10.279L73.6301 10.279V1.23978e-05C79.307 1.23978e-05 83.909 4.60207 83.909 10.279Z" fill="#0EF5FF"/>
<path d="M73.6907 15.5138H84.0332V67.6574H73.6907V15.5138Z" fill="white"/>
<path d="M94.3757 15.5138H104.718V67.6574H94.3757V15.5138Z" fill="white"/>
<path d="M53.0056 15.5138H63.3481V67.6574C63.3481 73.3695 58.7176 78 53.0056 78V15.5138Z" fill="white"/>
<path d="M32.3204 15.5138H42.663V67.6574H32.3204V15.5138Z" fill="white"/>
<path fill-rule="evenodd" clip-rule="evenodd" d="M114.63 24.9944L104.718 24.9944L104.718 15.5138L114.63 15.5138C127.006 15.5138 137.039 25.5466 137.039 37.9226L137.039 67.6575L135.315 67.6575C130.555 67.6575 126.696 63.7987 126.696 59.0387L126.696 37.0607C126.696 30.3967 121.294 24.9944 114.63 24.9944Z" fill="white"/>
<path fill-rule="evenodd" clip-rule="evenodd" d="M22.4088 58.1768L32.3204 58.1768L32.3204 67.6574L22.4088 67.6574C10.0328 67.6574 -2.58258e-05 57.6247 -2.47438e-05 45.2486L-2.21443e-05 15.5138L1.72373 15.5138C6.48376 15.5138 10.3425 19.3725 10.3425 24.1325L10.3425 46.1105C10.3425 52.7745 15.7448 58.1768 22.4088 58.1768Z" fill="white"/>
<path d="M154.532 51.4196C153.658 51.4196 152.909 51.2909 152.284 51.0334C151.659 50.776 151.185 50.4405 150.863 50.0268C150.551 49.6039 150.385 49.1442 150.367 48.6478C150.367 48.5742 150.395 48.5099 150.45 48.4547C150.514 48.3904 150.588 48.3582 150.67 48.3582H152.408C152.518 48.3582 152.606 48.3812 152.67 48.4271C152.743 48.4639 152.817 48.5237 152.891 48.6064C153.01 48.8454 153.203 49.0431 153.47 49.1994C153.736 49.3557 154.09 49.4338 154.532 49.4338C155.056 49.4338 155.455 49.3511 155.731 49.1856C156.007 49.0201 156.145 48.7949 156.145 48.5099C156.145 48.3076 156.071 48.1421 155.924 48.0134C155.786 47.8847 155.566 47.7698 155.262 47.6687C154.959 47.5675 154.509 47.4526 153.911 47.3239C152.808 47.0941 151.98 46.7585 151.429 46.3172C150.886 45.8668 150.615 45.2278 150.615 44.4004C150.615 43.8396 150.771 43.3386 151.084 42.8973C151.397 42.456 151.842 42.1113 152.422 41.8631C153.001 41.6148 153.677 41.4907 154.449 41.4907C155.249 41.4907 155.943 41.6286 156.531 41.9044C157.119 42.1802 157.565 42.5296 157.869 42.9525C158.181 43.3662 158.347 43.7753 158.365 44.1798C158.365 44.2625 158.338 44.3315 158.282 44.3866C158.227 44.4418 158.158 44.4694 158.076 44.4694H156.255C156.145 44.4694 156.053 44.451 155.979 44.4142C155.915 44.3774 155.855 44.3177 155.8 44.2349C155.745 44.0235 155.593 43.8442 155.345 43.6971C155.106 43.55 154.807 43.4765 154.449 43.4765C154.035 43.4765 153.718 43.55 153.497 43.6971C153.277 43.8442 153.166 44.0603 153.166 44.3453C153.166 44.5383 153.226 44.6992 153.346 44.8279C153.474 44.9566 153.677 45.0761 153.952 45.1865C154.237 45.2876 154.642 45.3933 155.166 45.5036C156.021 45.6599 156.701 45.8576 157.207 46.0966C157.722 46.3264 158.099 46.6298 158.338 47.0067C158.577 47.3745 158.696 47.8387 158.696 48.3995C158.696 49.0155 158.517 49.5533 158.158 50.013C157.809 50.4635 157.317 50.8128 156.683 51.061C156.058 51.3001 155.341 51.4196 154.532 51.4196Z" fill="white"/>
<path d="M161.111 51.2817C161.019 51.2817 160.936 51.2495 160.862 51.1851C160.798 51.1116 160.766 51.0289 160.766 50.9369V41.9734C160.766 41.8722 160.798 41.7895 160.862 41.7252C160.936 41.6608 161.019 41.6286 161.111 41.6286H167.551C167.652 41.6286 167.734 41.6608 167.799 41.7252C167.863 41.7895 167.895 41.8722 167.895 41.9734V43.2696C167.895 43.3616 167.863 43.4443 167.799 43.5179C167.734 43.5822 167.652 43.6144 167.551 43.6144H163.152V45.4761H167.247C167.348 45.4761 167.431 45.5128 167.495 45.5864C167.56 45.6507 167.592 45.7335 167.592 45.8346V47.0343C167.592 47.1263 167.56 47.209 167.495 47.2826C167.431 47.3469 167.348 47.3791 167.247 47.3791H163.152V49.2959H167.661C167.762 49.2959 167.845 49.3281 167.909 49.3924C167.973 49.4568 168.006 49.5395 168.006 49.6407V50.9369C168.006 51.0289 167.973 51.1116 167.909 51.1851C167.845 51.2495 167.762 51.2817 167.661 51.2817H161.111Z" fill="white"/>
<path d="M170.607 51.2817C170.515 51.2817 170.433 51.2495 170.359 51.1851C170.295 51.1116 170.263 51.0289 170.263 50.9369V41.9734C170.263 41.8722 170.295 41.7895 170.359 41.7252C170.433 41.6608 170.515 41.6286 170.607 41.6286H172.069C172.299 41.6286 172.455 41.716 172.538 41.8906L175.903 47.186V41.9734C175.903 41.8722 175.935 41.7895 175.999 41.7252C176.073 41.6608 176.156 41.6286 176.248 41.6286H177.902C178.003 41.6286 178.086 41.6608 178.151 41.7252C178.215 41.7895 178.247 41.8722 178.247 41.9734V50.9231C178.247 51.0243 178.215 51.1116 178.151 51.1851C178.086 51.2495 178.003 51.2817 177.902 51.2817H176.427C176.225 51.2817 176.073 51.1943 175.972 51.0197L172.607 45.9173V50.9369C172.607 51.0289 172.575 51.1116 172.51 51.1851C172.446 51.2495 172.363 51.2817 172.262 51.2817H170.607Z" fill="white"/>
<path d="M184.463 51.4196C183.59 51.4196 182.84 51.2909 182.215 51.0334C181.59 50.776 181.117 50.4405 180.795 50.0268C180.482 49.6039 180.317 49.1442 180.298 48.6478C180.298 48.5742 180.326 48.5099 180.381 48.4547C180.445 48.3904 180.519 48.3582 180.602 48.3582H182.339C182.45 48.3582 182.537 48.3812 182.601 48.4271C182.675 48.4639 182.748 48.5237 182.822 48.6064C182.941 48.8454 183.135 49.0431 183.401 49.1994C183.668 49.3557 184.022 49.4338 184.463 49.4338C184.987 49.4338 185.387 49.3511 185.663 49.1856C185.939 49.0201 186.076 48.7949 186.076 48.5099C186.076 48.3076 186.003 48.1421 185.856 48.0134C185.718 47.8847 185.497 47.7698 185.194 47.6687C184.89 47.5675 184.44 47.4526 183.842 47.3239C182.739 47.0941 181.912 46.7585 181.36 46.3172C180.818 45.8668 180.547 45.2278 180.547 44.4004C180.547 43.8396 180.703 43.3386 181.015 42.8973C181.328 42.456 181.774 42.1113 182.353 41.8631C182.932 41.6148 183.608 41.4907 184.38 41.4907C185.18 41.4907 185.874 41.6286 186.463 41.9044C187.051 42.1802 187.497 42.5296 187.8 42.9525C188.113 43.3662 188.278 43.7753 188.297 44.1798C188.297 44.2625 188.269 44.3315 188.214 44.3866C188.159 44.4418 188.09 44.4694 188.007 44.4694H186.187C186.076 44.4694 185.984 44.451 185.911 44.4142C185.847 44.3774 185.787 44.3177 185.732 44.2349C185.677 44.0235 185.525 43.8442 185.277 43.6971C185.038 43.55 184.739 43.4765 184.38 43.4765C183.967 43.4765 183.649 43.55 183.429 43.6971C183.208 43.8442 183.098 44.0603 183.098 44.3453C183.098 44.5383 183.158 44.6992 183.277 44.8279C183.406 44.9566 183.608 45.0761 183.884 45.1865C184.169 45.2876 184.573 45.3933 185.097 45.5036C185.952 45.6599 186.633 45.8576 187.138 46.0966C187.653 46.3264 188.03 46.6298 188.269 47.0067C188.508 47.3745 188.628 47.8387 188.628 48.3995C188.628 49.0155 188.448 49.5533 188.09 50.013C187.74 50.4635 187.249 50.8128 186.614 51.061C185.989 51.3001 185.272 51.4196 184.463 51.4196Z" fill="white"/>
<path d="M191.042 51.2817C190.95 51.2817 190.867 51.2495 190.794 51.1851C190.729 51.1116 190.697 51.0289 190.697 50.9369V41.9734C190.697 41.8722 190.729 41.7895 190.794 41.7252C190.867 41.6608 190.95 41.6286 191.042 41.6286H197.482C197.583 41.6286 197.666 41.6608 197.73 41.7252C197.795 41.7895 197.827 41.8722 197.827 41.9734V43.2696C197.827 43.3616 197.795 43.4443 197.73 43.5179C197.666 43.5822 197.583 43.6144 197.482 43.6144H193.083V45.4761H197.179C197.28 45.4761 197.362 45.5128 197.427 45.5864C197.491 45.6507 197.523 45.7335 197.523 45.8346V47.0343C197.523 47.1263 197.491 47.209 197.427 47.2826C197.362 47.3469 197.28 47.3791 197.179 47.3791H193.083V49.2959H197.592C197.693 49.2959 197.776 49.3281 197.841 49.3924C197.905 49.4568 197.937 49.5395 197.937 49.6407V50.9369C197.937 51.0289 197.905 51.1116 197.841 51.1851C197.776 51.2495 197.693 51.2817 197.592 51.2817H191.042Z" fill="white"/>
<path d="M154.876 67.7953C153.58 67.7953 152.56 67.4781 151.815 66.8438C151.07 66.2094 150.675 65.2763 150.629 64.0444C150.62 63.7778 150.615 63.3825 150.615 62.8584C150.615 62.3252 150.62 61.9253 150.629 61.6587C150.675 60.4452 151.075 59.512 151.829 58.8593C152.592 58.1974 153.608 57.8664 154.876 57.8664C156.145 57.8664 157.161 58.1974 157.924 58.8593C158.687 59.512 159.087 60.4452 159.124 61.6587C159.142 62.1919 159.151 62.5918 159.151 62.8584C159.151 63.1158 159.142 63.5112 159.124 64.0444C159.078 65.2763 158.682 66.2094 157.938 66.8438C157.193 67.4781 156.173 67.7953 154.876 67.7953ZM154.876 65.8095C155.382 65.8095 155.782 65.6578 156.076 65.3544C156.379 65.051 156.54 64.5868 156.559 63.9616C156.577 63.4284 156.586 63.0515 156.586 62.8308C156.586 62.5918 156.577 62.2149 156.559 61.7001C156.54 61.0749 156.379 60.6106 156.076 60.3073C155.773 60.0039 155.373 59.8522 154.876 59.8522C154.38 59.8522 153.98 60.0039 153.677 60.3073C153.382 60.6106 153.221 61.0749 153.194 61.7001C153.185 61.9575 153.18 62.3344 153.18 62.8308C153.18 63.3181 153.185 63.695 153.194 63.9616C153.221 64.5868 153.382 65.051 153.677 65.3544C153.971 65.6578 154.371 65.8095 154.876 65.8095Z" fill="white"/>
<path d="M161.784 67.6574C161.692 67.6574 161.609 67.6252 161.536 67.5608C161.471 67.4873 161.439 67.4046 161.439 67.3126V58.3491C161.439 58.248 161.471 58.1652 161.536 58.1009C161.609 58.0365 161.692 58.0043 161.784 58.0043H168.127C168.228 58.0043 168.311 58.0365 168.376 58.1009C168.44 58.1652 168.472 58.248 168.472 58.3491V59.7419C168.472 59.8338 168.44 59.9165 168.376 59.9901C168.311 60.0544 168.228 60.0866 168.127 60.0866H163.866V62.1138H167.852C167.953 62.1138 168.035 62.1505 168.1 62.2241C168.164 62.2884 168.196 62.3712 168.196 62.4723V63.8513C168.196 63.9432 168.164 64.026 168.1 64.0995C168.035 64.1639 167.953 64.1961 167.852 64.1961H163.866V67.3126C163.866 67.4137 163.834 67.4965 163.77 67.5608C163.705 67.6252 163.623 67.6574 163.521 67.6574H161.784Z" fill="white"/>
<path d="M176.222 67.6574C176.13 67.6574 176.047 67.6252 175.973 67.5608C175.909 67.4873 175.877 67.4046 175.877 67.3126V60.1694H173.422C173.33 60.1694 173.248 60.1372 173.174 60.0728C173.11 59.9993 173.078 59.9165 173.078 59.8246V58.3491C173.078 58.248 173.11 58.1652 173.174 58.1009C173.248 58.0365 173.33 58.0043 173.422 58.0043H180.841C180.942 58.0043 181.025 58.0365 181.09 58.1009C181.154 58.1652 181.186 58.248 181.186 58.3491V59.8246C181.186 59.9257 181.154 60.0085 181.09 60.0728C181.025 60.1372 180.942 60.1694 180.841 60.1694H178.387V67.3126C178.387 67.4046 178.355 67.4873 178.29 67.5608C178.226 67.6252 178.143 67.6574 178.042 67.6574H176.222Z" fill="white"/>
<path d="M183.474 67.6574C183.382 67.6574 183.299 67.6252 183.225 67.5608C183.161 67.4873 183.129 67.4046 183.129 67.3126V58.3491C183.129 58.248 183.161 58.1652 183.225 58.1009C183.299 58.0365 183.382 58.0043 183.474 58.0043H189.914C190.015 58.0043 190.097 58.0365 190.162 58.1009C190.226 58.1652 190.258 58.248 190.258 58.3491V59.6453C190.258 59.7373 190.226 59.82 190.162 59.8936C190.097 59.9579 190.015 59.9901 189.914 59.9901H185.515V61.8518H189.61C189.711 61.8518 189.794 61.8885 189.858 61.9621C189.923 62.0264 189.955 62.1092 189.955 62.2103V63.41C189.955 63.502 189.923 63.5847 189.858 63.6583C189.794 63.7226 189.711 63.7548 189.61 63.7548H185.515V65.6716H190.024C190.125 65.6716 190.208 65.7038 190.272 65.7681C190.337 65.8325 190.369 65.9152 190.369 66.0164V67.3126C190.369 67.4046 190.337 67.4873 190.272 67.5608C190.208 67.6252 190.125 67.6574 190.024 67.6574H183.474Z" fill="white"/>
<path d="M196.503 67.7953C195.188 67.7953 194.158 67.4781 193.414 66.8438C192.678 66.2002 192.288 65.2717 192.242 64.0582C192.232 63.8099 192.228 63.4054 192.228 62.8446C192.228 62.2746 192.232 61.8609 192.242 61.6035C192.288 60.4084 192.687 59.4891 193.441 58.8455C194.195 58.1928 195.216 57.8664 196.503 57.8664C197.312 57.8664 198.038 58.0043 198.682 58.2801C199.325 58.5467 199.831 58.9329 200.198 59.4385C200.575 59.9349 200.768 60.5187 200.778 61.1898V61.2174C200.778 61.291 200.745 61.3553 200.681 61.4105C200.626 61.4564 200.562 61.4794 200.488 61.4794H198.626C198.507 61.4794 198.415 61.4564 198.351 61.4105C198.286 61.3553 198.231 61.2588 198.185 61.1209C198.056 60.652 197.854 60.3257 197.578 60.1418C197.303 59.9487 196.939 59.8522 196.489 59.8522C195.404 59.8522 194.843 60.459 194.807 61.6725C194.797 61.9207 194.793 62.3022 194.793 62.8171C194.793 63.3319 194.797 63.7226 194.807 63.9892C194.843 65.2027 195.404 65.8095 196.489 65.8095C196.939 65.8095 197.307 65.713 197.592 65.5199C197.877 65.3177 198.075 64.9913 198.185 64.5408C198.222 64.4029 198.272 64.311 198.337 64.265C198.401 64.2099 198.498 64.1823 198.626 64.1823H200.488C200.571 64.1823 200.64 64.2099 200.695 64.265C200.759 64.3202 200.787 64.3891 200.778 64.4719C200.768 65.143 200.575 65.7314 200.198 66.237C199.831 66.7334 199.325 67.1196 198.682 67.3954C198.038 67.662 197.312 67.7953 196.503 67.7953Z" fill="white"/>
<path d="M203.262 67.6574C203.161 67.6574 203.078 67.6252 203.014 67.5608C202.949 67.4965 202.917 67.4137 202.917 67.3126V58.3491C202.917 58.248 202.949 58.1652 203.014 58.1009C203.087 58.0365 203.17 58.0043 203.262 58.0043H205.041C205.142 58.0043 205.225 58.0365 205.289 58.1009C205.363 58.1652 205.399 58.248 205.399 58.3491V61.6725H208.792V58.3491C208.792 58.248 208.824 58.1652 208.888 58.1009C208.953 58.0365 209.035 58.0043 209.136 58.0043H210.915C211.016 58.0043 211.099 58.0365 211.164 58.1009C211.228 58.1652 211.26 58.248 211.26 58.3491V67.3126C211.26 67.4137 211.228 67.4965 211.164 67.5608C211.099 67.6252 211.016 67.6574 210.915 67.6574H209.136C209.035 67.6574 208.953 67.6252 208.888 67.5608C208.824 67.4965 208.792 67.4137 208.792 67.3126V63.8789H205.399V67.3126C205.399 67.4137 205.363 67.4965 205.289 67.5608C205.225 67.6252 205.142 67.6574 205.041 67.6574H203.262Z" fill="white"/>
<path d="M214.227 67.6574C214.135 67.6574 214.052 67.6252 213.978 67.5608C213.914 67.4873 213.882 67.4046 213.882 67.3126V58.3491C213.882 58.248 213.914 58.1652 213.978 58.1009C214.052 58.0365 214.135 58.0043 214.227 58.0043H215.688C215.918 58.0043 216.074 58.0917 216.157 58.2663L219.522 63.5617V58.3491C219.522 58.248 219.554 58.1652 219.618 58.1009C219.692 58.0365 219.775 58.0043 219.867 58.0043H221.522C221.623 58.0043 221.705 58.0365 221.77 58.1009C221.834 58.1652 221.866 58.248 221.866 58.3491V67.2988C221.866 67.4 221.834 67.4873 221.77 67.5608C221.705 67.6252 221.623 67.6574 221.522 67.6574H220.046C219.844 67.6574 219.692 67.57 219.591 67.3954L216.226 62.293V67.3126C216.226 67.4046 216.194 67.4873 216.13 67.5608C216.065 67.6252 215.983 67.6574 215.881 67.6574H214.227Z" fill="white"/>
<path d="M228.427 67.7953C227.131 67.7953 226.11 67.4781 225.366 66.8438C224.621 66.2094 224.226 65.2763 224.18 64.0444C224.17 63.7778 224.166 63.3825 224.166 62.8584C224.166 62.3252 224.17 61.9253 224.18 61.6587C224.226 60.4452 224.625 59.512 225.379 58.8593C226.142 58.1974 227.158 57.8664 228.427 57.8664C229.696 57.8664 230.711 58.1974 231.475 58.8593C232.238 59.512 232.637 60.4452 232.674 61.6587C232.693 62.1919 232.702 62.5918 232.702 62.8584C232.702 63.1158 232.693 63.5112 232.674 64.0444C232.628 65.2763 232.233 66.2094 231.488 66.8438C230.744 67.4781 229.723 67.7953 228.427 67.7953ZM228.427 65.8095C228.933 65.8095 229.332 65.6578 229.627 65.3544C229.93 65.051 230.091 64.5868 230.109 63.9616C230.128 63.4284 230.137 63.0515 230.137 62.8308C230.137 62.5918 230.128 62.2149 230.109 61.7001C230.091 61.0749 229.93 60.6106 229.627 60.3073C229.323 60.0039 228.923 59.8522 228.427 59.8522C227.93 59.8522 227.531 60.0039 227.227 60.3073C226.933 60.6106 226.772 61.0749 226.745 61.7001C226.735 61.9575 226.731 62.3344 226.731 62.8308C226.731 63.3181 226.735 63.695 226.745 63.9616C226.772 64.5868 226.933 65.051 227.227 65.3544C227.521 65.6578 227.921 65.8095 228.427 65.8095Z" fill="white"/>
<path d="M235.335 67.6574C235.243 67.6574 235.16 67.6252 235.086 67.5608C235.022 67.4873 234.99 67.4046 234.99 67.3126V58.3491C234.99 58.248 235.022 58.1652 235.086 58.1009C235.16 58.0365 235.243 58.0043 235.335 58.0043H237.155C237.256 58.0043 237.339 58.0365 237.403 58.1009C237.467 58.1652 237.5 58.248 237.5 58.3491V65.5751H241.678C241.779 65.5751 241.862 65.6118 241.926 65.6854C241.991 65.7497 242.023 65.8325 242.023 65.9336V67.3126C242.023 67.4046 241.991 67.4873 241.926 67.5608C241.862 67.6252 241.779 67.6574 241.678 67.6574H235.335Z" fill="white"/>
<path d="M247.73 67.7953C246.434 67.7953 245.414 67.4781 244.669 66.8438C243.924 66.2094 243.529 65.2763 243.483 64.0444C243.474 63.7778 243.469 63.3825 243.469 62.8584C243.469 62.3252 243.474 61.9253 243.483 61.6587C243.529 60.4452 243.929 59.512 244.683 58.8593C245.446 58.1974 246.462 57.8664 247.73 57.8664C248.999 57.8664 250.015 58.1974 250.778 58.8593C251.541 59.512 251.941 60.4452 251.978 61.6587C251.996 62.1919 252.005 62.5918 252.005 62.8584C252.005 63.1158 251.996 63.5112 251.978 64.0444C251.932 65.2763 251.536 66.2094 250.792 66.8438C250.047 67.4781 249.027 67.7953 247.73 67.7953ZM247.73 65.8095C248.236 65.8095 248.636 65.6578 248.93 65.3544C249.233 65.051 249.394 64.5868 249.413 63.9616C249.431 63.4284 249.44 63.0515 249.44 62.8308C249.44 62.5918 249.431 62.2149 249.413 61.7001C249.394 61.0749 249.233 60.6106 248.93 60.3073C248.627 60.0039 248.227 59.8522 247.73 59.8522C247.234 59.8522 246.834 60.0039 246.531 60.3073C246.236 60.6106 246.075 61.0749 246.048 61.7001C246.039 61.9575 246.034 62.3344 246.034 62.8308C246.034 63.3181 246.039 63.695 246.048 63.9616C246.075 64.5868 246.236 65.051 246.531 65.3544C246.825 65.6578 247.225 65.8095 247.73 65.8095Z" fill="white"/>
<path d="M258.279 67.7953C256.955 67.7953 255.92 67.4735 255.176 66.83C254.431 66.1772 254.036 65.2533 253.99 64.0582C253.981 63.7916 253.976 63.3687 253.976 62.7895C253.976 62.2103 253.981 61.7874 253.99 61.5208C254.036 60.3532 254.436 59.4523 255.19 58.8179C255.953 58.1836 256.982 57.8664 258.279 57.8664C259.152 57.8664 259.91 58.0089 260.554 58.2939C261.207 58.5789 261.703 58.9421 262.043 59.3833C262.393 59.8246 262.576 60.2797 262.595 60.7485C262.595 60.8313 262.563 60.9002 262.498 60.9554C262.443 61.0106 262.374 61.0381 262.291 61.0381H260.278C260.186 61.0381 260.113 61.0243 260.057 60.9968C260.002 60.9692 259.956 60.9186 259.92 60.8451C259.8 60.5785 259.612 60.3486 259.354 60.1556C259.097 59.9533 258.738 59.8522 258.279 59.8522C257.185 59.8522 256.61 60.4314 256.555 61.5897C256.546 61.8472 256.541 62.2471 256.541 62.7895C256.541 63.3227 256.546 63.7226 256.555 63.9892C256.61 65.2027 257.198 65.8095 258.32 65.8095C258.862 65.8095 259.294 65.6716 259.616 65.3958C259.947 65.1108 260.113 64.6787 260.113 64.0995V63.8375H258.816C258.715 63.8375 258.632 63.8053 258.568 63.741C258.504 63.6674 258.472 63.5801 258.472 63.479V62.4585C258.472 62.3574 258.504 62.2746 258.568 62.2103C258.632 62.1367 258.715 62.1 258.816 62.1H262.291C262.393 62.1 262.475 62.1367 262.54 62.2103C262.604 62.2746 262.636 62.3574 262.636 62.4585V64.0306C262.636 64.812 262.457 65.4877 262.098 66.0577C261.74 66.6185 261.23 67.0506 260.568 67.354C259.915 67.6482 259.152 67.7953 258.279 67.7953Z" fill="white"/>
<path d="M267.371 67.6574C267.279 67.6574 267.196 67.6252 267.123 67.5608C267.059 67.4873 267.026 67.4046 267.026 67.3126V64.3478L263.827 58.4456C263.799 58.3629 263.786 58.3123 263.786 58.2939C263.786 58.2204 263.813 58.156 263.868 58.1009C263.933 58.0365 264.006 58.0043 264.089 58.0043H265.813C265.997 58.0043 266.158 58.1009 266.295 58.2939L268.267 61.8518L270.253 58.2939C270.364 58.1009 270.524 58.0043 270.736 58.0043H272.46C272.542 58.0043 272.611 58.0365 272.667 58.1009C272.722 58.156 272.749 58.2204 272.749 58.2939C272.749 58.3399 272.74 58.3904 272.722 58.4456L269.522 64.3478V67.3126C269.522 67.4137 269.486 67.4965 269.412 67.5608C269.348 67.6252 269.265 67.6574 269.164 67.6574H267.371Z" fill="white"/>
</svg>
